G04*
G04 #@! TF.GenerationSoftware,Altium Limited,Altium Designer,24.3.1 (35)*
G04*
G04 Layer_Physical_Order=2*
G04 Layer_Color=16711680*
%FSLAX44Y44*%
%MOMM*%
G71*
G04*
G04 #@! TF.SameCoordinates,20FE00C5-B78C-4F66-917A-800DED35DAD6*
G04*
G04*
G04 #@! TF.FilePolarity,Positive*
G04*
G01*
G75*
%ADD11C,0.2540*%
%ADD20R,1.3500X1.1500*%
%ADD62C,0.5000*%
%ADD63C,1.8000*%
%ADD64R,1.8000X1.8000*%
%ADD65C,2.1000*%
%ADD66C,1.5000*%
G04:AMPARAMS|DCode=67|XSize=4mm|YSize=1.8mm|CornerRadius=0.45mm|HoleSize=0mm|Usage=FLASHONLY|Rotation=0.000|XOffset=0mm|YOffset=0mm|HoleType=Round|Shape=RoundedRectangle|*
%AMROUNDEDRECTD67*
21,1,4.0000,0.9000,0,0,0.0*
21,1,3.1000,1.8000,0,0,0.0*
1,1,0.9000,1.5500,-0.4500*
1,1,0.9000,-1.5500,-0.4500*
1,1,0.9000,-1.5500,0.4500*
1,1,0.9000,1.5500,0.4500*
%
%ADD67ROUNDEDRECTD67*%
G04:AMPARAMS|DCode=68|XSize=4mm|YSize=1.8mm|CornerRadius=0.45mm|HoleSize=0mm|Usage=FLASHONLY|Rotation=270.000|XOffset=0mm|YOffset=0mm|HoleType=Round|Shape=RoundedRectangle|*
%AMROUNDEDRECTD68*
21,1,4.0000,0.9000,0,0,270.0*
21,1,3.1000,1.8000,0,0,270.0*
1,1,0.9000,-0.4500,-1.5500*
1,1,0.9000,-0.4500,1.5500*
1,1,0.9000,0.4500,1.5500*
1,1,0.9000,0.4500,-1.5500*
%
%ADD68ROUNDEDRECTD68*%
%ADD69C,7.0000*%
%ADD70C,1.6500*%
G04:AMPARAMS|DCode=71|XSize=1.65mm|YSize=1.65mm|CornerRadius=0.4125mm|HoleSize=0mm|Usage=FLASHONLY|Rotation=90.000|XOffset=0mm|YOffset=0mm|HoleType=Round|Shape=RoundedRectangle|*
%AMROUNDEDRECTD71*
21,1,1.6500,0.8250,0,0,90.0*
21,1,0.8250,1.6500,0,0,90.0*
1,1,0.8250,0.4125,0.4125*
1,1,0.8250,0.4125,-0.4125*
1,1,0.8250,-0.4125,-0.4125*
1,1,0.8250,-0.4125,0.4125*
%
%ADD71ROUNDEDRECTD71*%
%ADD72R,1.7000X1.7000*%
%ADD73C,1.7000*%
%ADD74C,1.2700*%
%ADD75C,0.7000*%
G36*
X580000Y500000D02*
X581970D01*
X585834Y499231D01*
X589473Y497724D01*
X592749Y495535D01*
X595535Y492749D01*
X597724Y489473D01*
X599231Y485834D01*
X600000Y481970D01*
Y480000D01*
X600000Y480000D01*
X600000Y480000D01*
Y20000D01*
Y18030D01*
X599231Y14166D01*
X597724Y10526D01*
X595535Y7251D01*
X592749Y4465D01*
X589473Y2276D01*
X585834Y769D01*
X581970Y0D01*
X18030D01*
X14166Y769D01*
X10526Y2276D01*
X7251Y4465D01*
X4465Y7251D01*
X2276Y10526D01*
X769Y14166D01*
X0Y18030D01*
Y20000D01*
X-0Y480000D01*
Y481970D01*
X768Y485834D01*
X2276Y489473D01*
X4465Y492749D01*
X7251Y495535D01*
X10526Y497724D01*
X14166Y499231D01*
X18030Y500000D01*
X20000Y500000D01*
X20000Y500000D01*
X580000Y500000D01*
D02*
G37*
%LPC*%
G36*
X317233Y438150D02*
X315227D01*
X313289Y437631D01*
X311551Y436628D01*
X310133Y435209D01*
X309650Y434374D01*
X162560D01*
X161089Y434081D01*
X159842Y433248D01*
X159842Y433248D01*
X138108Y411514D01*
X24130D01*
X22659Y411221D01*
X21412Y410388D01*
X21412Y410388D01*
X6172Y395148D01*
X5339Y393901D01*
X5046Y392430D01*
X5046Y392430D01*
Y342019D01*
X5046Y342019D01*
X5339Y340548D01*
X6172Y339301D01*
X11980Y333493D01*
X11981Y333492D01*
X13227Y332659D01*
X14698Y332367D01*
X15984D01*
X16529Y330335D01*
X17782Y328165D01*
X19555Y326392D01*
X21725Y325139D01*
X24147Y324490D01*
X26653D01*
X29075Y325139D01*
X31245Y326392D01*
X33018Y328165D01*
X34129Y330089D01*
X34809Y330325D01*
X35579Y330309D01*
X44499Y321389D01*
X45340Y320827D01*
X46331Y320630D01*
X108590D01*
X109581Y320827D01*
X110421Y321389D01*
X119589Y330556D01*
X119701Y330510D01*
X121599D01*
X123352Y331236D01*
X124694Y332578D01*
X124740Y332690D01*
X127870D01*
Y327350D01*
X143910D01*
Y341390D01*
X127870D01*
Y337870D01*
X124740D01*
X124694Y337982D01*
X123352Y339324D01*
X121599Y340050D01*
X119701D01*
X117948Y339324D01*
X116606Y337982D01*
X115880Y336229D01*
Y334331D01*
X115927Y334219D01*
X107517Y325810D01*
X47403D01*
X39791Y333423D01*
Y345069D01*
X39594Y346060D01*
X39497Y346204D01*
X40484Y347014D01*
X42619Y344879D01*
X43459Y344317D01*
X44450Y344120D01*
X160890D01*
Y339902D01*
X152148Y331160D01*
X151451D01*
X149698Y330434D01*
X148356Y329092D01*
X147630Y327339D01*
Y325441D01*
X148140Y324210D01*
X147445Y322940D01*
X140370D01*
X140120Y322890D01*
X127870D01*
Y318460D01*
X59605D01*
X58614Y318263D01*
X57774Y317701D01*
X57545Y317473D01*
X57030Y317817D01*
X54925Y318236D01*
X46675D01*
X44570Y317817D01*
X42785Y316625D01*
X41593Y314840D01*
X41174Y312735D01*
Y304485D01*
X41593Y302380D01*
X42785Y300595D01*
X44570Y299403D01*
X46675Y298984D01*
X54925D01*
X57030Y299403D01*
X58815Y300595D01*
X60007Y302380D01*
X60426Y304485D01*
Y312735D01*
X61587Y313280D01*
X127870D01*
Y308850D01*
X143910D01*
Y317760D01*
X154902D01*
X155893Y317957D01*
X156733Y318519D01*
X159620Y321406D01*
X160890Y320880D01*
Y317740D01*
X176930D01*
Y331780D01*
X161889D01*
X161362Y333050D01*
X164552Y336240D01*
X176930D01*
Y350280D01*
X160890D01*
Y349300D01*
X54757D01*
X54475Y350539D01*
X56645Y351792D01*
X58418Y353565D01*
X59671Y355735D01*
X59962Y356820D01*
X143510D01*
X144501Y357017D01*
X145341Y357579D01*
X147874Y360111D01*
X148189Y359929D01*
X150127Y359410D01*
X152133D01*
X154071Y359929D01*
X155809Y360933D01*
X157227Y362351D01*
X158231Y364089D01*
X158750Y366027D01*
Y368033D01*
X158231Y369971D01*
X157227Y371709D01*
X155809Y373128D01*
X154071Y374131D01*
X152133Y374650D01*
X150127D01*
X148189Y374131D01*
X146451Y373128D01*
X145033Y371709D01*
X144029Y369971D01*
X143510Y368033D01*
Y366027D01*
X144029Y364089D01*
X144211Y363774D01*
X142437Y362000D01*
X59962D01*
X59671Y363085D01*
X58418Y365255D01*
X56645Y367028D01*
X54475Y368281D01*
X52053Y368930D01*
X49547D01*
X47125Y368281D01*
X44955Y367028D01*
X43182Y365255D01*
X41929Y363085D01*
X41280Y360663D01*
Y358157D01*
X41929Y355735D01*
X43182Y353565D01*
X44955Y351792D01*
X47125Y350539D01*
X46843Y349300D01*
X45523D01*
X39791Y355032D01*
Y373009D01*
X39594Y374000D01*
X39032Y374840D01*
X33710Y380163D01*
X34271Y381135D01*
X34920Y383557D01*
Y386063D01*
X34271Y388485D01*
X33018Y390655D01*
X31245Y392428D01*
X29075Y393681D01*
X26653Y394330D01*
X24147D01*
X21725Y393681D01*
X19555Y392428D01*
X17782Y390655D01*
X16529Y388485D01*
X15880Y386063D01*
Y383557D01*
X16529Y381135D01*
X17782Y378965D01*
X19555Y377192D01*
X21725Y375939D01*
X24147Y375290D01*
X26653D01*
X29075Y375939D01*
X30047Y376500D01*
X34611Y371936D01*
Y365036D01*
X33341Y364696D01*
X33018Y365255D01*
X31245Y367028D01*
X29075Y368281D01*
X26653Y368930D01*
X24147D01*
X21725Y368281D01*
X19555Y367028D01*
X17782Y365255D01*
X16529Y363085D01*
X15880Y360663D01*
Y358157D01*
X16529Y355735D01*
X17782Y353565D01*
X19555Y351792D01*
X21725Y350539D01*
X24147Y349890D01*
X26653D01*
X28281Y350326D01*
X34611Y343996D01*
Y339636D01*
X33341Y339296D01*
X33018Y339855D01*
X31245Y341628D01*
X29075Y342881D01*
X26653Y343530D01*
X24147D01*
X21725Y342881D01*
X19555Y341628D01*
X17981Y340054D01*
X16291D01*
X12734Y343611D01*
Y390838D01*
X25722Y403826D01*
X139700D01*
X139700Y403826D01*
X141171Y404119D01*
X142418Y404952D01*
X164152Y426686D01*
X309650D01*
X310133Y425851D01*
X311551Y424432D01*
X313289Y423429D01*
X315227Y422910D01*
X317233D01*
X319171Y423429D01*
X320909Y424432D01*
X322327Y425851D01*
X323331Y427589D01*
X323850Y429527D01*
Y431533D01*
X323331Y433471D01*
X322327Y435209D01*
X320909Y436628D01*
X319171Y437631D01*
X317233Y438150D01*
D02*
G37*
G36*
X482485Y434220D02*
X480175D01*
X477945Y433622D01*
X475945Y432468D01*
X474312Y430835D01*
X473158Y428835D01*
X472560Y426605D01*
Y424295D01*
X473158Y422065D01*
X474312Y420065D01*
X475945Y418432D01*
X477945Y417278D01*
X480175Y416680D01*
X482485D01*
X484715Y417278D01*
X486715Y418432D01*
X488348Y420065D01*
X489502Y422065D01*
X490100Y424295D01*
Y426605D01*
X489502Y428835D01*
X488348Y430835D01*
X486715Y432468D01*
X484715Y433622D01*
X482485Y434220D01*
D02*
G37*
G36*
X431685D02*
X429375D01*
X427145Y433622D01*
X425145Y432468D01*
X423512Y430835D01*
X422358Y428835D01*
X421760Y426605D01*
Y424295D01*
X422358Y422065D01*
X423512Y420065D01*
X425145Y418432D01*
X427145Y417278D01*
X429375Y416680D01*
X431685D01*
X433915Y417278D01*
X435915Y418432D01*
X437548Y420065D01*
X438702Y422065D01*
X439300Y424295D01*
Y426605D01*
X438702Y428835D01*
X437548Y430835D01*
X435915Y432468D01*
X433915Y433622D01*
X431685Y434220D01*
D02*
G37*
G36*
X164833Y414020D02*
X162827D01*
X160889Y413501D01*
X159151Y412497D01*
X157732Y411079D01*
X156729Y409341D01*
X156210Y407403D01*
Y405397D01*
X156729Y403459D01*
X157732Y401721D01*
X157881Y401573D01*
X143707Y387400D01*
X59962D01*
X59671Y388485D01*
X58418Y390655D01*
X56645Y392428D01*
X54475Y393681D01*
X52053Y394330D01*
X49547D01*
X47125Y393681D01*
X44955Y392428D01*
X43182Y390655D01*
X41929Y388485D01*
X41280Y386063D01*
Y383557D01*
X41929Y381135D01*
X43182Y378965D01*
X44955Y377192D01*
X47125Y375939D01*
X49547Y375290D01*
X52053D01*
X54475Y375939D01*
X56645Y377192D01*
X58418Y378965D01*
X59671Y381135D01*
X59962Y382220D01*
X144780D01*
X145771Y382417D01*
X146611Y382979D01*
X162500Y398868D01*
X162827Y398780D01*
X164833D01*
X166771Y399299D01*
X168509Y400303D01*
X169928Y401721D01*
X170931Y403459D01*
X171450Y405397D01*
Y407403D01*
X170931Y409341D01*
X169928Y411079D01*
X168509Y412497D01*
X166771Y413501D01*
X164833Y414020D01*
D02*
G37*
G36*
X26653Y318130D02*
X24147D01*
X21725Y317481D01*
X19555Y316228D01*
X17782Y314455D01*
X16529Y312285D01*
X15880Y309863D01*
Y307357D01*
X16529Y304935D01*
X17782Y302765D01*
X19555Y300992D01*
X21725Y299739D01*
X24147Y299090D01*
X26653D01*
X29075Y299739D01*
X31245Y300992D01*
X33018Y302765D01*
X34271Y304935D01*
X34920Y307357D01*
Y309863D01*
X34271Y312285D01*
X33018Y314455D01*
X31245Y316228D01*
X29075Y317481D01*
X26653Y318130D01*
D02*
G37*
G36*
X462970Y317293D02*
X453970D01*
X451719Y316845D01*
X449810Y315570D01*
X448535Y313661D01*
X448087Y311410D01*
Y280410D01*
X448535Y278159D01*
X449810Y276250D01*
X451719Y274975D01*
X453970Y274527D01*
X462970D01*
X465221Y274975D01*
X467130Y276250D01*
X468405Y278159D01*
X468853Y280410D01*
Y311410D01*
X468405Y313661D01*
X467130Y315570D01*
X465221Y316845D01*
X462970Y317293D01*
D02*
G37*
G36*
X262500Y259960D02*
X242960D01*
Y240420D01*
X262500D01*
Y259960D01*
D02*
G37*
G36*
X213093Y393700D02*
X211087D01*
X209149Y393181D01*
X207411Y392178D01*
X205993Y390759D01*
X204989Y389021D01*
X204470Y387083D01*
Y385077D01*
X204989Y383139D01*
X205993Y381401D01*
X207411Y379982D01*
X209149Y378979D01*
X211087Y378460D01*
X213093D01*
X215031Y378979D01*
X215346Y379161D01*
X293320Y301187D01*
Y258690D01*
X286140D01*
Y239150D01*
X305680D01*
Y258690D01*
X298500D01*
Y302260D01*
X298303Y303251D01*
X297741Y304091D01*
X219009Y382824D01*
X219191Y383139D01*
X219710Y385077D01*
Y387083D01*
X219191Y389021D01*
X218188Y390759D01*
X216769Y392178D01*
X215031Y393181D01*
X213093Y393700D01*
D02*
G37*
G36*
X47072Y240140D02*
X44368D01*
X41756Y239440D01*
X39414Y238088D01*
X37502Y236176D01*
X36150Y233834D01*
X35450Y231222D01*
Y228518D01*
X36150Y225906D01*
X37502Y223564D01*
X39414Y221652D01*
X41756Y220300D01*
X44368Y219600D01*
X47072D01*
X49684Y220300D01*
X52026Y221652D01*
X53938Y223564D01*
X55290Y225906D01*
X55990Y228518D01*
Y231222D01*
X55290Y233834D01*
X53938Y236176D01*
X52026Y238088D01*
X49684Y239440D01*
X47072Y240140D01*
D02*
G37*
G36*
X334290Y236560D02*
X331190D01*
X328197Y235758D01*
X325513Y234208D01*
X323322Y232017D01*
X321772Y229333D01*
X320970Y226340D01*
Y223240D01*
X321772Y220247D01*
X323322Y217563D01*
X325513Y215372D01*
X328197Y213822D01*
X331190Y213020D01*
X334290D01*
X337283Y213822D01*
X339967Y215372D01*
X342158Y217563D01*
X343708Y220247D01*
X344510Y223240D01*
Y226340D01*
X343708Y229333D01*
X342158Y232017D01*
X339967Y234208D01*
X337283Y235758D01*
X334290Y236560D01*
D02*
G37*
G36*
X512090Y160360D02*
X508990D01*
X505997Y159558D01*
X503313Y158008D01*
X501122Y155817D01*
X499572Y153133D01*
X498770Y150140D01*
Y147040D01*
X499572Y144047D01*
X501122Y141363D01*
X503313Y139172D01*
X505997Y137622D01*
X508990Y136820D01*
X512090D01*
X515083Y137622D01*
X517767Y139172D01*
X519958Y141363D01*
X521508Y144047D01*
X522310Y147040D01*
Y150140D01*
X521508Y153133D01*
X519958Y155817D01*
X517767Y158008D01*
X515083Y159558D01*
X512090Y160360D01*
D02*
G37*
G36*
X435890D02*
X432790D01*
X429797Y159558D01*
X427113Y158008D01*
X424922Y155817D01*
X423372Y153133D01*
X422570Y150140D01*
Y147040D01*
X423372Y144047D01*
X424922Y141363D01*
X427113Y139172D01*
X429797Y137622D01*
X432790Y136820D01*
X435890D01*
X438883Y137622D01*
X441567Y139172D01*
X443758Y141363D01*
X445308Y144047D01*
X446110Y147040D01*
Y150140D01*
X445308Y153133D01*
X443758Y155817D01*
X441567Y158008D01*
X438883Y159558D01*
X435890Y160360D01*
D02*
G37*
G36*
X48342Y156320D02*
X45638D01*
X43026Y155620D01*
X40684Y154268D01*
X38772Y152356D01*
X37420Y150014D01*
X36720Y147402D01*
Y144698D01*
X37420Y142086D01*
X38772Y139744D01*
X40684Y137832D01*
X43026Y136480D01*
X45638Y135780D01*
X48342D01*
X50954Y136480D01*
X53296Y137832D01*
X55208Y139744D01*
X56560Y142086D01*
X57260Y144698D01*
Y147402D01*
X56560Y150014D01*
X55208Y152356D01*
X53296Y154268D01*
X50954Y155620D01*
X48342Y156320D01*
D02*
G37*
G36*
X562692Y152510D02*
X559988D01*
X557376Y151810D01*
X555034Y150458D01*
X553122Y148546D01*
X551770Y146204D01*
X551070Y143592D01*
Y140888D01*
X551770Y138276D01*
X553122Y135934D01*
X555034Y134022D01*
X557376Y132670D01*
X559988Y131970D01*
X562692D01*
X565304Y132670D01*
X567646Y134022D01*
X569558Y135934D01*
X570910Y138276D01*
X571610Y140888D01*
Y143592D01*
X570910Y146204D01*
X569558Y148546D01*
X567646Y150458D01*
X565304Y151810D01*
X562692Y152510D01*
D02*
G37*
G36*
X571610Y127110D02*
X551070D01*
Y106570D01*
X571610D01*
Y127110D01*
D02*
G37*
G36*
X331750Y109560D02*
X328650D01*
X325657Y108758D01*
X322973Y107208D01*
X320782Y105017D01*
X319232Y102333D01*
X318430Y99340D01*
Y96240D01*
X319232Y93247D01*
X320782Y90563D01*
X322973Y88372D01*
X325657Y86822D01*
X328650Y86020D01*
X331750D01*
X334743Y86822D01*
X337427Y88372D01*
X339618Y90563D01*
X341168Y93247D01*
X341970Y96240D01*
Y99340D01*
X341168Y102333D01*
X339618Y105017D01*
X337427Y107208D01*
X334743Y108758D01*
X331750Y109560D01*
D02*
G37*
G36*
X47072Y72500D02*
X44368D01*
X41756Y71800D01*
X39414Y70448D01*
X37502Y68536D01*
X36150Y66194D01*
X35450Y63582D01*
Y60878D01*
X36150Y58266D01*
X37502Y55924D01*
X39414Y54012D01*
X41756Y52660D01*
X44368Y51960D01*
X47072D01*
X49684Y52660D01*
X52026Y54012D01*
X53938Y55924D01*
X55290Y58266D01*
X55990Y60878D01*
Y63582D01*
X55290Y66194D01*
X53938Y68536D01*
X52026Y70448D01*
X49684Y71800D01*
X47072Y72500D01*
D02*
G37*
G36*
X562692Y69960D02*
X559988D01*
X557376Y69260D01*
X555034Y67908D01*
X553122Y65996D01*
X551770Y63654D01*
X551070Y61042D01*
Y58338D01*
X551770Y55726D01*
X553122Y53384D01*
X555034Y51472D01*
X557376Y50120D01*
X559988Y49420D01*
X562692D01*
X565304Y50120D01*
X567646Y51472D01*
X569558Y53384D01*
X570910Y55726D01*
X571610Y58338D01*
Y61042D01*
X570910Y63654D01*
X569558Y65996D01*
X567646Y67908D01*
X565304Y69260D01*
X562692Y69960D01*
D02*
G37*
G36*
X571610Y44560D02*
X551070D01*
Y24020D01*
X571610D01*
Y44560D01*
D02*
G37*
G36*
X509550Y33360D02*
X506450D01*
X503457Y32558D01*
X500773Y31008D01*
X498582Y28817D01*
X497032Y26133D01*
X496230Y23140D01*
Y20040D01*
X497032Y17047D01*
X498582Y14363D01*
X500773Y12172D01*
X503457Y10622D01*
X506450Y9820D01*
X509550D01*
X512543Y10622D01*
X515227Y12172D01*
X517418Y14363D01*
X518968Y17047D01*
X519770Y20040D01*
Y23140D01*
X518968Y26133D01*
X517418Y28817D01*
X515227Y31008D01*
X512543Y32558D01*
X509550Y33360D01*
D02*
G37*
G36*
X433350D02*
X430250D01*
X427257Y32558D01*
X424573Y31008D01*
X422382Y28817D01*
X420832Y26133D01*
X420030Y23140D01*
Y20040D01*
X420832Y17047D01*
X422382Y14363D01*
X424573Y12172D01*
X427257Y10622D01*
X430250Y9820D01*
X433350D01*
X436343Y10622D01*
X439027Y12172D01*
X441218Y14363D01*
X442768Y17047D01*
X443570Y20040D01*
Y23140D01*
X442768Y26133D01*
X441218Y28817D01*
X439027Y31008D01*
X436343Y32558D01*
X433350Y33360D01*
D02*
G37*
%LPD*%
D11*
X52345Y308610D02*
X59605Y315870D01*
X135890D01*
X50800Y308610D02*
X52345D01*
X140370Y320350D02*
X154902D01*
X135890Y315870D02*
X140370Y320350D01*
X159312Y324760D02*
X168910D01*
X154902Y320350D02*
X159312Y324760D01*
X37201Y332350D02*
Y345069D01*
X25400Y356870D02*
X37201Y345069D01*
X25400Y356870D02*
Y359410D01*
X44450Y346710D02*
X165460D01*
X37201Y353959D02*
Y373009D01*
Y353959D02*
X44450Y346710D01*
X165460D02*
X168910Y343260D01*
X25400Y384810D02*
X37201Y373009D01*
X108590Y323220D02*
X120650Y335280D01*
X37201Y332350D02*
X46331Y323220D01*
X108590D01*
X153253Y328603D02*
X167910Y343260D01*
X153253Y327243D02*
Y328603D01*
X152400Y326390D02*
X153253Y327243D01*
X134980Y335280D02*
X135890Y334370D01*
X120650Y335280D02*
X134980D01*
X212090Y386080D02*
X295910Y302260D01*
Y248920D02*
Y302260D01*
X144780Y384810D02*
X163830Y403860D01*
Y406400D01*
X50800Y384810D02*
X144780D01*
X143510Y359410D02*
X151130Y367030D01*
X50800Y359410D02*
X143510D01*
D20*
X168910Y343260D02*
D03*
Y324760D02*
D03*
X135890Y334370D02*
D03*
Y315870D02*
D03*
D62*
X139700Y407670D02*
X162560Y430530D01*
X24130Y407670D02*
X139700D01*
X162560Y430530D02*
X316230D01*
X23200Y336210D02*
X25400Y334010D01*
X8890Y342019D02*
Y392430D01*
X14698Y336210D02*
X23200D01*
X8890Y342019D02*
X14698Y336210D01*
X8890Y392430D02*
X24130Y407670D01*
D63*
X561340Y142240D02*
D03*
X45720Y229870D02*
D03*
X561340Y59690D02*
D03*
X46990Y146050D02*
D03*
X45720Y62230D02*
D03*
D64*
X561340Y116840D02*
D03*
X45720Y204470D02*
D03*
X561340Y34290D02*
D03*
X46990Y120650D02*
D03*
X45720Y36830D02*
D03*
D65*
X330200Y21590D02*
D03*
X431800D02*
D03*
X508000D02*
D03*
X330200Y97790D02*
D03*
X332740Y148590D02*
D03*
X434340D02*
D03*
X510540D02*
D03*
X332740Y224790D02*
D03*
D66*
X455930Y425450D02*
D03*
X430530D02*
D03*
X481330D02*
D03*
D67*
X488470Y343910D02*
D03*
D68*
X516470Y295910D02*
D03*
X458470D02*
D03*
D69*
X554990Y457200D02*
D03*
X41910Y453390D02*
D03*
D70*
X25400Y334010D02*
D03*
X50800D02*
D03*
X25400Y308610D02*
D03*
X50800Y359410D02*
D03*
Y384810D02*
D03*
X25400Y359410D02*
D03*
Y384810D02*
D03*
D71*
X50800Y308610D02*
D03*
D72*
X252730Y250190D02*
D03*
X295910Y248920D02*
D03*
D73*
X252730Y173990D02*
D03*
X295910Y172720D02*
D03*
D74*
X316230Y430530D02*
D03*
X175260Y447040D02*
D03*
X87630Y279400D02*
D03*
X224790Y148590D02*
D03*
X212090Y386080D02*
D03*
X163830Y406400D02*
D03*
X151130Y367030D02*
D03*
D75*
X152400Y326390D02*
D03*
X120650Y335280D02*
D03*
X554990Y484700D02*
D03*
X574990Y477200D02*
D03*
X582490Y457200D02*
D03*
X574990Y437200D02*
D03*
X554990Y429700D02*
D03*
X534990Y437200D02*
D03*
X527490Y457200D02*
D03*
X534990Y477200D02*
D03*
X41910Y480890D02*
D03*
X61910Y473390D02*
D03*
X69410Y453390D02*
D03*
X61910Y433390D02*
D03*
X41910Y425890D02*
D03*
X21910Y433390D02*
D03*
X14410Y453390D02*
D03*
X21910Y473390D02*
D03*
M02*
