G04*
G04 #@! TF.GenerationSoftware,Altium Limited,Altium Designer,24.3.1 (35)*
G04*
G04 Layer_Color=16711935*
%FSLAX44Y44*%
%MOMM*%
G71*
G04*
G04 #@! TF.SameCoordinates,20FE00C5-B78C-4F66-917A-800DED35DAD6*
G04*
G04*
G04 #@! TF.FilePolarity,Negative*
G04*
G01*
G75*
%ADD36R,1.5532X1.3532*%
%ADD49C,2.0032*%
%ADD50R,2.0032X2.0032*%
%ADD51C,2.3032*%
%ADD52C,1.7032*%
G04:AMPARAMS|DCode=53|XSize=4.2032mm|YSize=2.0032mm|CornerRadius=0.5516mm|HoleSize=0mm|Usage=FLASHONLY|Rotation=0.000|XOffset=0mm|YOffset=0mm|HoleType=Round|Shape=RoundedRectangle|*
%AMROUNDEDRECTD53*
21,1,4.2032,0.9000,0,0,0.0*
21,1,3.1000,2.0032,0,0,0.0*
1,1,1.1032,1.5500,-0.4500*
1,1,1.1032,-1.5500,-0.4500*
1,1,1.1032,-1.5500,0.4500*
1,1,1.1032,1.5500,0.4500*
%
%ADD53ROUNDEDRECTD53*%
G04:AMPARAMS|DCode=54|XSize=4.2032mm|YSize=2.0032mm|CornerRadius=0.5516mm|HoleSize=0mm|Usage=FLASHONLY|Rotation=270.000|XOffset=0mm|YOffset=0mm|HoleType=Round|Shape=RoundedRectangle|*
%AMROUNDEDRECTD54*
21,1,4.2032,0.9000,0,0,270.0*
21,1,3.1000,2.0032,0,0,270.0*
1,1,1.1032,-0.4500,-1.5500*
1,1,1.1032,-0.4500,1.5500*
1,1,1.1032,0.4500,1.5500*
1,1,1.1032,0.4500,-1.5500*
%
%ADD54ROUNDEDRECTD54*%
%ADD55C,7.2032*%
%ADD56C,1.8532*%
G04:AMPARAMS|DCode=57|XSize=1.8532mm|YSize=1.8532mm|CornerRadius=0.5141mm|HoleSize=0mm|Usage=FLASHONLY|Rotation=90.000|XOffset=0mm|YOffset=0mm|HoleType=Round|Shape=RoundedRectangle|*
%AMROUNDEDRECTD57*
21,1,1.8532,0.8250,0,0,90.0*
21,1,0.8250,1.8532,0,0,90.0*
1,1,1.0282,0.4125,0.4125*
1,1,1.0282,0.4125,-0.4125*
1,1,1.0282,-0.4125,-0.4125*
1,1,1.0282,-0.4125,0.4125*
%
%ADD57ROUNDEDRECTD57*%
%ADD58R,1.9032X1.9032*%
%ADD59C,1.9032*%
%ADD60C,1.4732*%
%ADD61C,0.9032*%
D36*
X168910Y343260D02*
D03*
Y324760D02*
D03*
X135890Y334370D02*
D03*
Y315870D02*
D03*
D49*
X561340Y142240D02*
D03*
X45720Y229870D02*
D03*
X561340Y59690D02*
D03*
X46990Y146050D02*
D03*
X45720Y62230D02*
D03*
D50*
X561340Y116840D02*
D03*
X45720Y204470D02*
D03*
X561340Y34290D02*
D03*
X46990Y120650D02*
D03*
X45720Y36830D02*
D03*
D51*
X330200Y21590D02*
D03*
X431800D02*
D03*
X508000D02*
D03*
X330200Y97790D02*
D03*
X332740Y148590D02*
D03*
X434340D02*
D03*
X510540D02*
D03*
X332740Y224790D02*
D03*
D52*
X455930Y425450D02*
D03*
X430530D02*
D03*
X481330D02*
D03*
D53*
X488470Y343910D02*
D03*
D54*
X516470Y295910D02*
D03*
X458470D02*
D03*
D55*
X554990Y457200D02*
D03*
X41910Y453390D02*
D03*
D56*
X25400Y334010D02*
D03*
X50800D02*
D03*
X25400Y308610D02*
D03*
X50800Y359410D02*
D03*
Y384810D02*
D03*
X25400Y359410D02*
D03*
Y384810D02*
D03*
D57*
X50800Y308610D02*
D03*
D58*
X252730Y250190D02*
D03*
X295910Y248920D02*
D03*
D59*
X252730Y173990D02*
D03*
X295910Y172720D02*
D03*
D60*
X316230Y430530D02*
D03*
X175260Y447040D02*
D03*
X87630Y279400D02*
D03*
X224790Y148590D02*
D03*
X212090Y386080D02*
D03*
X163830Y406400D02*
D03*
X151130Y367030D02*
D03*
D61*
X152400Y326390D02*
D03*
X120650Y335280D02*
D03*
X554990Y484700D02*
D03*
X574990Y477200D02*
D03*
X582490Y457200D02*
D03*
X574990Y437200D02*
D03*
X554990Y429700D02*
D03*
X534990Y437200D02*
D03*
X527490Y457200D02*
D03*
X534990Y477200D02*
D03*
X41910Y480890D02*
D03*
X61910Y473390D02*
D03*
X69410Y453390D02*
D03*
X61910Y433390D02*
D03*
X41910Y425890D02*
D03*
X21910Y433390D02*
D03*
X14410Y453390D02*
D03*
X21910Y473390D02*
D03*
M02*
