G04*
G04 #@! TF.GenerationSoftware,Altium Limited,Altium Designer,24.3.1 (35)*
G04*
G04 Layer_Color=32896*
%FSLAX44Y44*%
%MOMM*%
G71*
G04*
G04 #@! TF.SameCoordinates,B0F86944-5670-4C0A-BAA4-8CAD2A71EC5D*
G04*
G04*
G04 #@! TF.FilePolarity,Positive*
G04*
G01*
G75*
G36*
X143333Y95197D02*
X146575D01*
Y95112D01*
X147344D01*
Y95027D01*
X148112D01*
Y94941D01*
X147344D01*
Y94856D01*
X145637D01*
Y94770D01*
X143930D01*
Y94685D01*
X142223D01*
Y94600D01*
X140687D01*
Y94515D01*
X139322D01*
Y94429D01*
X138041D01*
Y94344D01*
X136847D01*
Y94258D01*
X135823D01*
Y94173D01*
X134798D01*
Y94088D01*
X133860D01*
Y94003D01*
X132921D01*
Y93917D01*
X132068D01*
Y93832D01*
X131214D01*
Y93746D01*
X130446D01*
Y93661D01*
X129678D01*
Y93576D01*
X128995D01*
Y93490D01*
X128227D01*
Y93405D01*
X127545D01*
Y93320D01*
X126862D01*
Y93234D01*
X126179D01*
Y93149D01*
X125582D01*
Y93064D01*
X124984D01*
Y92978D01*
X124302D01*
Y92893D01*
X123790D01*
Y92808D01*
X123192D01*
Y92722D01*
X122595D01*
Y92637D01*
X122083D01*
Y92552D01*
X121485D01*
Y92466D01*
X120973D01*
Y92381D01*
X120461D01*
Y92296D01*
X119949D01*
Y92210D01*
X119437D01*
Y92125D01*
X118925D01*
Y92040D01*
X118413D01*
Y91954D01*
X117901D01*
Y91869D01*
X117474D01*
Y91784D01*
X116962D01*
Y91698D01*
X116536D01*
Y91613D01*
X116109D01*
Y91528D01*
X115597D01*
Y91442D01*
X115170D01*
Y91357D01*
X114743D01*
Y91272D01*
X114317D01*
Y91186D01*
X113890D01*
Y91101D01*
X113463D01*
Y91016D01*
X113037D01*
Y90930D01*
X112695D01*
Y90845D01*
X112269D01*
Y90759D01*
X111842D01*
Y90674D01*
X111415D01*
Y90589D01*
X111074D01*
Y90504D01*
X110647D01*
Y90418D01*
X110306D01*
Y90333D01*
X109879D01*
Y90247D01*
X109538D01*
Y90162D01*
X109196D01*
Y90077D01*
X108770D01*
Y89992D01*
X108428D01*
Y89906D01*
X108087D01*
Y89821D01*
X107746D01*
Y89735D01*
X107404D01*
Y89650D01*
X106978D01*
Y89565D01*
X106636D01*
Y89479D01*
X106295D01*
Y89394D01*
X105954D01*
Y89309D01*
X105612D01*
Y89223D01*
X105356D01*
Y89138D01*
X105015D01*
Y89053D01*
X104673D01*
Y88967D01*
X104332D01*
Y88882D01*
X103991D01*
Y88797D01*
X103649D01*
Y88711D01*
X103393D01*
Y88626D01*
X103052D01*
Y88541D01*
X102711D01*
Y88455D01*
X102455D01*
Y88370D01*
X102113D01*
Y88285D01*
X101772D01*
Y88199D01*
X101516D01*
Y88114D01*
X101174D01*
Y88029D01*
X100918D01*
Y87943D01*
X100577D01*
Y87858D01*
X100321D01*
Y87773D01*
X99980D01*
Y87687D01*
X99724D01*
Y87602D01*
X99468D01*
Y87517D01*
X99126D01*
Y87431D01*
X98870D01*
Y87346D01*
X98614D01*
Y87261D01*
X98273D01*
Y87175D01*
X98017D01*
Y87090D01*
X97761D01*
Y87005D01*
X97505D01*
Y86919D01*
X97163D01*
Y86834D01*
X96907D01*
Y86749D01*
X96651D01*
Y86663D01*
X96395D01*
Y86578D01*
X96139D01*
Y86493D01*
X95883D01*
Y86407D01*
X95627D01*
Y86322D01*
X95371D01*
Y86236D01*
X95115D01*
Y86151D01*
X94859D01*
Y86066D01*
X94603D01*
Y85980D01*
X94347D01*
Y85895D01*
X94091D01*
Y85810D01*
X93835D01*
Y85724D01*
X93579D01*
Y85639D01*
X93323D01*
Y85554D01*
X93067D01*
Y85468D01*
X92811D01*
Y85383D01*
X92555D01*
Y85298D01*
X92384D01*
Y85212D01*
X92128D01*
Y85127D01*
X91872D01*
Y85042D01*
X91616D01*
Y84956D01*
X91360D01*
Y84871D01*
X91190D01*
Y84786D01*
X90934D01*
Y84700D01*
X90677D01*
Y84615D01*
X90421D01*
Y84530D01*
X90251D01*
Y84444D01*
X89995D01*
Y84359D01*
X89739D01*
Y84274D01*
X89568D01*
Y84188D01*
X89312D01*
Y84103D01*
X89056D01*
Y84018D01*
X88885D01*
Y83932D01*
X88629D01*
Y83847D01*
X88459D01*
Y83762D01*
X88203D01*
Y83676D01*
X87947D01*
Y83591D01*
X87776D01*
Y83506D01*
X87520D01*
Y83420D01*
X87349D01*
Y83335D01*
X87093D01*
Y83250D01*
X86923D01*
Y83164D01*
X86667D01*
Y83079D01*
X86496D01*
Y82993D01*
X86240D01*
Y82908D01*
X86069D01*
Y82823D01*
X85813D01*
Y82738D01*
X85557D01*
Y82652D01*
X85386D01*
Y82567D01*
X85216D01*
Y82652D01*
X85130D01*
Y82738D01*
X85045D01*
Y82823D01*
X85130D01*
Y82908D01*
X85301D01*
Y82993D01*
X85472D01*
Y83079D01*
X85642D01*
Y83164D01*
X85813D01*
Y83250D01*
X85984D01*
Y83335D01*
X86154D01*
Y83420D01*
X86325D01*
Y83506D01*
X86496D01*
Y83591D01*
X86667D01*
Y83676D01*
X86837D01*
Y83762D01*
X87008D01*
Y83847D01*
X87179D01*
Y83932D01*
X87349D01*
Y84018D01*
X87520D01*
Y84103D01*
X87691D01*
Y84188D01*
X87861D01*
Y84274D01*
X88032D01*
Y84359D01*
X88203D01*
Y84444D01*
X88373D01*
Y84530D01*
X88544D01*
Y84615D01*
X88715D01*
Y84700D01*
X88971D01*
Y84786D01*
X89141D01*
Y84871D01*
X89312D01*
Y84956D01*
X89483D01*
Y85042D01*
X89739D01*
Y85127D01*
X89909D01*
Y85212D01*
X90080D01*
Y85298D01*
X90251D01*
Y85383D01*
X90507D01*
Y85468D01*
X90677D01*
Y85554D01*
X90848D01*
Y85639D01*
X91104D01*
Y85724D01*
X91275D01*
Y85810D01*
X91446D01*
Y85895D01*
X91702D01*
Y85980D01*
X91872D01*
Y86066D01*
X92128D01*
Y86151D01*
X92299D01*
Y86236D01*
X92555D01*
Y86322D01*
X92726D01*
Y86407D01*
X92982D01*
Y86493D01*
X93152D01*
Y86578D01*
X93408D01*
Y86663D01*
X93579D01*
Y86749D01*
X93835D01*
Y86834D01*
X94006D01*
Y86919D01*
X94262D01*
Y87005D01*
X94518D01*
Y87090D01*
X94689D01*
Y87175D01*
X94945D01*
Y87261D01*
X95115D01*
Y87346D01*
X95371D01*
Y87431D01*
X95627D01*
Y87517D01*
X95883D01*
Y87602D01*
X96054D01*
Y87687D01*
X96310D01*
Y87773D01*
X96566D01*
Y87858D01*
X96822D01*
Y87943D01*
X96993D01*
Y88029D01*
X97249D01*
Y88114D01*
X97505D01*
Y88199D01*
X97761D01*
Y88285D01*
X98017D01*
Y88370D01*
X98273D01*
Y88455D01*
X98529D01*
Y88541D01*
X98785D01*
Y88626D01*
X99041D01*
Y88711D01*
X99297D01*
Y88797D01*
X99553D01*
Y88882D01*
X99809D01*
Y88967D01*
X100065D01*
Y89053D01*
X100321D01*
Y89138D01*
X100577D01*
Y89223D01*
X100833D01*
Y89309D01*
X101089D01*
Y89394D01*
X101345D01*
Y89479D01*
X101686D01*
Y89565D01*
X101943D01*
Y89650D01*
X102198D01*
Y89735D01*
X102455D01*
Y89821D01*
X102796D01*
Y89906D01*
X103052D01*
Y89992D01*
X103308D01*
Y90077D01*
X103649D01*
Y90162D01*
X103905D01*
Y90247D01*
X104247D01*
Y90333D01*
X104503D01*
Y90418D01*
X104844D01*
Y90504D01*
X105100D01*
Y90589D01*
X105441D01*
Y90674D01*
X105783D01*
Y90759D01*
X106039D01*
Y90845D01*
X106380D01*
Y90930D01*
X106721D01*
Y91016D01*
X106978D01*
Y91101D01*
X107319D01*
Y91186D01*
X107660D01*
Y91272D01*
X108002D01*
Y91357D01*
X108343D01*
Y91442D01*
X108684D01*
Y91528D01*
X109026D01*
Y91613D01*
X109367D01*
Y91698D01*
X109794D01*
Y91784D01*
X110135D01*
Y91869D01*
X110477D01*
Y91954D01*
X110818D01*
Y92040D01*
X111245D01*
Y92125D01*
X111586D01*
Y92210D01*
X112013D01*
Y92296D01*
X112439D01*
Y92381D01*
X112781D01*
Y92466D01*
X113207D01*
Y92552D01*
X113634D01*
Y92637D01*
X114061D01*
Y92722D01*
X114487D01*
Y92808D01*
X114914D01*
Y92893D01*
X115341D01*
Y92978D01*
X115853D01*
Y93064D01*
X116280D01*
Y93149D01*
X116792D01*
Y93234D01*
X117218D01*
Y93320D01*
X117730D01*
Y93405D01*
X118243D01*
Y93490D01*
X118755D01*
Y93576D01*
X119267D01*
Y93661D01*
X119864D01*
Y93746D01*
X120376D01*
Y93832D01*
X120973D01*
Y93917D01*
X121571D01*
Y94003D01*
X122168D01*
Y94088D01*
X122851D01*
Y94173D01*
X123534D01*
Y94258D01*
X124216D01*
Y94344D01*
X124984D01*
Y94429D01*
X125752D01*
Y94515D01*
X126521D01*
Y94600D01*
X127374D01*
Y94685D01*
X128313D01*
Y94770D01*
X129337D01*
Y94856D01*
X130361D01*
Y94941D01*
X131641D01*
Y95027D01*
X133006D01*
Y95112D01*
X134713D01*
Y95197D01*
X137103D01*
Y95283D01*
X143333D01*
Y95197D01*
D02*
G37*
G36*
X297799Y77702D02*
X298140D01*
Y77617D01*
X298396D01*
Y77532D01*
X298567D01*
Y77446D01*
X298738D01*
Y77361D01*
X298908D01*
Y77276D01*
X299079D01*
Y77190D01*
X299164D01*
Y77105D01*
X299335D01*
Y77020D01*
X299420D01*
Y76934D01*
X299506D01*
Y76849D01*
X299591D01*
Y76764D01*
X299676D01*
Y76678D01*
X299762D01*
Y76593D01*
X299847D01*
Y76508D01*
X299932D01*
Y76422D01*
X300018D01*
Y76252D01*
X300103D01*
Y76166D01*
X300188D01*
Y76081D01*
X300274D01*
Y75910D01*
X300359D01*
Y75740D01*
X300444D01*
Y75569D01*
X300530D01*
Y75313D01*
X300615D01*
Y74972D01*
X300700D01*
Y74460D01*
X300786D01*
Y70448D01*
X300700D01*
Y70363D01*
X298311D01*
Y73094D01*
X298225D01*
Y73521D01*
X298140D01*
Y73777D01*
X298055D01*
Y73948D01*
X297969D01*
Y74118D01*
X297884D01*
Y74289D01*
X297799D01*
Y74374D01*
X297713D01*
Y74460D01*
X297628D01*
Y74630D01*
X297543D01*
Y74715D01*
X297372D01*
Y74801D01*
X297287D01*
Y74886D01*
X297201D01*
Y74972D01*
X297031D01*
Y75057D01*
X296860D01*
Y75142D01*
X296689D01*
Y75228D01*
X296348D01*
Y75313D01*
X295324D01*
Y75228D01*
X295068D01*
Y75142D01*
X294812D01*
Y75057D01*
X294641D01*
Y74972D01*
X294556D01*
Y74886D01*
X294385D01*
Y74801D01*
X294300D01*
Y74715D01*
X294129D01*
Y74630D01*
X294044D01*
Y74460D01*
X293958D01*
Y74374D01*
X293873D01*
Y74289D01*
X293788D01*
Y74118D01*
X293702D01*
Y73948D01*
X293617D01*
Y73777D01*
X293532D01*
Y73606D01*
X293446D01*
Y73179D01*
X293361D01*
Y52868D01*
X293446D01*
Y52442D01*
X293532D01*
Y52271D01*
X293617D01*
Y52100D01*
X293702D01*
Y51930D01*
X293788D01*
Y51759D01*
X293873D01*
Y51674D01*
X293958D01*
Y51588D01*
X294044D01*
Y51418D01*
X294129D01*
Y51332D01*
X294300D01*
Y51247D01*
X294385D01*
Y51162D01*
X294556D01*
Y51076D01*
X294641D01*
Y50991D01*
X294812D01*
Y50906D01*
X295068D01*
Y50820D01*
X295324D01*
Y50735D01*
X296348D01*
Y50820D01*
X296689D01*
Y50906D01*
X296860D01*
Y50991D01*
X297031D01*
Y51076D01*
X297201D01*
Y51162D01*
X297287D01*
Y51247D01*
X297372D01*
Y51332D01*
X297543D01*
Y51418D01*
X297628D01*
Y51588D01*
X297713D01*
Y51674D01*
X297799D01*
Y51759D01*
X297884D01*
Y51930D01*
X297969D01*
Y52100D01*
X298055D01*
Y52271D01*
X298140D01*
Y52527D01*
X298225D01*
Y52954D01*
X298311D01*
Y60549D01*
X295836D01*
Y63024D01*
X300786D01*
Y51503D01*
X300700D01*
Y50991D01*
X300615D01*
Y50735D01*
X300530D01*
Y50479D01*
X300444D01*
Y50308D01*
X300359D01*
Y50138D01*
X300274D01*
Y49967D01*
X300188D01*
Y49882D01*
X300103D01*
Y49796D01*
X300018D01*
Y49626D01*
X299932D01*
Y49540D01*
X299847D01*
Y49455D01*
X299762D01*
Y49369D01*
X299676D01*
Y49284D01*
X299591D01*
Y49199D01*
X299506D01*
Y49113D01*
X299420D01*
Y49028D01*
X299335D01*
Y48943D01*
X299164D01*
Y48857D01*
X299079D01*
Y48772D01*
X298908D01*
Y48687D01*
X298738D01*
Y48601D01*
X298567D01*
Y48516D01*
X298396D01*
Y48431D01*
X298140D01*
Y48345D01*
X297799D01*
Y48260D01*
X293958D01*
Y48345D01*
X293532D01*
Y48431D01*
X293276D01*
Y48516D01*
X293105D01*
Y48601D01*
X292934D01*
Y48687D01*
X292764D01*
Y48772D01*
X292678D01*
Y48857D01*
X292508D01*
Y48943D01*
X292422D01*
Y49028D01*
X292337D01*
Y49113D01*
X292166D01*
Y49199D01*
X292081D01*
Y49284D01*
X291996D01*
Y49369D01*
X291910D01*
Y49455D01*
X291825D01*
Y49626D01*
X291740D01*
Y49711D01*
X291654D01*
Y49796D01*
X291569D01*
Y49882D01*
X291483D01*
Y50052D01*
X291398D01*
Y50223D01*
X291313D01*
Y50308D01*
X291227D01*
Y50564D01*
X291142D01*
Y50735D01*
X291057D01*
Y50991D01*
X290972D01*
Y51503D01*
X290886D01*
Y74545D01*
X290972D01*
Y74972D01*
X291057D01*
Y75313D01*
X291142D01*
Y75484D01*
X291227D01*
Y75740D01*
X291313D01*
Y75825D01*
X291398D01*
Y75996D01*
X291483D01*
Y76166D01*
X291569D01*
Y76252D01*
X291654D01*
Y76337D01*
X291740D01*
Y76422D01*
X291825D01*
Y76593D01*
X291910D01*
Y76678D01*
X291996D01*
Y76764D01*
X292081D01*
Y76849D01*
X292166D01*
Y76934D01*
X292337D01*
Y77020D01*
X292422D01*
Y77105D01*
X292508D01*
Y77190D01*
X292678D01*
Y77276D01*
X292764D01*
Y77361D01*
X292934D01*
Y77446D01*
X293105D01*
Y77532D01*
X293276D01*
Y77617D01*
X293532D01*
Y77702D01*
X293958D01*
Y77788D01*
X297799D01*
Y77702D01*
D02*
G37*
G36*
X258969D02*
X259310D01*
Y77617D01*
X259566D01*
Y77532D01*
X259737D01*
Y77446D01*
X259908D01*
Y77361D01*
X260078D01*
Y77276D01*
X260249D01*
Y77190D01*
X260334D01*
Y77105D01*
X260505D01*
Y77020D01*
X260590D01*
Y76934D01*
X260676D01*
Y76849D01*
X260761D01*
Y76764D01*
X260846D01*
Y76678D01*
X260932D01*
Y76593D01*
X261017D01*
Y76508D01*
X261102D01*
Y76422D01*
X261188D01*
Y76252D01*
X261273D01*
Y76166D01*
X261358D01*
Y76081D01*
X261444D01*
Y75910D01*
X261529D01*
Y75740D01*
X261614D01*
Y75569D01*
X261700D01*
Y75313D01*
X261785D01*
Y74972D01*
X261870D01*
Y74460D01*
X261956D01*
Y70448D01*
X261870D01*
Y70363D01*
X259481D01*
Y73094D01*
X259396D01*
Y73521D01*
X259310D01*
Y73777D01*
X259225D01*
Y73948D01*
X259139D01*
Y74118D01*
X259054D01*
Y74289D01*
X258969D01*
Y74374D01*
X258883D01*
Y74460D01*
X258798D01*
Y74630D01*
X258713D01*
Y74715D01*
X258542D01*
Y74801D01*
X258457D01*
Y74886D01*
X258371D01*
Y74972D01*
X258201D01*
Y75057D01*
X258030D01*
Y75142D01*
X257859D01*
Y75228D01*
X257518D01*
Y75313D01*
X256494D01*
Y75228D01*
X256238D01*
Y75142D01*
X255982D01*
Y75057D01*
X255811D01*
Y74972D01*
X255726D01*
Y74886D01*
X255555D01*
Y74801D01*
X255470D01*
Y74715D01*
X255299D01*
Y74630D01*
X255214D01*
Y74460D01*
X255128D01*
Y74374D01*
X255043D01*
Y74289D01*
X254958D01*
Y74118D01*
X254872D01*
Y73948D01*
X254787D01*
Y73777D01*
X254702D01*
Y73606D01*
X254617D01*
Y73179D01*
X254531D01*
Y52868D01*
X254617D01*
Y52442D01*
X254702D01*
Y52271D01*
X254787D01*
Y52100D01*
X254872D01*
Y51930D01*
X254958D01*
Y51759D01*
X255043D01*
Y51674D01*
X255128D01*
Y51588D01*
X255214D01*
Y51418D01*
X255299D01*
Y51332D01*
X255470D01*
Y51247D01*
X255555D01*
Y51162D01*
X255726D01*
Y51076D01*
X255811D01*
Y50991D01*
X255982D01*
Y50906D01*
X256238D01*
Y50820D01*
X256494D01*
Y50735D01*
X257518D01*
Y50820D01*
X257859D01*
Y50906D01*
X258030D01*
Y50991D01*
X258201D01*
Y51076D01*
X258371D01*
Y51162D01*
X258457D01*
Y51247D01*
X258542D01*
Y51332D01*
X258713D01*
Y51418D01*
X258798D01*
Y51588D01*
X258883D01*
Y51674D01*
X258969D01*
Y51759D01*
X259054D01*
Y51930D01*
X259139D01*
Y52100D01*
X259225D01*
Y52271D01*
X259310D01*
Y52527D01*
X259396D01*
Y52954D01*
X259481D01*
Y55685D01*
X261870D01*
Y55599D01*
X261956D01*
Y51503D01*
X261870D01*
Y50991D01*
X261785D01*
Y50735D01*
X261700D01*
Y50479D01*
X261614D01*
Y50308D01*
X261529D01*
Y50138D01*
X261444D01*
Y49967D01*
X261358D01*
Y49882D01*
X261273D01*
Y49796D01*
X261188D01*
Y49626D01*
X261102D01*
Y49540D01*
X261017D01*
Y49455D01*
X260932D01*
Y49369D01*
X260846D01*
Y49284D01*
X260761D01*
Y49199D01*
X260676D01*
Y49113D01*
X260590D01*
Y49028D01*
X260505D01*
Y48943D01*
X260334D01*
Y48857D01*
X260249D01*
Y48772D01*
X260078D01*
Y48687D01*
X259908D01*
Y48601D01*
X259737D01*
Y48516D01*
X259566D01*
Y48431D01*
X259310D01*
Y48345D01*
X258969D01*
Y48260D01*
X255128D01*
Y48345D01*
X254702D01*
Y48431D01*
X254446D01*
Y48516D01*
X254275D01*
Y48601D01*
X254104D01*
Y48687D01*
X253934D01*
Y48772D01*
X253848D01*
Y48857D01*
X253678D01*
Y48943D01*
X253592D01*
Y49028D01*
X253507D01*
Y49113D01*
X253336D01*
Y49199D01*
X253251D01*
Y49284D01*
X253166D01*
Y49369D01*
X253080D01*
Y49455D01*
X252995D01*
Y49626D01*
X252910D01*
Y49711D01*
X252824D01*
Y49796D01*
X252739D01*
Y49882D01*
X252654D01*
Y50052D01*
X252568D01*
Y50223D01*
X252483D01*
Y50308D01*
X252398D01*
Y50564D01*
X252312D01*
Y50735D01*
X252227D01*
Y50991D01*
X252142D01*
Y51503D01*
X252056D01*
Y67206D01*
Y67291D01*
Y74545D01*
X252142D01*
Y74972D01*
X252227D01*
Y75313D01*
X252312D01*
Y75484D01*
X252398D01*
Y75740D01*
X252483D01*
Y75825D01*
X252568D01*
Y75996D01*
X252654D01*
Y76166D01*
X252739D01*
Y76252D01*
X252824D01*
Y76337D01*
X252910D01*
Y76422D01*
X252995D01*
Y76593D01*
X253080D01*
Y76678D01*
X253166D01*
Y76764D01*
X253251D01*
Y76849D01*
X253336D01*
Y76934D01*
X253507D01*
Y77020D01*
X253592D01*
Y77105D01*
X253678D01*
Y77190D01*
X253848D01*
Y77276D01*
X253934D01*
Y77361D01*
X254104D01*
Y77446D01*
X254275D01*
Y77532D01*
X254446D01*
Y77617D01*
X254702D01*
Y77702D01*
X255128D01*
Y77788D01*
X258969D01*
Y77702D01*
D02*
G37*
G36*
X191465D02*
X191806D01*
Y77617D01*
X192062D01*
Y77532D01*
X192233D01*
Y77446D01*
X192403D01*
Y77361D01*
X192574D01*
Y77276D01*
X192745D01*
Y77190D01*
X192830D01*
Y77105D01*
X193001D01*
Y77020D01*
X193086D01*
Y76934D01*
X193171D01*
Y76849D01*
X193257D01*
Y76764D01*
X193342D01*
Y76678D01*
X193427D01*
Y76593D01*
X193513D01*
Y76508D01*
X193598D01*
Y76422D01*
X193683D01*
Y76252D01*
X193769D01*
Y76166D01*
X193854D01*
Y76081D01*
X193939D01*
Y75910D01*
X194025D01*
Y75740D01*
X194110D01*
Y75569D01*
X194195D01*
Y75313D01*
X194281D01*
Y74972D01*
X194366D01*
Y74460D01*
X194452D01*
Y70448D01*
X194366D01*
Y70363D01*
X191977D01*
Y73094D01*
X191891D01*
Y73521D01*
X191806D01*
Y73777D01*
X191721D01*
Y73948D01*
X191635D01*
Y74118D01*
X191550D01*
Y74289D01*
X191465D01*
Y74374D01*
X191379D01*
Y74460D01*
X191294D01*
Y74630D01*
X191208D01*
Y74715D01*
X191038D01*
Y74801D01*
X190952D01*
Y74886D01*
X190867D01*
Y74972D01*
X190697D01*
Y75057D01*
X190526D01*
Y75142D01*
X190355D01*
Y75228D01*
X190014D01*
Y75313D01*
X188990D01*
Y75228D01*
X188734D01*
Y75142D01*
X188478D01*
Y75057D01*
X188307D01*
Y74972D01*
X188222D01*
Y74886D01*
X188051D01*
Y74801D01*
X187966D01*
Y74715D01*
X187795D01*
Y74630D01*
X187710D01*
Y74460D01*
X187624D01*
Y74374D01*
X187539D01*
Y74289D01*
X187453D01*
Y74118D01*
X187368D01*
Y73948D01*
X187283D01*
Y73777D01*
X187197D01*
Y73606D01*
X187112D01*
Y73179D01*
X187027D01*
Y52868D01*
X187112D01*
Y52442D01*
X187197D01*
Y52271D01*
X187283D01*
Y52100D01*
X187368D01*
Y51930D01*
X187453D01*
Y51759D01*
X187539D01*
Y51674D01*
X187624D01*
Y51588D01*
X187710D01*
Y51418D01*
X187795D01*
Y51332D01*
X187966D01*
Y51247D01*
X188051D01*
Y51162D01*
X188222D01*
Y51076D01*
X188307D01*
Y50991D01*
X188478D01*
Y50906D01*
X188734D01*
Y50820D01*
X188990D01*
Y50735D01*
X190014D01*
Y50820D01*
X190355D01*
Y50906D01*
X190526D01*
Y50991D01*
X190697D01*
Y51076D01*
X190867D01*
Y51162D01*
X190952D01*
Y51247D01*
X191038D01*
Y51332D01*
X191208D01*
Y51418D01*
X191294D01*
Y51588D01*
X191379D01*
Y51674D01*
X191465D01*
Y51759D01*
X191550D01*
Y51930D01*
X191635D01*
Y52100D01*
X191721D01*
Y52271D01*
X191806D01*
Y52527D01*
X191891D01*
Y52954D01*
X191977D01*
Y55685D01*
X194366D01*
Y55599D01*
X194452D01*
Y51503D01*
X194366D01*
Y50991D01*
X194281D01*
Y50735D01*
X194195D01*
Y50479D01*
X194110D01*
Y50308D01*
X194025D01*
Y50138D01*
X193939D01*
Y49967D01*
X193854D01*
Y49882D01*
X193769D01*
Y49796D01*
X193683D01*
Y49626D01*
X193598D01*
Y49540D01*
X193513D01*
Y49455D01*
X193427D01*
Y49369D01*
X193342D01*
Y49284D01*
X193257D01*
Y49199D01*
X193171D01*
Y49113D01*
X193086D01*
Y49028D01*
X193001D01*
Y48943D01*
X192830D01*
Y48857D01*
X192745D01*
Y48772D01*
X192574D01*
Y48687D01*
X192403D01*
Y48601D01*
X192233D01*
Y48516D01*
X192062D01*
Y48431D01*
X191806D01*
Y48345D01*
X191465D01*
Y48260D01*
X187624D01*
Y48345D01*
X187197D01*
Y48431D01*
X186942D01*
Y48516D01*
X186771D01*
Y48601D01*
X186600D01*
Y48687D01*
X186430D01*
Y48772D01*
X186344D01*
Y48857D01*
X186173D01*
Y48943D01*
X186088D01*
Y49028D01*
X186003D01*
Y49113D01*
X185832D01*
Y49199D01*
X185747D01*
Y49284D01*
X185661D01*
Y49369D01*
X185576D01*
Y49455D01*
X185491D01*
Y49626D01*
X185405D01*
Y49711D01*
X185320D01*
Y49796D01*
X185235D01*
Y49882D01*
X185149D01*
Y50052D01*
X185064D01*
Y50223D01*
X184979D01*
Y50308D01*
X184893D01*
Y50564D01*
X184808D01*
Y50735D01*
X184723D01*
Y50991D01*
X184637D01*
Y51503D01*
X184552D01*
Y74545D01*
X184637D01*
Y74972D01*
X184723D01*
Y75313D01*
X184808D01*
Y75484D01*
X184893D01*
Y75740D01*
X184979D01*
Y75825D01*
X185064D01*
Y75996D01*
X185149D01*
Y76166D01*
X185235D01*
Y76252D01*
X185320D01*
Y76337D01*
X185405D01*
Y76422D01*
X185491D01*
Y76593D01*
X185576D01*
Y76678D01*
X185661D01*
Y76764D01*
X185747D01*
Y76849D01*
X185832D01*
Y76934D01*
X186003D01*
Y77020D01*
X186088D01*
Y77105D01*
X186173D01*
Y77190D01*
X186344D01*
Y77276D01*
X186430D01*
Y77361D01*
X186600D01*
Y77446D01*
X186771D01*
Y77532D01*
X186942D01*
Y77617D01*
X187197D01*
Y77702D01*
X187624D01*
Y77788D01*
X191465D01*
Y77702D01*
D02*
G37*
G36*
X129763Y82567D02*
X130617D01*
Y82481D01*
X131214D01*
Y82396D01*
X131726D01*
Y82311D01*
X132153D01*
Y82226D01*
X132494D01*
Y82140D01*
X132836D01*
Y82055D01*
X133092D01*
Y81969D01*
X133433D01*
Y81884D01*
X133689D01*
Y81799D01*
X133945D01*
Y81713D01*
X134201D01*
Y81628D01*
X134372D01*
Y81543D01*
X134628D01*
Y81457D01*
X134798D01*
Y81372D01*
X135055D01*
Y81287D01*
X135225D01*
Y81201D01*
X135396D01*
Y81116D01*
X135567D01*
Y81031D01*
X135737D01*
Y80945D01*
X135908D01*
Y80860D01*
X136079D01*
Y80775D01*
X136249D01*
Y80689D01*
X136420D01*
Y80604D01*
X136591D01*
Y80519D01*
X136761D01*
Y80433D01*
X136847D01*
Y80348D01*
X137017D01*
Y80263D01*
X137188D01*
Y80177D01*
X137273D01*
Y80092D01*
X137444D01*
Y80007D01*
X137615D01*
Y79921D01*
X137700D01*
Y79836D01*
X137871D01*
Y79751D01*
X137956D01*
Y79665D01*
X138127D01*
Y79580D01*
X138212D01*
Y79495D01*
X138298D01*
Y79409D01*
X138468D01*
Y79324D01*
X138553D01*
Y79239D01*
X138724D01*
Y79153D01*
X138809D01*
Y79068D01*
X138895D01*
Y78983D01*
X139066D01*
Y78897D01*
X139151D01*
Y78812D01*
X139236D01*
Y78727D01*
X139322D01*
Y78641D01*
X139492D01*
Y78556D01*
X139578D01*
Y78471D01*
X139663D01*
Y78385D01*
X139748D01*
Y78300D01*
X139834D01*
Y78215D01*
X139919D01*
Y78129D01*
X140004D01*
Y78044D01*
X140175D01*
Y77958D01*
X140260D01*
Y77873D01*
X140346D01*
Y77788D01*
X140431D01*
Y77702D01*
X140516D01*
Y77617D01*
X140602D01*
Y77532D01*
X140687D01*
Y77446D01*
X140772D01*
Y77361D01*
X140858D01*
Y77276D01*
X140943D01*
Y77190D01*
X141028D01*
Y77020D01*
X141114D01*
Y76934D01*
X141199D01*
Y76849D01*
X141284D01*
Y76764D01*
X141370D01*
Y76678D01*
X141455D01*
Y76593D01*
X141540D01*
Y76508D01*
X141626D01*
Y76337D01*
X141711D01*
Y76252D01*
X141796D01*
Y76166D01*
X141882D01*
Y76081D01*
X141967D01*
Y75910D01*
X142052D01*
Y75825D01*
X142138D01*
Y75740D01*
X142223D01*
Y75569D01*
X142309D01*
Y75484D01*
X142394D01*
Y75313D01*
X142479D01*
Y75228D01*
X142564D01*
Y75057D01*
X142650D01*
Y74972D01*
X142735D01*
Y74801D01*
X142821D01*
Y74715D01*
X142906D01*
Y74545D01*
X142991D01*
Y74460D01*
X143076D01*
Y74289D01*
X143162D01*
Y74118D01*
X143247D01*
Y74033D01*
X143333D01*
Y73862D01*
X143418D01*
Y73691D01*
X143503D01*
Y73521D01*
X143589D01*
Y73350D01*
X143674D01*
Y73265D01*
X143759D01*
Y73094D01*
X143845D01*
Y72923D01*
X143930D01*
Y72753D01*
X144015D01*
Y72582D01*
X144101D01*
Y72411D01*
X144186D01*
Y72241D01*
X144271D01*
Y71985D01*
X144357D01*
Y71814D01*
X144442D01*
Y71643D01*
X144527D01*
Y71387D01*
X144613D01*
Y71131D01*
X144698D01*
Y70960D01*
X144783D01*
Y70704D01*
X144869D01*
Y70448D01*
X144954D01*
Y70107D01*
X145039D01*
Y69851D01*
X145125D01*
Y69510D01*
X145210D01*
Y69083D01*
X145295D01*
Y68742D01*
X145381D01*
Y68230D01*
X145466D01*
Y67632D01*
X145551D01*
Y66779D01*
X145637D01*
Y63621D01*
X145551D01*
Y62939D01*
X145466D01*
Y62512D01*
X145381D01*
Y62000D01*
X145295D01*
Y61744D01*
X145210D01*
Y61658D01*
X144613D01*
Y61573D01*
X100492D01*
Y61658D01*
X100321D01*
Y61744D01*
X100236D01*
Y61915D01*
X100150D01*
Y62256D01*
X100236D01*
Y63280D01*
X100321D01*
Y64048D01*
X100406D01*
Y64731D01*
X100492D01*
Y65328D01*
X100577D01*
Y65840D01*
X100662D01*
Y66352D01*
X100748D01*
Y66779D01*
X100833D01*
Y67206D01*
X100918D01*
Y67547D01*
X101004D01*
Y67888D01*
X101089D01*
Y68400D01*
X101174D01*
Y68571D01*
X78133D01*
Y68742D01*
X78303D01*
Y68827D01*
X78644D01*
Y68912D01*
X78986D01*
Y68998D01*
X79242D01*
Y69083D01*
X79583D01*
Y69168D01*
X79925D01*
Y69254D01*
X80266D01*
Y69339D01*
X80607D01*
Y69424D01*
X80949D01*
Y69510D01*
X81290D01*
Y69595D01*
X81631D01*
Y69680D01*
X81888D01*
Y69766D01*
X82229D01*
Y69851D01*
X82570D01*
Y69936D01*
X82912D01*
Y70022D01*
X83253D01*
Y70107D01*
X83594D01*
Y70192D01*
X83936D01*
Y70278D01*
X84192D01*
Y70363D01*
X84533D01*
Y70448D01*
X84874D01*
Y70534D01*
X85216D01*
Y70619D01*
X85557D01*
Y70704D01*
X85899D01*
Y70790D01*
X86240D01*
Y70875D01*
X86496D01*
Y70960D01*
X86837D01*
Y71046D01*
X87179D01*
Y71131D01*
X87520D01*
Y71217D01*
X87861D01*
Y71302D01*
X88203D01*
Y71387D01*
X88544D01*
Y71473D01*
X88885D01*
Y71558D01*
X89141D01*
Y71643D01*
X89483D01*
Y71729D01*
X89824D01*
Y71814D01*
X90166D01*
Y71899D01*
X90507D01*
Y71985D01*
X90848D01*
Y72070D01*
X91190D01*
Y72155D01*
X91446D01*
Y72241D01*
X91787D01*
Y72326D01*
X92128D01*
Y72411D01*
X92470D01*
Y72497D01*
X92811D01*
Y72582D01*
X93152D01*
Y72667D01*
X93494D01*
Y72753D01*
X93835D01*
Y72838D01*
X94091D01*
Y72923D01*
X94432D01*
Y73009D01*
X94774D01*
Y73094D01*
X95115D01*
Y73179D01*
X95457D01*
Y73265D01*
X95798D01*
Y73350D01*
X96139D01*
Y73435D01*
X96395D01*
Y73521D01*
X96737D01*
Y73606D01*
X97078D01*
Y73691D01*
X97419D01*
Y73777D01*
X97761D01*
Y73862D01*
X98102D01*
Y73948D01*
X98443D01*
Y74033D01*
X98785D01*
Y74118D01*
X99041D01*
Y74204D01*
X99382D01*
Y74289D01*
X99724D01*
Y74374D01*
X100065D01*
Y74460D01*
X100406D01*
Y74545D01*
X100748D01*
Y74630D01*
X101089D01*
Y74715D01*
X101345D01*
Y74801D01*
X101686D01*
Y74886D01*
X102028D01*
Y74972D01*
X102369D01*
Y75057D01*
X102711D01*
Y75142D01*
X103052D01*
Y75228D01*
X103393D01*
Y75313D01*
X103649D01*
Y75398D01*
X103991D01*
Y75484D01*
X104332D01*
Y75569D01*
X104673D01*
Y75654D01*
X105015D01*
Y75740D01*
X105356D01*
Y75825D01*
X105697D01*
Y75910D01*
X106039D01*
Y75996D01*
X106295D01*
Y76081D01*
X106636D01*
Y76166D01*
X106978D01*
Y76252D01*
X107319D01*
Y76337D01*
X107660D01*
Y76422D01*
X108002D01*
Y76508D01*
X108343D01*
Y76593D01*
X108599D01*
Y76678D01*
X108940D01*
Y76764D01*
X109282D01*
Y76849D01*
X109623D01*
Y76934D01*
X109965D01*
Y77020D01*
X110306D01*
Y77105D01*
X110647D01*
Y77190D01*
X110989D01*
Y77276D01*
X111245D01*
Y77361D01*
X111586D01*
Y77446D01*
X111927D01*
Y77532D01*
X112269D01*
Y77617D01*
X112610D01*
Y77702D01*
X112951D01*
Y77788D01*
X113293D01*
Y77873D01*
X113549D01*
Y77958D01*
X113805D01*
Y77788D01*
X113720D01*
Y77702D01*
X113634D01*
Y77532D01*
X113549D01*
Y77361D01*
X113463D01*
Y77276D01*
X113378D01*
Y77105D01*
X113293D01*
Y76934D01*
X113207D01*
Y76849D01*
X113122D01*
Y76678D01*
X113037D01*
Y76593D01*
X112951D01*
Y76422D01*
X112866D01*
Y76252D01*
X112781D01*
Y76166D01*
X112695D01*
Y75996D01*
X112610D01*
Y75825D01*
X112525D01*
Y75740D01*
X112439D01*
Y75569D01*
X112354D01*
Y75398D01*
X112269D01*
Y75313D01*
X112183D01*
Y75142D01*
X112098D01*
Y74972D01*
X112013D01*
Y74886D01*
X111927D01*
Y74715D01*
X111842D01*
Y74545D01*
X111757D01*
Y74460D01*
X111671D01*
Y74289D01*
X111586D01*
Y74118D01*
X111501D01*
Y73948D01*
X111415D01*
Y73862D01*
X111330D01*
Y73691D01*
X111245D01*
Y73521D01*
X111159D01*
Y73350D01*
X111074D01*
Y73179D01*
X110989D01*
Y73009D01*
X110903D01*
Y72838D01*
X110818D01*
Y72582D01*
X110732D01*
Y72411D01*
X110647D01*
Y72241D01*
X110562D01*
Y71985D01*
X110477D01*
Y71729D01*
X110391D01*
Y71473D01*
X110306D01*
Y71217D01*
X110220D01*
Y70960D01*
X110135D01*
Y70619D01*
X110050D01*
Y70363D01*
X109965D01*
Y69936D01*
X109879D01*
Y69595D01*
X109794D01*
Y69168D01*
X109708D01*
Y68827D01*
X137359D01*
Y69083D01*
X137273D01*
Y69254D01*
X137188D01*
Y69510D01*
X137103D01*
Y69680D01*
X137017D01*
Y69851D01*
X136932D01*
Y70022D01*
X136847D01*
Y70192D01*
X136761D01*
Y70363D01*
X136676D01*
Y70448D01*
X136591D01*
Y70619D01*
X136505D01*
Y70790D01*
X136420D01*
Y70875D01*
X136335D01*
Y71046D01*
X136249D01*
Y71131D01*
X136164D01*
Y71302D01*
X136079D01*
Y71387D01*
X135993D01*
Y71473D01*
X135908D01*
Y71643D01*
X135823D01*
Y71729D01*
X135737D01*
Y71814D01*
X135652D01*
Y71899D01*
X135567D01*
Y71985D01*
X135481D01*
Y72155D01*
X135396D01*
Y72241D01*
X135311D01*
Y72326D01*
X135225D01*
Y72411D01*
X135140D01*
Y72497D01*
X135055D01*
Y72582D01*
X134969D01*
Y72667D01*
X134884D01*
Y72753D01*
X134713D01*
Y72838D01*
X134628D01*
Y72923D01*
X134543D01*
Y73009D01*
X134457D01*
Y73094D01*
X134372D01*
Y73179D01*
X134201D01*
Y73265D01*
X134116D01*
Y73350D01*
X134031D01*
Y73435D01*
X133860D01*
Y73521D01*
X133774D01*
Y73606D01*
X133604D01*
Y73691D01*
X133433D01*
Y73777D01*
X133348D01*
Y73862D01*
X133177D01*
Y73948D01*
X133006D01*
Y74033D01*
X132836D01*
Y74118D01*
X132665D01*
Y74204D01*
X132494D01*
Y74289D01*
X132324D01*
Y74374D01*
X132068D01*
Y74460D01*
X131897D01*
Y74545D01*
X131641D01*
Y74630D01*
X131385D01*
Y74715D01*
X131044D01*
Y74801D01*
X130787D01*
Y74886D01*
X130361D01*
Y74972D01*
X129934D01*
Y75057D01*
X129251D01*
Y75142D01*
X127715D01*
Y75057D01*
X127033D01*
Y74972D01*
X126521D01*
Y74886D01*
X126179D01*
Y74801D01*
X125838D01*
Y74715D01*
X125582D01*
Y74630D01*
X125326D01*
Y74545D01*
X125070D01*
Y74460D01*
X124899D01*
Y74374D01*
X124728D01*
Y74289D01*
X124558D01*
Y74204D01*
X124302D01*
Y74118D01*
X124216D01*
Y74033D01*
X124046D01*
Y73948D01*
X123875D01*
Y73862D01*
X123704D01*
Y73777D01*
X123534D01*
Y73691D01*
X123448D01*
Y73606D01*
X123278D01*
Y73521D01*
X123192D01*
Y73435D01*
X123021D01*
Y73350D01*
X122936D01*
Y73265D01*
X122851D01*
Y73179D01*
X122680D01*
Y73094D01*
X122595D01*
Y73009D01*
X122509D01*
Y72923D01*
X122424D01*
Y72838D01*
X122254D01*
Y72753D01*
X122168D01*
Y72667D01*
X122083D01*
Y72582D01*
X121997D01*
Y72497D01*
X121912D01*
Y72411D01*
X121827D01*
Y72326D01*
X121741D01*
Y72241D01*
X121656D01*
Y72155D01*
X121571D01*
Y72070D01*
X121485D01*
Y71985D01*
X121400D01*
Y71899D01*
X121315D01*
Y71729D01*
X121229D01*
Y71643D01*
X121144D01*
Y71558D01*
X121059D01*
Y71473D01*
X120973D01*
Y71302D01*
X120888D01*
Y71217D01*
X120803D01*
Y71131D01*
X120717D01*
Y70960D01*
X120632D01*
Y70875D01*
X120547D01*
Y70704D01*
X120461D01*
Y70619D01*
X120376D01*
Y70448D01*
X120205D01*
Y70363D01*
X120035D01*
Y70278D01*
X112013D01*
Y70363D01*
X111927D01*
Y70448D01*
X112013D01*
Y70790D01*
X112098D01*
Y71046D01*
X112183D01*
Y71302D01*
X112269D01*
Y71473D01*
X112354D01*
Y71729D01*
X112439D01*
Y71985D01*
X112525D01*
Y72155D01*
X112610D01*
Y72326D01*
X112695D01*
Y72582D01*
X112781D01*
Y72753D01*
X112866D01*
Y72923D01*
X112951D01*
Y73094D01*
X113037D01*
Y73265D01*
X113122D01*
Y73435D01*
X113207D01*
Y73606D01*
X113293D01*
Y73691D01*
X113378D01*
Y73862D01*
X113463D01*
Y74033D01*
X113549D01*
Y74204D01*
X113634D01*
Y74289D01*
X113720D01*
Y74460D01*
X113805D01*
Y74545D01*
X113890D01*
Y74715D01*
X113975D01*
Y74801D01*
X114061D01*
Y74972D01*
X114146D01*
Y75057D01*
X114232D01*
Y75228D01*
X114317D01*
Y75313D01*
X114402D01*
Y75484D01*
X114487D01*
Y75569D01*
X114573D01*
Y75740D01*
X114658D01*
Y75825D01*
X114743D01*
Y75910D01*
X114829D01*
Y76081D01*
X114914D01*
Y76166D01*
X115000D01*
Y76252D01*
X115085D01*
Y76337D01*
X115170D01*
Y76508D01*
X115256D01*
Y76593D01*
X115341D01*
Y76678D01*
X115426D01*
Y76764D01*
X115512D01*
Y76849D01*
X115597D01*
Y76934D01*
X115682D01*
Y77105D01*
X115768D01*
Y77190D01*
X115853D01*
Y77276D01*
X115938D01*
Y77361D01*
X116024D01*
Y77446D01*
X116109D01*
Y77532D01*
X116194D01*
Y77617D01*
X116280D01*
Y77702D01*
X116365D01*
Y77788D01*
X116450D01*
Y77873D01*
X116536D01*
Y77958D01*
X116621D01*
Y78044D01*
X116706D01*
Y78129D01*
X116792D01*
Y78215D01*
X116877D01*
Y78300D01*
X116962D01*
Y78385D01*
X117048D01*
Y78471D01*
X117218D01*
Y78556D01*
X117304D01*
Y78641D01*
X117389D01*
Y78727D01*
X117474D01*
Y78812D01*
X117560D01*
Y78897D01*
X117730D01*
Y78983D01*
X117816D01*
Y79068D01*
X117901D01*
Y79153D01*
X117986D01*
Y79239D01*
X118157D01*
Y79324D01*
X118243D01*
Y79409D01*
X118328D01*
Y79495D01*
X118498D01*
Y79580D01*
X118584D01*
Y79665D01*
X118755D01*
Y79751D01*
X118840D01*
Y79836D01*
X119011D01*
Y79921D01*
X119096D01*
Y80007D01*
X119267D01*
Y80092D01*
X119352D01*
Y80177D01*
X119523D01*
Y80263D01*
X119693D01*
Y80348D01*
X119864D01*
Y80433D01*
X119949D01*
Y80519D01*
X120120D01*
Y80604D01*
X120291D01*
Y80689D01*
X120461D01*
Y80775D01*
X120632D01*
Y80860D01*
X120803D01*
Y80945D01*
X120973D01*
Y81031D01*
X121144D01*
Y81116D01*
X121400D01*
Y81201D01*
X121571D01*
Y81287D01*
X121827D01*
Y81372D01*
X121997D01*
Y81457D01*
X122254D01*
Y81543D01*
X122509D01*
Y81628D01*
X122680D01*
Y81713D01*
X123021D01*
Y81799D01*
X123278D01*
Y81884D01*
X123534D01*
Y81969D01*
X123875D01*
Y82055D01*
X124216D01*
Y82140D01*
X124558D01*
Y82226D01*
X124984D01*
Y82311D01*
X125411D01*
Y82396D01*
X125923D01*
Y82481D01*
X126521D01*
Y82567D01*
X127374D01*
Y82652D01*
X129763D01*
Y82567D01*
D02*
G37*
G36*
X209727Y48260D02*
X207253D01*
Y61744D01*
X202388D01*
Y48260D01*
X199913D01*
Y77788D01*
X202388D01*
Y71814D01*
Y71729D01*
Y64219D01*
X207253D01*
Y77788D01*
X209727D01*
Y48260D01*
D02*
G37*
G36*
X285339D02*
X281499D01*
Y48687D01*
X281413D01*
Y49199D01*
X281328D01*
Y49711D01*
X281243D01*
Y50223D01*
X281157D01*
Y50820D01*
X281072D01*
Y51332D01*
X280987D01*
Y51844D01*
X280901D01*
Y52356D01*
X280816D01*
Y52868D01*
X280731D01*
Y53380D01*
X280645D01*
Y53892D01*
X280560D01*
Y54405D01*
X280475D01*
Y55002D01*
X280389D01*
Y55514D01*
X280304D01*
Y56026D01*
X280219D01*
Y56538D01*
X280133D01*
Y57050D01*
X280048D01*
Y57562D01*
X279963D01*
Y58074D01*
X279877D01*
Y58671D01*
X279792D01*
Y59184D01*
X279707D01*
Y59696D01*
X279621D01*
Y60208D01*
X279536D01*
Y60720D01*
X279450D01*
Y61232D01*
X279365D01*
Y61744D01*
X279280D01*
Y62256D01*
X279195D01*
Y62853D01*
X279109D01*
Y63365D01*
X279024D01*
Y63877D01*
X278939D01*
Y64389D01*
X278853D01*
Y64901D01*
X278768D01*
Y65413D01*
X278682D01*
Y65925D01*
X278597D01*
Y66523D01*
X278512D01*
Y67035D01*
X278426D01*
Y67547D01*
X278341D01*
Y68059D01*
X278256D01*
Y68571D01*
X278170D01*
Y69083D01*
X278085D01*
Y69595D01*
X278000D01*
Y51503D01*
Y51418D01*
Y48260D01*
X275525D01*
Y77788D01*
X279365D01*
Y77276D01*
X279450D01*
Y76764D01*
X279536D01*
Y76252D01*
X279621D01*
Y75740D01*
X279707D01*
Y75228D01*
X279792D01*
Y74715D01*
X279877D01*
Y74204D01*
X279963D01*
Y73606D01*
X280048D01*
Y73094D01*
X280133D01*
Y72582D01*
X280219D01*
Y72070D01*
X280304D01*
Y71558D01*
X280389D01*
Y71046D01*
X280475D01*
Y70534D01*
X280560D01*
Y70022D01*
X280645D01*
Y69510D01*
X280731D01*
Y68912D01*
X280816D01*
Y68400D01*
X280901D01*
Y67888D01*
X280987D01*
Y67376D01*
X281072D01*
Y66864D01*
X281157D01*
Y66352D01*
X281243D01*
Y65840D01*
X281328D01*
Y65328D01*
X281413D01*
Y64816D01*
X281499D01*
Y64219D01*
X281584D01*
Y63707D01*
X281669D01*
Y63195D01*
X281755D01*
Y62682D01*
X281840D01*
Y62171D01*
X281925D01*
Y61658D01*
X282011D01*
Y61146D01*
X282096D01*
Y60634D01*
X282181D01*
Y60037D01*
X282267D01*
Y59525D01*
X282352D01*
Y59013D01*
X282437D01*
Y58501D01*
X282523D01*
Y57989D01*
X282608D01*
Y57477D01*
X282694D01*
Y56965D01*
X282779D01*
Y56453D01*
X282864D01*
Y77788D01*
X285339D01*
Y48260D01*
D02*
G37*
G36*
X269892D02*
X267418D01*
Y55514D01*
Y55599D01*
Y77788D01*
X269892D01*
Y48260D01*
D02*
G37*
G36*
X243266Y77276D02*
X243351D01*
Y76593D01*
X243437D01*
Y75910D01*
X243522D01*
Y75228D01*
X243608D01*
Y74545D01*
X243693D01*
Y73862D01*
X243778D01*
Y73179D01*
X243864D01*
Y72497D01*
X243949D01*
Y71814D01*
X244034D01*
Y71131D01*
X244120D01*
Y70448D01*
X244205D01*
Y69766D01*
X244290D01*
Y69083D01*
X244376D01*
Y68400D01*
X244461D01*
Y67718D01*
X244546D01*
Y67035D01*
X244632D01*
Y66352D01*
X244717D01*
Y65584D01*
X244802D01*
Y64901D01*
X244888D01*
Y64219D01*
X244973D01*
Y63536D01*
X245058D01*
Y62853D01*
X245144D01*
Y62171D01*
X245229D01*
Y61488D01*
X245314D01*
Y60805D01*
X245400D01*
Y60122D01*
X245485D01*
Y59440D01*
X245570D01*
Y58757D01*
X245656D01*
Y58074D01*
X245741D01*
Y57391D01*
X245826D01*
Y56709D01*
X245912D01*
Y56026D01*
X245997D01*
Y55343D01*
X246082D01*
Y54661D01*
X246168D01*
Y53978D01*
X246253D01*
Y53295D01*
X246338D01*
Y52612D01*
X246424D01*
Y51844D01*
X246509D01*
Y51162D01*
X246595D01*
Y50479D01*
X246680D01*
Y49796D01*
X246765D01*
Y49113D01*
X246850D01*
Y48431D01*
X246936D01*
Y48260D01*
X244205D01*
Y48431D01*
X244120D01*
Y49284D01*
X244034D01*
Y50138D01*
X243949D01*
Y50906D01*
X243864D01*
Y51759D01*
X243778D01*
Y52612D01*
X243693D01*
Y53380D01*
X243608D01*
Y54234D01*
X243522D01*
Y55087D01*
X243437D01*
Y55599D01*
X240621D01*
Y55514D01*
X240535D01*
Y54746D01*
X240450D01*
Y53892D01*
X240365D01*
Y53124D01*
X240279D01*
Y52356D01*
X240194D01*
Y51588D01*
X240109D01*
Y50735D01*
X240023D01*
Y49967D01*
X239938D01*
Y49199D01*
X239853D01*
Y48431D01*
X239767D01*
Y48260D01*
X237036D01*
Y48431D01*
X237122D01*
Y49113D01*
X237207D01*
Y49796D01*
X237292D01*
Y50479D01*
X237378D01*
Y51162D01*
X237463D01*
Y51844D01*
X237548D01*
Y52527D01*
X237634D01*
Y53210D01*
X237719D01*
Y53978D01*
X237804D01*
Y54661D01*
X237890D01*
Y55343D01*
X237975D01*
Y56026D01*
X238060D01*
Y56709D01*
X238146D01*
Y57391D01*
X238231D01*
Y58074D01*
X238316D01*
Y58757D01*
X238402D01*
Y59440D01*
X238487D01*
Y60122D01*
X238573D01*
Y60805D01*
X238658D01*
Y61488D01*
X238743D01*
Y62171D01*
X238829D01*
Y62853D01*
X238914D01*
Y63536D01*
X238999D01*
Y64219D01*
X239084D01*
Y64901D01*
X239170D01*
Y65584D01*
X239255D01*
Y66267D01*
X239340D01*
Y66950D01*
X239426D01*
Y67718D01*
X239511D01*
Y68400D01*
X239597D01*
Y69083D01*
X239682D01*
Y69766D01*
X239767D01*
Y70448D01*
X239853D01*
Y71131D01*
X239938D01*
Y71814D01*
X240023D01*
Y72497D01*
X240109D01*
Y73179D01*
X240194D01*
Y73862D01*
X240279D01*
Y74545D01*
X240365D01*
Y75228D01*
X240450D01*
Y75910D01*
X240535D01*
Y76593D01*
X240621D01*
Y77276D01*
X240706D01*
Y77788D01*
X243266D01*
Y77276D01*
D02*
G37*
G36*
X228929Y77702D02*
X229270D01*
Y77617D01*
X229526D01*
Y77532D01*
X229782D01*
Y77446D01*
X229953D01*
Y77361D01*
X230124D01*
Y77276D01*
X230209D01*
Y77190D01*
X230380D01*
Y77105D01*
X230465D01*
Y77020D01*
X230550D01*
Y76934D01*
X230636D01*
Y76849D01*
X230721D01*
Y76764D01*
X230892D01*
Y76678D01*
X230977D01*
Y76508D01*
X231063D01*
Y76422D01*
X231148D01*
Y76337D01*
X231233D01*
Y76252D01*
X231318D01*
Y76081D01*
X231404D01*
Y75996D01*
X231489D01*
Y75825D01*
X231574D01*
Y75654D01*
X231660D01*
Y75398D01*
X231745D01*
Y75142D01*
X231831D01*
Y74801D01*
X231916D01*
Y64389D01*
X231831D01*
Y64133D01*
X231745D01*
Y63963D01*
X231660D01*
Y63792D01*
X231574D01*
Y63707D01*
X231489D01*
Y63621D01*
X231404D01*
Y63536D01*
X231318D01*
Y63451D01*
X231233D01*
Y63365D01*
X231148D01*
Y63280D01*
X230977D01*
Y63195D01*
X230807D01*
Y63109D01*
X230550D01*
Y63024D01*
X230636D01*
Y62939D01*
X230892D01*
Y62853D01*
X231063D01*
Y62768D01*
X231148D01*
Y62682D01*
X231233D01*
Y62597D01*
X231318D01*
Y62512D01*
X231404D01*
Y62427D01*
X231489D01*
Y62341D01*
X231574D01*
Y62256D01*
X231660D01*
Y62085D01*
X231745D01*
Y61915D01*
X231831D01*
Y61658D01*
X231916D01*
Y59184D01*
Y59098D01*
Y48260D01*
X229441D01*
Y59781D01*
X229356D01*
Y60122D01*
X229270D01*
Y60293D01*
X229185D01*
Y60464D01*
X229100D01*
Y60634D01*
X229014D01*
Y60720D01*
X228929D01*
Y60805D01*
X228844D01*
Y60976D01*
X228758D01*
Y61061D01*
X228673D01*
Y61146D01*
X228588D01*
Y61232D01*
X228417D01*
Y61317D01*
X228332D01*
Y61402D01*
X228161D01*
Y61488D01*
X227990D01*
Y61573D01*
X227820D01*
Y61658D01*
X227393D01*
Y61744D01*
X224577D01*
Y48260D01*
X222102D01*
Y77788D01*
X228929D01*
Y77702D01*
D02*
G37*
G36*
X179602Y75313D02*
X172263D01*
Y64219D01*
X179602D01*
Y61744D01*
X172263D01*
Y50735D01*
X179602D01*
Y48260D01*
X169788D01*
Y72411D01*
Y72497D01*
Y77788D01*
X179602D01*
Y75313D01*
D02*
G37*
G36*
X164668D02*
X160998D01*
Y48260D01*
X158523D01*
Y75313D01*
X154853D01*
Y75484D01*
Y75569D01*
Y77788D01*
X164668D01*
Y75313D01*
D02*
G37*
G36*
X120632Y60293D02*
X120717D01*
Y60208D01*
X120888D01*
Y60037D01*
X120973D01*
Y59952D01*
X121059D01*
Y59866D01*
X121144D01*
Y59781D01*
X121229D01*
Y59610D01*
X121315D01*
Y59525D01*
X121400D01*
Y59440D01*
X121485D01*
Y59354D01*
X121571D01*
Y59269D01*
X121656D01*
Y59184D01*
X121741D01*
Y59098D01*
X121827D01*
Y59013D01*
X121912D01*
Y58927D01*
X121997D01*
Y58842D01*
X122083D01*
Y58757D01*
X122168D01*
Y58671D01*
X122254D01*
Y58586D01*
X122339D01*
Y58501D01*
X122424D01*
Y58415D01*
X122595D01*
Y58330D01*
X122680D01*
Y58245D01*
X122766D01*
Y58159D01*
X122851D01*
Y58074D01*
X123021D01*
Y57989D01*
X123107D01*
Y57903D01*
X123278D01*
Y57818D01*
X123363D01*
Y57733D01*
X123534D01*
Y57647D01*
X123619D01*
Y57562D01*
X123790D01*
Y57477D01*
X123960D01*
Y57391D01*
X124131D01*
Y57306D01*
X124216D01*
Y57221D01*
X124387D01*
Y57135D01*
X124643D01*
Y57050D01*
X124814D01*
Y56965D01*
X124984D01*
Y56879D01*
X125240D01*
Y56794D01*
X125496D01*
Y56709D01*
X125752D01*
Y56623D01*
X126094D01*
Y56538D01*
X126435D01*
Y56453D01*
X126947D01*
Y56367D01*
X127630D01*
Y56282D01*
X137103D01*
Y56367D01*
X142650D01*
Y56282D01*
X142906D01*
Y56111D01*
X142821D01*
Y56026D01*
X142735D01*
Y55855D01*
X142650D01*
Y55770D01*
X142564D01*
Y55599D01*
X142479D01*
Y55514D01*
X142394D01*
Y55343D01*
X142309D01*
Y55258D01*
X142223D01*
Y55173D01*
X142138D01*
Y55002D01*
X142052D01*
Y54917D01*
X141967D01*
Y54831D01*
X141882D01*
Y54661D01*
X141796D01*
Y54575D01*
X141711D01*
Y54490D01*
X141626D01*
Y54405D01*
X141540D01*
Y54319D01*
X141455D01*
Y54149D01*
X141370D01*
Y54063D01*
X141284D01*
Y53978D01*
X141199D01*
Y53892D01*
X141114D01*
Y53807D01*
X141028D01*
Y53722D01*
X140943D01*
Y53636D01*
X140858D01*
Y53551D01*
X140772D01*
Y53466D01*
X140687D01*
Y53380D01*
X140602D01*
Y53295D01*
X140516D01*
Y53210D01*
X140431D01*
Y53124D01*
X140346D01*
Y53039D01*
X140260D01*
Y52954D01*
X140175D01*
Y52868D01*
X140090D01*
Y52783D01*
X140004D01*
Y52698D01*
X139919D01*
Y52612D01*
X139834D01*
Y52527D01*
X139748D01*
Y52442D01*
X139578D01*
Y52356D01*
X139492D01*
Y52271D01*
X139407D01*
Y52186D01*
X139322D01*
Y52100D01*
X139236D01*
Y52015D01*
X139066D01*
Y51930D01*
X138980D01*
Y51844D01*
X138895D01*
Y51759D01*
X138724D01*
Y51674D01*
X138639D01*
Y51588D01*
X138553D01*
Y51503D01*
X138383D01*
Y51418D01*
X138298D01*
Y51332D01*
X138212D01*
Y51247D01*
X138041D01*
Y51162D01*
X137956D01*
Y51076D01*
X137785D01*
Y50991D01*
X137700D01*
Y50906D01*
X137529D01*
Y50820D01*
X137359D01*
Y50735D01*
X137273D01*
Y50649D01*
X137103D01*
Y50564D01*
X136932D01*
Y50479D01*
X136847D01*
Y50394D01*
X136676D01*
Y50308D01*
X136505D01*
Y50223D01*
X136335D01*
Y50138D01*
X136164D01*
Y50052D01*
X135993D01*
Y49967D01*
X135823D01*
Y49882D01*
X135652D01*
Y49796D01*
X135481D01*
Y49711D01*
X135225D01*
Y49626D01*
X135055D01*
Y49540D01*
X134884D01*
Y49455D01*
X134628D01*
Y49369D01*
X134372D01*
Y49284D01*
X134201D01*
Y49199D01*
X133945D01*
Y49113D01*
X133689D01*
Y49028D01*
X133348D01*
Y48943D01*
X133092D01*
Y48857D01*
X132750D01*
Y48772D01*
X132409D01*
Y48687D01*
X132068D01*
Y48601D01*
X131556D01*
Y48516D01*
X131129D01*
Y48431D01*
X130532D01*
Y48345D01*
X129678D01*
Y48260D01*
X126862D01*
Y48345D01*
X126094D01*
Y48431D01*
X125496D01*
Y48516D01*
X125070D01*
Y48601D01*
X124643D01*
Y48687D01*
X124302D01*
Y48772D01*
X123960D01*
Y48857D01*
X123619D01*
Y48943D01*
X123363D01*
Y49028D01*
X123107D01*
Y49113D01*
X122851D01*
Y49199D01*
X122595D01*
Y49284D01*
X122339D01*
Y49369D01*
X122168D01*
Y49455D01*
X121912D01*
Y49540D01*
X121741D01*
Y49626D01*
X121571D01*
Y49711D01*
X121400D01*
Y49796D01*
X121144D01*
Y49882D01*
X120973D01*
Y49967D01*
X120803D01*
Y50052D01*
X120632D01*
Y50138D01*
X120461D01*
Y50223D01*
X120376D01*
Y50308D01*
X120205D01*
Y50394D01*
X120035D01*
Y50479D01*
X119864D01*
Y50564D01*
X119693D01*
Y50649D01*
X119608D01*
Y50735D01*
X119437D01*
Y50820D01*
X119352D01*
Y50906D01*
X119181D01*
Y50991D01*
X119011D01*
Y51076D01*
X118925D01*
Y51162D01*
X118755D01*
Y51247D01*
X118669D01*
Y51332D01*
X118498D01*
Y51418D01*
X118413D01*
Y51503D01*
X118328D01*
Y51588D01*
X118157D01*
Y51674D01*
X118072D01*
Y51759D01*
X117986D01*
Y51844D01*
X117816D01*
Y51930D01*
X117730D01*
Y52015D01*
X117645D01*
Y52100D01*
X117474D01*
Y52186D01*
X117389D01*
Y52271D01*
X117304D01*
Y52356D01*
X117218D01*
Y52442D01*
X117133D01*
Y52527D01*
X116962D01*
Y52612D01*
X116877D01*
Y52698D01*
X116792D01*
Y52783D01*
X116706D01*
Y52868D01*
X116621D01*
Y52954D01*
X116536D01*
Y53039D01*
X116450D01*
Y53124D01*
X116365D01*
Y53210D01*
X116280D01*
Y53295D01*
X116194D01*
Y53380D01*
X116109D01*
Y53466D01*
X116024D01*
Y53551D01*
X115938D01*
Y53636D01*
X115853D01*
Y53722D01*
X115768D01*
Y53807D01*
X115682D01*
Y53892D01*
X115597D01*
Y53978D01*
X115512D01*
Y54063D01*
X115426D01*
Y54149D01*
X115341D01*
Y54319D01*
X115256D01*
Y54405D01*
X115170D01*
Y54490D01*
X115085D01*
Y54575D01*
X115000D01*
Y54661D01*
X114914D01*
Y54831D01*
X114829D01*
Y54917D01*
X114743D01*
Y55002D01*
X114658D01*
Y55173D01*
X114573D01*
Y55258D01*
X114487D01*
Y55343D01*
X114402D01*
Y55514D01*
X114317D01*
Y55599D01*
X114232D01*
Y55770D01*
X114146D01*
Y55855D01*
X114061D01*
Y56026D01*
X113975D01*
Y56111D01*
X113890D01*
Y56282D01*
X113805D01*
Y56367D01*
X113720D01*
Y56538D01*
X113634D01*
Y56709D01*
X113549D01*
Y56794D01*
X113463D01*
Y56965D01*
X113378D01*
Y57135D01*
X113293D01*
Y57306D01*
X113207D01*
Y57477D01*
X113122D01*
Y57647D01*
X113037D01*
Y57818D01*
X112951D01*
Y57989D01*
X112866D01*
Y58159D01*
X112781D01*
Y58330D01*
X112695D01*
Y58586D01*
X112610D01*
Y58757D01*
X112525D01*
Y58927D01*
X112439D01*
Y59184D01*
X112354D01*
Y59354D01*
X112269D01*
Y59610D01*
X112183D01*
Y59866D01*
X112098D01*
Y60122D01*
X112013D01*
Y60293D01*
X112098D01*
Y60378D01*
X120632D01*
Y60293D01*
D02*
G37*
G36*
X161510Y117215D02*
X163388D01*
Y117130D01*
X164582D01*
Y117044D01*
X165521D01*
Y116959D01*
X165948D01*
Y116874D01*
X166119D01*
Y116788D01*
X166289D01*
Y116618D01*
X166374D01*
Y116106D01*
X166289D01*
Y115935D01*
X166204D01*
Y115850D01*
X166119D01*
Y115679D01*
X166033D01*
Y115594D01*
X165948D01*
Y115508D01*
X165862D01*
Y115423D01*
X165777D01*
Y115338D01*
X165692D01*
Y115167D01*
X165606D01*
Y115082D01*
X165521D01*
Y114996D01*
X165436D01*
Y114911D01*
X165350D01*
Y114825D01*
X165265D01*
Y114655D01*
X165180D01*
Y114570D01*
X165094D01*
Y114484D01*
X165009D01*
Y114399D01*
X164924D01*
Y114228D01*
X164838D01*
Y114143D01*
X164753D01*
Y114058D01*
X164668D01*
Y113972D01*
X164582D01*
Y113887D01*
X164497D01*
Y113716D01*
X164412D01*
Y113631D01*
X164326D01*
Y113545D01*
X164241D01*
Y113460D01*
X164156D01*
Y113289D01*
X164070D01*
Y113204D01*
X163985D01*
Y113119D01*
X163900D01*
Y113033D01*
X163814D01*
Y112863D01*
X163729D01*
Y112777D01*
X163644D01*
Y112692D01*
X163558D01*
Y112607D01*
X163473D01*
Y112436D01*
X163388D01*
Y112351D01*
X163302D01*
Y112265D01*
X163217D01*
Y112180D01*
X163132D01*
Y112095D01*
X163046D01*
Y111924D01*
X162961D01*
Y111839D01*
X162875D01*
Y111753D01*
X162790D01*
Y111668D01*
X162705D01*
Y111497D01*
X162619D01*
Y111412D01*
X162534D01*
Y111327D01*
X162449D01*
Y111241D01*
X162363D01*
Y111156D01*
X162278D01*
Y110985D01*
X162193D01*
Y110900D01*
X162108D01*
Y110815D01*
X162022D01*
Y110729D01*
X161937D01*
Y110644D01*
X161851D01*
Y110473D01*
X161766D01*
Y110388D01*
X161681D01*
Y110302D01*
X161595D01*
Y110217D01*
X161510D01*
Y110132D01*
X161425D01*
Y110047D01*
X161339D01*
Y109876D01*
X161254D01*
Y109790D01*
X161169D01*
Y109705D01*
X161083D01*
Y109620D01*
X160998D01*
Y109534D01*
X160913D01*
Y109364D01*
X160827D01*
Y109278D01*
X160742D01*
Y109193D01*
X160657D01*
Y109108D01*
X160571D01*
Y109022D01*
X160486D01*
Y108937D01*
X160401D01*
Y108766D01*
X160315D01*
Y108681D01*
X160230D01*
Y108596D01*
X160145D01*
Y108510D01*
X160059D01*
Y108425D01*
X159974D01*
Y108254D01*
X159889D01*
Y108169D01*
X159803D01*
Y108084D01*
X159718D01*
Y107998D01*
X159633D01*
Y107913D01*
X159547D01*
Y107828D01*
X159462D01*
Y107657D01*
X159377D01*
Y107572D01*
X159291D01*
Y107486D01*
X159206D01*
Y107401D01*
X159121D01*
Y107316D01*
X159035D01*
Y107145D01*
X158950D01*
Y107060D01*
X158864D01*
Y106974D01*
X158779D01*
Y106889D01*
X158694D01*
Y106804D01*
X158609D01*
Y106633D01*
X158523D01*
Y106547D01*
X158438D01*
Y106462D01*
X158352D01*
Y106377D01*
X158267D01*
Y106292D01*
X158182D01*
Y106121D01*
X158097D01*
Y106035D01*
X158011D01*
Y105950D01*
X157926D01*
Y105865D01*
X157840D01*
Y105779D01*
X157755D01*
Y105609D01*
X157670D01*
Y105523D01*
X157584D01*
Y105438D01*
X157499D01*
Y105353D01*
X157414D01*
Y105182D01*
X157328D01*
Y105097D01*
X157243D01*
Y104926D01*
X157158D01*
Y104841D01*
X157072D01*
Y104670D01*
X156987D01*
Y104499D01*
X156902D01*
Y104329D01*
X156816D01*
Y104073D01*
X156731D01*
Y103902D01*
X156646D01*
Y103561D01*
X156560D01*
Y103048D01*
X156475D01*
Y102536D01*
X156560D01*
Y102024D01*
X156646D01*
Y101683D01*
X156731D01*
Y101512D01*
X156816D01*
Y101342D01*
X156902D01*
Y101171D01*
X156987D01*
Y101000D01*
X157072D01*
Y100915D01*
X157158D01*
Y100744D01*
X157243D01*
Y100659D01*
X157328D01*
Y100574D01*
X157414D01*
Y100403D01*
X157499D01*
Y100318D01*
X157584D01*
Y100232D01*
X157670D01*
Y100147D01*
X157755D01*
Y100062D01*
X157840D01*
Y99976D01*
X157926D01*
Y99891D01*
X158011D01*
Y99806D01*
X158097D01*
Y99720D01*
X158182D01*
Y99635D01*
X158352D01*
Y99550D01*
X158438D01*
Y99464D01*
X158523D01*
Y99379D01*
X158609D01*
Y99294D01*
X158779D01*
Y99208D01*
X158864D01*
Y99123D01*
X159035D01*
Y99038D01*
X159121D01*
Y98952D01*
X159291D01*
Y98867D01*
X159377D01*
Y98781D01*
X159547D01*
Y98696D01*
X159718D01*
Y98611D01*
X159803D01*
Y98525D01*
X159974D01*
Y98440D01*
X160145D01*
Y98355D01*
X160315D01*
Y98270D01*
X160486D01*
Y98184D01*
X160657D01*
Y98099D01*
X160827D01*
Y98013D01*
X160998D01*
Y97928D01*
X161169D01*
Y97843D01*
X161339D01*
Y97757D01*
X161510D01*
Y97672D01*
X161766D01*
Y97587D01*
X161937D01*
Y97501D01*
X162108D01*
Y97416D01*
X162363D01*
Y97331D01*
X162534D01*
Y97245D01*
X162790D01*
Y97160D01*
X162961D01*
Y97075D01*
X163217D01*
Y96989D01*
X163473D01*
Y96904D01*
X163729D01*
Y96819D01*
X163900D01*
Y96733D01*
X164156D01*
Y96648D01*
X164412D01*
Y96563D01*
X164668D01*
Y96477D01*
X165009D01*
Y96392D01*
X165265D01*
Y96307D01*
X165521D01*
Y96221D01*
X165862D01*
Y96136D01*
X166204D01*
Y96051D01*
X166460D01*
Y95965D01*
X166801D01*
Y95880D01*
X167228D01*
Y95795D01*
X167569D01*
Y95709D01*
X167911D01*
Y95624D01*
X168337D01*
Y95539D01*
X168764D01*
Y95453D01*
X169105D01*
Y95368D01*
X169532D01*
Y95283D01*
X169959D01*
Y95197D01*
X170385D01*
Y95112D01*
X170812D01*
Y95027D01*
X171239D01*
Y94941D01*
X171666D01*
Y94856D01*
X172092D01*
Y94770D01*
X172519D01*
Y94685D01*
X172946D01*
Y94600D01*
X173372D01*
Y94515D01*
X173799D01*
Y94429D01*
X174226D01*
Y94344D01*
X174738D01*
Y94258D01*
X175165D01*
Y94173D01*
X175591D01*
Y94088D01*
X176103D01*
Y94003D01*
X176530D01*
Y93917D01*
X177042D01*
Y93832D01*
X177469D01*
Y93746D01*
X177981D01*
Y93661D01*
X178493D01*
Y93576D01*
X178920D01*
Y93490D01*
X179432D01*
Y93405D01*
X179944D01*
Y93320D01*
X180456D01*
Y93234D01*
X180968D01*
Y93149D01*
X181394D01*
Y93064D01*
X181906D01*
Y92978D01*
X182418D01*
Y92893D01*
X183016D01*
Y92808D01*
X183528D01*
Y92722D01*
X184040D01*
Y92637D01*
X184552D01*
Y92552D01*
X185064D01*
Y92466D01*
X185576D01*
Y92381D01*
X186173D01*
Y92296D01*
X186686D01*
Y92210D01*
X187197D01*
Y92125D01*
X187795D01*
Y92040D01*
X188307D01*
Y91954D01*
X188904D01*
Y91869D01*
X189416D01*
Y91784D01*
X190014D01*
Y91698D01*
X190526D01*
Y91613D01*
X191123D01*
Y91528D01*
X191721D01*
Y91442D01*
X192233D01*
Y91357D01*
X192830D01*
Y91272D01*
X193342D01*
Y91186D01*
X193939D01*
Y91101D01*
X194537D01*
Y91016D01*
X195049D01*
Y90930D01*
X195646D01*
Y90845D01*
X196244D01*
Y90759D01*
X196756D01*
Y90674D01*
X197353D01*
Y90589D01*
X197950D01*
Y90504D01*
X198463D01*
Y90418D01*
X199060D01*
Y90333D01*
X199657D01*
Y90247D01*
X200255D01*
Y90162D01*
X200852D01*
Y90077D01*
X201364D01*
Y89992D01*
X201961D01*
Y89906D01*
X202559D01*
Y89821D01*
X203156D01*
Y89735D01*
X203754D01*
Y89650D01*
X204351D01*
Y89565D01*
X204948D01*
Y89479D01*
X205631D01*
Y89394D01*
X206228D01*
Y89309D01*
X206826D01*
Y89223D01*
X207423D01*
Y89138D01*
X208106D01*
Y89053D01*
X208703D01*
Y88967D01*
X209386D01*
Y88882D01*
X209983D01*
Y88797D01*
X210666D01*
Y88711D01*
X211349D01*
Y88626D01*
X212032D01*
Y88541D01*
X212714D01*
Y88455D01*
X213397D01*
Y88370D01*
X214080D01*
Y88285D01*
X214762D01*
Y88199D01*
X215445D01*
Y88114D01*
X216128D01*
Y88029D01*
X216896D01*
Y87943D01*
X217579D01*
Y87858D01*
X218261D01*
Y87773D01*
X219030D01*
Y87687D01*
X219712D01*
Y87602D01*
X220480D01*
Y87517D01*
X221248D01*
Y87431D01*
X221931D01*
Y87346D01*
X222699D01*
Y87261D01*
X223467D01*
Y87175D01*
X224150D01*
Y87090D01*
X224918D01*
Y87005D01*
X225686D01*
Y86919D01*
X226369D01*
Y86834D01*
X227137D01*
Y86749D01*
X228161D01*
Y86663D01*
X229356D01*
Y86749D01*
X230038D01*
Y86834D01*
X230380D01*
Y86919D01*
X230636D01*
Y87005D01*
X230807D01*
Y87090D01*
X230977D01*
Y87175D01*
X231148D01*
Y87261D01*
X231233D01*
Y87346D01*
X231318D01*
Y87431D01*
X231489D01*
Y87517D01*
X231574D01*
Y87602D01*
X231660D01*
Y87687D01*
X231745D01*
Y87858D01*
X231831D01*
Y87943D01*
X231916D01*
Y88029D01*
X232001D01*
Y88114D01*
X232087D01*
Y88285D01*
X232172D01*
Y88455D01*
X232257D01*
Y88541D01*
X232343D01*
Y88711D01*
X232428D01*
Y88882D01*
X232513D01*
Y89053D01*
X232599D01*
Y89223D01*
X232684D01*
Y89394D01*
X232769D01*
Y89565D01*
X232855D01*
Y89735D01*
X232940D01*
Y89906D01*
X233025D01*
Y90162D01*
X233111D01*
Y90333D01*
X233196D01*
Y90418D01*
X233281D01*
Y90589D01*
X233367D01*
Y90674D01*
X233452D01*
Y90759D01*
X233623D01*
Y90845D01*
X233793D01*
Y90930D01*
X234049D01*
Y91016D01*
X235074D01*
Y90930D01*
X236610D01*
Y90845D01*
X238231D01*
Y90759D01*
X239938D01*
Y90674D01*
X241559D01*
Y90589D01*
X243181D01*
Y90504D01*
X244802D01*
Y90418D01*
X246253D01*
Y90333D01*
X247704D01*
Y90247D01*
X248984D01*
Y90162D01*
X250264D01*
Y90077D01*
X251459D01*
Y89992D01*
X252568D01*
Y89906D01*
X253592D01*
Y89821D01*
X254617D01*
Y89735D01*
X255641D01*
Y89650D01*
X256665D01*
Y89565D01*
X257603D01*
Y89479D01*
X258542D01*
Y89394D01*
X259396D01*
Y89309D01*
X260334D01*
Y89223D01*
X261188D01*
Y89138D01*
X262041D01*
Y89053D01*
X262894D01*
Y88967D01*
X263662D01*
Y88882D01*
X264516D01*
Y88797D01*
X265284D01*
Y88711D01*
X266052D01*
Y88626D01*
X266820D01*
Y88541D01*
X267503D01*
Y88455D01*
X268271D01*
Y88370D01*
X268954D01*
Y88285D01*
X269722D01*
Y88199D01*
X270404D01*
Y88114D01*
X271087D01*
Y88029D01*
X271770D01*
Y87943D01*
X272453D01*
Y87858D01*
X273050D01*
Y87773D01*
X273733D01*
Y87687D01*
X274330D01*
Y87602D01*
X275013D01*
Y87517D01*
X275610D01*
Y87431D01*
X276208D01*
Y87346D01*
X276805D01*
Y87261D01*
X277402D01*
Y87175D01*
X278000D01*
Y87090D01*
X278597D01*
Y87005D01*
X279195D01*
Y86919D01*
X279792D01*
Y86834D01*
X280304D01*
Y86749D01*
X280901D01*
Y86663D01*
X281413D01*
Y86578D01*
X282011D01*
Y86493D01*
X282523D01*
Y86407D01*
X283035D01*
Y86322D01*
X283632D01*
Y86236D01*
X284144D01*
Y86151D01*
X284656D01*
Y86066D01*
X285168D01*
Y85980D01*
X285680D01*
Y85895D01*
X286192D01*
Y85810D01*
X286705D01*
Y85724D01*
X287131D01*
Y85639D01*
X287643D01*
Y85554D01*
X288155D01*
Y85468D01*
X288582D01*
Y85383D01*
X289094D01*
Y85298D01*
X289606D01*
Y85212D01*
X290033D01*
Y85127D01*
X290545D01*
Y85042D01*
X290972D01*
Y84956D01*
X291398D01*
Y84871D01*
X291910D01*
Y84786D01*
X292337D01*
Y84700D01*
X292764D01*
Y84615D01*
X293190D01*
Y84530D01*
X293617D01*
Y84444D01*
X294129D01*
Y84359D01*
X294556D01*
Y84274D01*
X294982D01*
Y84188D01*
X295409D01*
Y84103D01*
X295836D01*
Y84018D01*
X296263D01*
Y83932D01*
X296689D01*
Y83847D01*
X297031D01*
Y83762D01*
X297457D01*
Y83676D01*
X297884D01*
Y83591D01*
X298311D01*
Y83506D01*
X298738D01*
Y83420D01*
X299079D01*
Y83335D01*
X299506D01*
Y83250D01*
X299932D01*
Y83164D01*
X300274D01*
Y83079D01*
X300700D01*
Y82993D01*
X301042D01*
Y82908D01*
X301468D01*
Y82823D01*
X301810D01*
Y82738D01*
X302236D01*
Y82652D01*
X302578D01*
Y82567D01*
X303004D01*
Y82481D01*
X303346D01*
Y82396D01*
X303773D01*
Y82311D01*
X304114D01*
Y82226D01*
X304455D01*
Y82140D01*
X304882D01*
Y82055D01*
X305223D01*
Y81969D01*
X305565D01*
Y81884D01*
X305906D01*
Y81799D01*
X306333D01*
Y81713D01*
X306674D01*
Y81628D01*
X307015D01*
Y81543D01*
X307357D01*
Y81457D01*
X307698D01*
Y81372D01*
X308040D01*
Y81287D01*
X308381D01*
Y81201D01*
X308722D01*
Y81116D01*
X309064D01*
Y81031D01*
X309405D01*
Y80945D01*
X309746D01*
Y80860D01*
X310088D01*
Y80775D01*
X310429D01*
Y80689D01*
X310770D01*
Y80604D01*
X311112D01*
Y80519D01*
X311453D01*
Y80433D01*
X311794D01*
Y80348D01*
X312136D01*
Y80263D01*
X312392D01*
Y80177D01*
X312733D01*
Y80092D01*
X313075D01*
Y80007D01*
X313416D01*
Y79921D01*
X313757D01*
Y79836D01*
X314013D01*
Y79751D01*
X314355D01*
Y79665D01*
X314696D01*
Y79580D01*
X314952D01*
Y79495D01*
X315294D01*
Y79409D01*
X315635D01*
Y79324D01*
X315891D01*
Y79239D01*
X316232D01*
Y79153D01*
X316488D01*
Y79068D01*
X316830D01*
Y78983D01*
X317086D01*
Y78897D01*
X317427D01*
Y78812D01*
X317683D01*
Y78727D01*
X318024D01*
Y78641D01*
X318280D01*
Y78556D01*
X318622D01*
Y78471D01*
X318878D01*
Y78385D01*
X319219D01*
Y78300D01*
X319475D01*
Y78215D01*
X319816D01*
Y78129D01*
X320073D01*
Y78044D01*
X320329D01*
Y77958D01*
X320670D01*
Y77873D01*
X320926D01*
Y77788D01*
X321182D01*
Y77702D01*
X321523D01*
Y77617D01*
X321779D01*
Y77532D01*
X322035D01*
Y77446D01*
X322291D01*
Y77361D01*
X322633D01*
Y77276D01*
X322889D01*
Y77190D01*
X323145D01*
Y77105D01*
X323401D01*
Y77020D01*
X323657D01*
Y76934D01*
X323913D01*
Y76849D01*
X324254D01*
Y76764D01*
X324510D01*
Y76678D01*
X324766D01*
Y76593D01*
X325022D01*
Y76508D01*
X325278D01*
Y76422D01*
X325534D01*
Y76337D01*
X325790D01*
Y76252D01*
X326046D01*
Y76166D01*
X326302D01*
Y76081D01*
X326558D01*
Y75996D01*
X326814D01*
Y75910D01*
X327071D01*
Y75825D01*
X327327D01*
Y75740D01*
X327583D01*
Y75654D01*
X327839D01*
Y75569D01*
X328094D01*
Y75484D01*
X328351D01*
Y75398D01*
X328607D01*
Y75313D01*
X328863D01*
Y75228D01*
X329119D01*
Y75142D01*
X329375D01*
Y75057D01*
X329631D01*
Y74972D01*
X329887D01*
Y74886D01*
X330057D01*
Y74801D01*
X330313D01*
Y74715D01*
X330569D01*
Y74630D01*
X330825D01*
Y74545D01*
X331082D01*
Y74460D01*
X331338D01*
Y74374D01*
X331508D01*
Y74289D01*
X331764D01*
Y74204D01*
X332020D01*
Y74118D01*
X332276D01*
Y74033D01*
X332447D01*
Y73948D01*
X332703D01*
Y73862D01*
X332959D01*
Y73777D01*
X333215D01*
Y73691D01*
X333386D01*
Y73606D01*
X333642D01*
Y73521D01*
X333898D01*
Y73435D01*
X334068D01*
Y73350D01*
X334324D01*
Y73265D01*
X334580D01*
Y73179D01*
X334751D01*
Y73094D01*
X335007D01*
Y73009D01*
X335263D01*
Y72923D01*
X335434D01*
Y72838D01*
X335690D01*
Y72753D01*
X335860D01*
Y72667D01*
X336116D01*
Y72582D01*
X336287D01*
Y72497D01*
X336543D01*
Y72411D01*
X336799D01*
Y72326D01*
X336970D01*
Y72241D01*
X337226D01*
Y72155D01*
X337397D01*
Y72070D01*
X337653D01*
Y71985D01*
X337823D01*
Y71899D01*
X338079D01*
Y71814D01*
X338250D01*
Y71729D01*
X338506D01*
Y71643D01*
X338677D01*
Y71558D01*
X338933D01*
Y71473D01*
X339104D01*
Y71387D01*
X339274D01*
Y71302D01*
X339530D01*
Y71217D01*
X339701D01*
Y71131D01*
X339957D01*
Y71046D01*
X340127D01*
Y70960D01*
X340298D01*
Y70875D01*
X340554D01*
Y70790D01*
X340725D01*
Y70704D01*
X340896D01*
Y70619D01*
X341152D01*
Y70534D01*
X341322D01*
Y70448D01*
X341493D01*
Y70363D01*
X341664D01*
Y70278D01*
X341920D01*
Y70192D01*
X342090D01*
Y70107D01*
X342261D01*
Y70022D01*
X342517D01*
Y69936D01*
X342688D01*
Y69851D01*
X342858D01*
Y69766D01*
X343029D01*
Y69680D01*
X343200D01*
Y69595D01*
X343456D01*
Y69510D01*
X343627D01*
Y69424D01*
X343797D01*
Y69339D01*
X343968D01*
Y69254D01*
X344139D01*
Y69168D01*
X344309D01*
Y69083D01*
X344565D01*
Y68998D01*
X344736D01*
Y68912D01*
X344907D01*
Y68827D01*
X345077D01*
Y68742D01*
X345248D01*
Y68656D01*
X345419D01*
Y68571D01*
X345589D01*
Y68486D01*
X345760D01*
Y68400D01*
X346016D01*
Y68315D01*
X346187D01*
Y68230D01*
X346357D01*
Y68144D01*
X346528D01*
Y68059D01*
X346699D01*
Y67974D01*
X346869D01*
Y67888D01*
X347040D01*
Y67803D01*
X347211D01*
Y67718D01*
X347382D01*
Y67632D01*
X347552D01*
Y67547D01*
X347723D01*
Y67462D01*
X347893D01*
Y67376D01*
X348064D01*
Y67291D01*
X348235D01*
Y67206D01*
X348406D01*
Y67120D01*
X348576D01*
Y67035D01*
X348662D01*
Y66950D01*
X348832D01*
Y66864D01*
X348918D01*
Y66779D01*
X349003D01*
Y66694D01*
X349088D01*
Y66608D01*
X349174D01*
Y66523D01*
X349259D01*
Y66438D01*
X349344D01*
Y66182D01*
X349430D01*
Y65840D01*
X349515D01*
Y65584D01*
X349430D01*
Y65243D01*
X349344D01*
Y64987D01*
X349259D01*
Y64731D01*
X349174D01*
Y64560D01*
X349088D01*
Y64389D01*
X349003D01*
Y64219D01*
X348918D01*
Y64048D01*
X348832D01*
Y63963D01*
X348747D01*
Y63792D01*
X348662D01*
Y63621D01*
X348576D01*
Y63536D01*
X348491D01*
Y63365D01*
X348406D01*
Y63280D01*
X348320D01*
Y63195D01*
X348235D01*
Y63024D01*
X348149D01*
Y62939D01*
X348064D01*
Y62853D01*
X347979D01*
Y62768D01*
X347893D01*
Y62597D01*
X347808D01*
Y62512D01*
X347723D01*
Y62427D01*
X347637D01*
Y62341D01*
X347552D01*
Y62256D01*
X347467D01*
Y62171D01*
X347382D01*
Y62085D01*
X347296D01*
Y62000D01*
X347211D01*
Y61915D01*
X347126D01*
Y61829D01*
X347040D01*
Y61744D01*
X346955D01*
Y61658D01*
X346869D01*
Y61573D01*
X346784D01*
Y61488D01*
X346699D01*
Y61402D01*
X346613D01*
Y61317D01*
X346528D01*
Y61232D01*
X346443D01*
Y61146D01*
X346357D01*
Y61061D01*
X346272D01*
Y60976D01*
X346187D01*
Y60890D01*
X346101D01*
Y60805D01*
X346016D01*
Y60720D01*
X345931D01*
Y60634D01*
X345845D01*
Y60549D01*
X345675D01*
Y60464D01*
X345589D01*
Y60378D01*
X345504D01*
Y60293D01*
X345419D01*
Y60208D01*
X345333D01*
Y60122D01*
X345248D01*
Y60037D01*
X345077D01*
Y59952D01*
X344992D01*
Y59866D01*
X344907D01*
Y59781D01*
X344821D01*
Y59696D01*
X344651D01*
Y59610D01*
X344565D01*
Y59525D01*
X344480D01*
Y59440D01*
X344309D01*
Y59354D01*
X344224D01*
Y59269D01*
X344139D01*
Y59184D01*
X343968D01*
Y59098D01*
X343882D01*
Y59013D01*
X343797D01*
Y58927D01*
X343627D01*
Y58842D01*
X343541D01*
Y58757D01*
X343456D01*
Y58671D01*
X343285D01*
Y58586D01*
X343200D01*
Y58501D01*
X343029D01*
Y58415D01*
X342944D01*
Y58330D01*
X342773D01*
Y58245D01*
X342688D01*
Y58159D01*
X342517D01*
Y58074D01*
X342432D01*
Y57989D01*
X342346D01*
Y57903D01*
X342176D01*
Y57818D01*
X342090D01*
Y57733D01*
X341920D01*
Y57647D01*
X341834D01*
Y57562D01*
X341664D01*
Y57477D01*
X341578D01*
Y57391D01*
X341408D01*
Y57306D01*
X341237D01*
Y57221D01*
X341152D01*
Y57135D01*
X340981D01*
Y57050D01*
X340896D01*
Y56965D01*
X340725D01*
Y56879D01*
X340640D01*
Y56794D01*
X340469D01*
Y56709D01*
X340384D01*
Y56623D01*
X340213D01*
Y56538D01*
X340042D01*
Y56453D01*
X339957D01*
Y56367D01*
X339786D01*
Y56282D01*
X339616D01*
Y56197D01*
X339530D01*
Y56111D01*
X339360D01*
Y56026D01*
X339274D01*
Y55941D01*
X339104D01*
Y55855D01*
X338933D01*
Y55770D01*
X338848D01*
Y55685D01*
X338677D01*
Y55599D01*
X338506D01*
Y55514D01*
X338421D01*
Y55429D01*
X338250D01*
Y55343D01*
X338079D01*
Y55258D01*
X337909D01*
Y55173D01*
X337823D01*
Y55087D01*
X337653D01*
Y55002D01*
X337482D01*
Y54917D01*
X337311D01*
Y54831D01*
X337226D01*
Y54746D01*
X337055D01*
Y54661D01*
X336885D01*
Y54575D01*
X336714D01*
Y54490D01*
X336629D01*
Y54405D01*
X336458D01*
Y54319D01*
X336287D01*
Y54234D01*
X336116D01*
Y54149D01*
X335946D01*
Y54063D01*
X335860D01*
Y53978D01*
X335690D01*
Y53892D01*
X335519D01*
Y53807D01*
X335349D01*
Y53722D01*
X335178D01*
Y53636D01*
X335007D01*
Y53551D01*
X334922D01*
Y53466D01*
X334751D01*
Y53380D01*
X334580D01*
Y53295D01*
X334410D01*
Y53210D01*
X334239D01*
Y53124D01*
X334068D01*
Y53039D01*
X333898D01*
Y52954D01*
X333727D01*
Y52868D01*
X333556D01*
Y52783D01*
X333386D01*
Y52698D01*
X333215D01*
Y52612D01*
X333044D01*
Y52527D01*
X332959D01*
Y52442D01*
X332788D01*
Y52356D01*
X332618D01*
Y52271D01*
X332447D01*
Y52186D01*
X332276D01*
Y52100D01*
X332106D01*
Y52015D01*
X331935D01*
Y51930D01*
X331764D01*
Y51844D01*
X331594D01*
Y51759D01*
X331423D01*
Y51674D01*
X331252D01*
Y51588D01*
X330996D01*
Y51503D01*
X330825D01*
Y51418D01*
X330655D01*
Y51332D01*
X330484D01*
Y51247D01*
X330313D01*
Y51162D01*
X330143D01*
Y51076D01*
X329972D01*
Y50991D01*
X329801D01*
Y50906D01*
X329631D01*
Y50820D01*
X329460D01*
Y50735D01*
X329289D01*
Y50649D01*
X329119D01*
Y50564D01*
X328863D01*
Y50479D01*
X328692D01*
Y50394D01*
X328521D01*
Y50308D01*
X328351D01*
Y50223D01*
X328180D01*
Y50138D01*
X328009D01*
Y50052D01*
X327839D01*
Y49967D01*
X327668D01*
Y49882D01*
X327412D01*
Y49796D01*
X327241D01*
Y49711D01*
X327071D01*
Y49626D01*
X326900D01*
Y49540D01*
X326729D01*
Y49455D01*
X326473D01*
Y49369D01*
X326302D01*
Y49284D01*
X326132D01*
Y49199D01*
X325961D01*
Y49113D01*
X325790D01*
Y49028D01*
X325534D01*
Y48943D01*
X325364D01*
Y48857D01*
X325193D01*
Y48772D01*
X325022D01*
Y48687D01*
X324852D01*
Y48601D01*
X324596D01*
Y48516D01*
X324425D01*
Y48431D01*
X324254D01*
Y48345D01*
X324084D01*
Y48260D01*
X323828D01*
Y48175D01*
X323572D01*
Y48089D01*
X323230D01*
Y48004D01*
X322718D01*
Y47919D01*
X321865D01*
Y48601D01*
X322291D01*
Y48687D01*
X322974D01*
Y48772D01*
X323401D01*
Y48857D01*
X323657D01*
Y48943D01*
X323828D01*
Y49028D01*
X323998D01*
Y49113D01*
X324169D01*
Y49199D01*
X324425D01*
Y49284D01*
X324596D01*
Y49369D01*
X324766D01*
Y49455D01*
X324937D01*
Y49540D01*
X325193D01*
Y49626D01*
X325364D01*
Y49711D01*
X325534D01*
Y49796D01*
X325705D01*
Y49882D01*
X325876D01*
Y49967D01*
X326132D01*
Y50052D01*
X326302D01*
Y50138D01*
X326473D01*
Y50223D01*
X326644D01*
Y50308D01*
X326814D01*
Y50394D01*
X326985D01*
Y50479D01*
X327241D01*
Y50564D01*
X327412D01*
Y50649D01*
X327583D01*
Y50735D01*
X327753D01*
Y50820D01*
X327924D01*
Y50906D01*
X328094D01*
Y50991D01*
X328265D01*
Y51076D01*
X328521D01*
Y51162D01*
X328692D01*
Y51247D01*
X328863D01*
Y51332D01*
X329033D01*
Y51418D01*
X329204D01*
Y51503D01*
X329375D01*
Y51588D01*
X329545D01*
Y51674D01*
X329716D01*
Y51759D01*
X329887D01*
Y51844D01*
X330057D01*
Y51930D01*
X330228D01*
Y52015D01*
X330484D01*
Y52100D01*
X330655D01*
Y52186D01*
X330825D01*
Y52271D01*
X330996D01*
Y52356D01*
X331167D01*
Y52442D01*
X331338D01*
Y52527D01*
X331508D01*
Y52612D01*
X331679D01*
Y52698D01*
X331850D01*
Y52783D01*
X332020D01*
Y52868D01*
X332191D01*
Y52954D01*
X332362D01*
Y53039D01*
X332532D01*
Y53124D01*
X332703D01*
Y53210D01*
X332874D01*
Y53295D01*
X333044D01*
Y53380D01*
X333130D01*
Y53466D01*
X333300D01*
Y53551D01*
X333471D01*
Y53636D01*
X333642D01*
Y53722D01*
X333812D01*
Y53807D01*
X333983D01*
Y53892D01*
X334154D01*
Y53978D01*
X334324D01*
Y54063D01*
X334495D01*
Y54149D01*
X334666D01*
Y54234D01*
X334751D01*
Y54319D01*
X334922D01*
Y54405D01*
X335093D01*
Y54490D01*
X335263D01*
Y54575D01*
X335434D01*
Y54661D01*
X335605D01*
Y54746D01*
X335690D01*
Y54831D01*
X335860D01*
Y54917D01*
X336031D01*
Y55002D01*
X336202D01*
Y55087D01*
X336373D01*
Y55173D01*
X336458D01*
Y55258D01*
X336629D01*
Y55343D01*
X336799D01*
Y55429D01*
X336970D01*
Y55514D01*
X337055D01*
Y55599D01*
X337226D01*
Y55685D01*
X337397D01*
Y55770D01*
X337567D01*
Y55855D01*
X337653D01*
Y55941D01*
X337823D01*
Y56026D01*
X337994D01*
Y56111D01*
X338165D01*
Y56197D01*
X338250D01*
Y56282D01*
X338421D01*
Y56367D01*
X338591D01*
Y56453D01*
X338677D01*
Y56538D01*
X338848D01*
Y56623D01*
X339018D01*
Y56709D01*
X339104D01*
Y56794D01*
X339274D01*
Y56879D01*
X339360D01*
Y56965D01*
X339530D01*
Y57050D01*
X339701D01*
Y57135D01*
X339786D01*
Y57221D01*
X339957D01*
Y57306D01*
X340042D01*
Y57391D01*
X340213D01*
Y57477D01*
X340384D01*
Y57562D01*
X340469D01*
Y57647D01*
X340640D01*
Y57733D01*
X340725D01*
Y57818D01*
X340896D01*
Y57903D01*
X340981D01*
Y57989D01*
X341152D01*
Y58074D01*
X341237D01*
Y58159D01*
X341408D01*
Y58245D01*
X341493D01*
Y58330D01*
X341664D01*
Y58415D01*
X341749D01*
Y58501D01*
X341920D01*
Y58586D01*
X342005D01*
Y58671D01*
X342176D01*
Y58757D01*
X342261D01*
Y58842D01*
X342432D01*
Y58927D01*
X342517D01*
Y59013D01*
X342688D01*
Y59098D01*
X342773D01*
Y59184D01*
X342858D01*
Y59269D01*
X343029D01*
Y59354D01*
X343115D01*
Y59440D01*
X343285D01*
Y59525D01*
X343371D01*
Y59610D01*
X343456D01*
Y59696D01*
X343627D01*
Y59781D01*
X343712D01*
Y59866D01*
X343797D01*
Y59952D01*
X343968D01*
Y60037D01*
X344053D01*
Y60122D01*
X344139D01*
Y60208D01*
X344309D01*
Y60293D01*
X344395D01*
Y60378D01*
X344480D01*
Y60464D01*
X344565D01*
Y60549D01*
X344736D01*
Y60634D01*
X344821D01*
Y60720D01*
X344907D01*
Y60805D01*
X344992D01*
Y60890D01*
X345077D01*
Y60976D01*
X345248D01*
Y61061D01*
X345333D01*
Y61146D01*
X345419D01*
Y61232D01*
X345504D01*
Y61317D01*
X345589D01*
Y61402D01*
X345675D01*
Y61488D01*
X345760D01*
Y61573D01*
X345845D01*
Y61658D01*
X346016D01*
Y61744D01*
X346101D01*
Y61829D01*
X346187D01*
Y61915D01*
X346272D01*
Y62000D01*
X346357D01*
Y62085D01*
X346443D01*
Y62171D01*
X346528D01*
Y62256D01*
X346613D01*
Y62341D01*
X346699D01*
Y62427D01*
X346784D01*
Y62597D01*
X346869D01*
Y62682D01*
X346955D01*
Y62768D01*
X347040D01*
Y62853D01*
X347126D01*
Y62939D01*
X347211D01*
Y63024D01*
X347296D01*
Y63109D01*
X347382D01*
Y63195D01*
X347467D01*
Y63365D01*
X347552D01*
Y63451D01*
X347637D01*
Y63536D01*
X347723D01*
Y63707D01*
X347808D01*
Y63792D01*
X347893D01*
Y63963D01*
X347979D01*
Y64048D01*
X348064D01*
Y64219D01*
X348149D01*
Y64304D01*
X348235D01*
Y64475D01*
X348320D01*
Y64645D01*
X348406D01*
Y64816D01*
X348491D01*
Y64987D01*
X348576D01*
Y65157D01*
X348662D01*
Y65413D01*
X348747D01*
Y66011D01*
X348662D01*
Y66096D01*
X348576D01*
Y66182D01*
X348491D01*
Y66267D01*
X348406D01*
Y66352D01*
X348320D01*
Y66438D01*
X348149D01*
Y66523D01*
X347979D01*
Y66608D01*
X347808D01*
Y66694D01*
X347637D01*
Y66779D01*
X347467D01*
Y66864D01*
X347296D01*
Y66950D01*
X347126D01*
Y67035D01*
X346955D01*
Y67120D01*
X346784D01*
Y67206D01*
X346613D01*
Y67291D01*
X346443D01*
Y67376D01*
X346272D01*
Y67462D01*
X346101D01*
Y67547D01*
X345931D01*
Y67632D01*
X345760D01*
Y67718D01*
X345589D01*
Y67803D01*
X345419D01*
Y67888D01*
X345163D01*
Y67974D01*
X344992D01*
Y68059D01*
X344821D01*
Y68144D01*
X344651D01*
Y68230D01*
X344480D01*
Y68315D01*
X344309D01*
Y68400D01*
X344139D01*
Y68486D01*
X343968D01*
Y68571D01*
X343712D01*
Y68656D01*
X343541D01*
Y68742D01*
X343371D01*
Y68827D01*
X343200D01*
Y68912D01*
X343029D01*
Y68998D01*
X342773D01*
Y69083D01*
X342602D01*
Y69168D01*
X342432D01*
Y69254D01*
X342261D01*
Y69339D01*
X342090D01*
Y69424D01*
X341834D01*
Y69510D01*
X341664D01*
Y69595D01*
X341493D01*
Y69680D01*
X341322D01*
Y69766D01*
X341066D01*
Y69851D01*
X340896D01*
Y69936D01*
X340725D01*
Y70022D01*
X340469D01*
Y70107D01*
X340298D01*
Y70192D01*
X340127D01*
Y70278D01*
X339871D01*
Y70363D01*
X339701D01*
Y70448D01*
X339530D01*
Y70534D01*
X339274D01*
Y70619D01*
X339104D01*
Y70704D01*
X338848D01*
Y70790D01*
X338677D01*
Y70875D01*
X338506D01*
Y70960D01*
X338250D01*
Y71046D01*
X338079D01*
Y71131D01*
X337823D01*
Y71217D01*
X337653D01*
Y71302D01*
X337397D01*
Y71387D01*
X337226D01*
Y71473D01*
X336970D01*
Y71558D01*
X336799D01*
Y71643D01*
X336543D01*
Y71729D01*
X336373D01*
Y71814D01*
X336116D01*
Y71899D01*
X335860D01*
Y71985D01*
X335690D01*
Y72070D01*
X335434D01*
Y72155D01*
X335263D01*
Y72241D01*
X335007D01*
Y72326D01*
X334751D01*
Y72411D01*
X334580D01*
Y72497D01*
X334324D01*
Y72582D01*
X334154D01*
Y72667D01*
X333898D01*
Y72753D01*
X333642D01*
Y72838D01*
X333471D01*
Y72923D01*
X333215D01*
Y73009D01*
X332959D01*
Y73094D01*
X332703D01*
Y73179D01*
X332532D01*
Y73265D01*
X332276D01*
Y73350D01*
X332020D01*
Y73435D01*
X331764D01*
Y73521D01*
X331594D01*
Y73606D01*
X331338D01*
Y73691D01*
X331082D01*
Y73777D01*
X330825D01*
Y73862D01*
X330655D01*
Y73948D01*
X330399D01*
Y74033D01*
X330143D01*
Y74118D01*
X329887D01*
Y74204D01*
X329631D01*
Y74289D01*
X329375D01*
Y74374D01*
X329119D01*
Y74460D01*
X328948D01*
Y74545D01*
X328692D01*
Y74630D01*
X328436D01*
Y74715D01*
X328180D01*
Y74801D01*
X327924D01*
Y74886D01*
X327668D01*
Y74972D01*
X327412D01*
Y75057D01*
X327156D01*
Y75142D01*
X326900D01*
Y75228D01*
X326644D01*
Y75313D01*
X326388D01*
Y75398D01*
X326132D01*
Y75484D01*
X325876D01*
Y75569D01*
X325620D01*
Y75654D01*
X325364D01*
Y75740D01*
X325108D01*
Y75825D01*
X324852D01*
Y75910D01*
X324596D01*
Y75996D01*
X324254D01*
Y76081D01*
X323998D01*
Y76166D01*
X323742D01*
Y76252D01*
X323486D01*
Y76337D01*
X323230D01*
Y76422D01*
X322974D01*
Y76508D01*
X322633D01*
Y76593D01*
X322377D01*
Y76678D01*
X322121D01*
Y76764D01*
X321865D01*
Y76849D01*
X321523D01*
Y76934D01*
X321267D01*
Y77020D01*
X321011D01*
Y77105D01*
X320755D01*
Y77190D01*
X320414D01*
Y77276D01*
X320158D01*
Y77361D01*
X319902D01*
Y77446D01*
X319561D01*
Y77532D01*
X319305D01*
Y77617D01*
X318963D01*
Y77702D01*
X318707D01*
Y77788D01*
X318451D01*
Y77873D01*
X318110D01*
Y77958D01*
X317854D01*
Y78044D01*
X317512D01*
Y78129D01*
X317256D01*
Y78215D01*
X316915D01*
Y78300D01*
X316659D01*
Y78385D01*
X316318D01*
Y78471D01*
X315976D01*
Y78556D01*
X315720D01*
Y78641D01*
X315379D01*
Y78727D01*
X315123D01*
Y78812D01*
X314781D01*
Y78897D01*
X314440D01*
Y78983D01*
X314184D01*
Y79068D01*
X313843D01*
Y79153D01*
X313501D01*
Y79239D01*
X313160D01*
Y79324D01*
X312904D01*
Y79409D01*
X312563D01*
Y79495D01*
X312221D01*
Y79580D01*
X311880D01*
Y79665D01*
X311539D01*
Y79751D01*
X311197D01*
Y79836D01*
X310941D01*
Y79921D01*
X310600D01*
Y80007D01*
X310258D01*
Y80092D01*
X309917D01*
Y80177D01*
X309576D01*
Y80263D01*
X309234D01*
Y80348D01*
X308893D01*
Y80433D01*
X308552D01*
Y80519D01*
X308210D01*
Y80604D01*
X307869D01*
Y80689D01*
X307528D01*
Y80775D01*
X307101D01*
Y80860D01*
X306759D01*
Y80945D01*
X306418D01*
Y81031D01*
X306077D01*
Y81116D01*
X305735D01*
Y81201D01*
X305394D01*
Y81287D01*
X304967D01*
Y81372D01*
X304626D01*
Y81457D01*
X304285D01*
Y81543D01*
X303858D01*
Y81628D01*
X303517D01*
Y81713D01*
X303175D01*
Y81799D01*
X302748D01*
Y81884D01*
X302407D01*
Y81969D01*
X301980D01*
Y82055D01*
X301639D01*
Y82140D01*
X301212D01*
Y82226D01*
X300871D01*
Y82311D01*
X300444D01*
Y82396D01*
X300103D01*
Y82481D01*
X299676D01*
Y82567D01*
X299249D01*
Y82652D01*
X298908D01*
Y82738D01*
X298481D01*
Y82823D01*
X298055D01*
Y82908D01*
X297628D01*
Y82993D01*
X297287D01*
Y83079D01*
X296860D01*
Y83164D01*
X296433D01*
Y83250D01*
X296007D01*
Y83335D01*
X295580D01*
Y83420D01*
X295153D01*
Y83506D01*
X294727D01*
Y83591D01*
X294300D01*
Y83676D01*
X293873D01*
Y83762D01*
X293446D01*
Y83847D01*
X292934D01*
Y83932D01*
X292508D01*
Y84018D01*
X292081D01*
Y84103D01*
X291654D01*
Y84188D01*
X291142D01*
Y84274D01*
X290715D01*
Y84359D01*
X290289D01*
Y84444D01*
X289777D01*
Y84530D01*
X289350D01*
Y84615D01*
X288838D01*
Y84700D01*
X288326D01*
Y84786D01*
X287899D01*
Y84871D01*
X287387D01*
Y84956D01*
X286875D01*
Y85042D01*
X286363D01*
Y85127D01*
X285936D01*
Y85212D01*
X285424D01*
Y85298D01*
X284912D01*
Y85383D01*
X284400D01*
Y85468D01*
X283803D01*
Y85554D01*
X283291D01*
Y85639D01*
X282779D01*
Y85724D01*
X282267D01*
Y85810D01*
X281669D01*
Y85895D01*
X281157D01*
Y85980D01*
X280560D01*
Y86066D01*
X280048D01*
Y86151D01*
X279450D01*
Y86236D01*
X278939D01*
Y86322D01*
X278341D01*
Y86407D01*
X277744D01*
Y86493D01*
X277146D01*
Y86578D01*
X276549D01*
Y86663D01*
X275952D01*
Y86749D01*
X275269D01*
Y86834D01*
X274671D01*
Y86919D01*
X274074D01*
Y87005D01*
X273391D01*
Y87090D01*
X272794D01*
Y87175D01*
X272111D01*
Y87261D01*
X271429D01*
Y87346D01*
X270746D01*
Y87431D01*
X270063D01*
Y87517D01*
X269380D01*
Y87602D01*
X268612D01*
Y87687D01*
X267930D01*
Y87773D01*
X267162D01*
Y87858D01*
X266393D01*
Y87943D01*
X265625D01*
Y88029D01*
X264857D01*
Y88114D01*
X264089D01*
Y88199D01*
X263321D01*
Y88285D01*
X262468D01*
Y88370D01*
X261614D01*
Y88455D01*
X260761D01*
Y88541D01*
X259908D01*
Y88626D01*
X258969D01*
Y88711D01*
X258030D01*
Y88797D01*
X257091D01*
Y88882D01*
X256153D01*
Y88967D01*
X255128D01*
Y89053D01*
X254104D01*
Y89138D01*
X253080D01*
Y89223D01*
X251971D01*
Y89309D01*
X250861D01*
Y89394D01*
X249667D01*
Y89479D01*
X248387D01*
Y89565D01*
X247021D01*
Y89650D01*
X245570D01*
Y89735D01*
X244034D01*
Y89821D01*
X242413D01*
Y89906D01*
X240791D01*
Y89992D01*
X239084D01*
Y90077D01*
X237463D01*
Y90162D01*
X235842D01*
Y90247D01*
X233964D01*
Y90162D01*
X233879D01*
Y90077D01*
X233793D01*
Y89906D01*
X233708D01*
Y89735D01*
X233623D01*
Y89479D01*
X233537D01*
Y89309D01*
X233452D01*
Y89138D01*
X233367D01*
Y88967D01*
X233281D01*
Y88797D01*
X233196D01*
Y88626D01*
X233111D01*
Y88455D01*
X233025D01*
Y88285D01*
X232940D01*
Y88114D01*
X232855D01*
Y88029D01*
X232769D01*
Y87858D01*
X232684D01*
Y87773D01*
X232599D01*
Y87602D01*
X232513D01*
Y87517D01*
X232428D01*
Y87431D01*
X232343D01*
Y87346D01*
X232257D01*
Y87261D01*
X232172D01*
Y87175D01*
X232087D01*
Y87090D01*
X232001D01*
Y87005D01*
X231916D01*
Y86919D01*
X231831D01*
Y86834D01*
X231745D01*
Y86749D01*
X231660D01*
Y86663D01*
X231489D01*
Y86578D01*
X231404D01*
Y86493D01*
X231233D01*
Y86407D01*
X231063D01*
Y86322D01*
X230807D01*
Y86236D01*
X230550D01*
Y86151D01*
X230294D01*
Y86066D01*
X229782D01*
Y85980D01*
X227649D01*
Y86066D01*
X226796D01*
Y86151D01*
X226027D01*
Y86236D01*
X225259D01*
Y86322D01*
X224577D01*
Y86407D01*
X223809D01*
Y86493D01*
X223041D01*
Y86578D01*
X222358D01*
Y86663D01*
X221590D01*
Y86749D01*
X220822D01*
Y86834D01*
X220139D01*
Y86919D01*
X219371D01*
Y87005D01*
X218688D01*
Y87090D01*
X217920D01*
Y87175D01*
X217237D01*
Y87261D01*
X216469D01*
Y87346D01*
X215787D01*
Y87431D01*
X215104D01*
Y87517D01*
X214421D01*
Y87602D01*
X213738D01*
Y87687D01*
X213056D01*
Y87773D01*
X212373D01*
Y87858D01*
X211690D01*
Y87943D01*
X211007D01*
Y88029D01*
X210325D01*
Y88114D01*
X209727D01*
Y88199D01*
X209045D01*
Y88285D01*
X208362D01*
Y88370D01*
X207765D01*
Y88455D01*
X207167D01*
Y88541D01*
X206485D01*
Y88626D01*
X205887D01*
Y88711D01*
X205290D01*
Y88797D01*
X204692D01*
Y88882D01*
X204095D01*
Y88967D01*
X203498D01*
Y89053D01*
X202900D01*
Y89138D01*
X202303D01*
Y89223D01*
X201705D01*
Y89309D01*
X201108D01*
Y89394D01*
X200511D01*
Y89479D01*
X199913D01*
Y89565D01*
X199316D01*
Y89650D01*
X198804D01*
Y89735D01*
X198207D01*
Y89821D01*
X197609D01*
Y89906D01*
X197012D01*
Y89992D01*
X196500D01*
Y90077D01*
X195902D01*
Y90162D01*
X195305D01*
Y90247D01*
X194793D01*
Y90333D01*
X194195D01*
Y90418D01*
X193683D01*
Y90504D01*
X193086D01*
Y90589D01*
X192489D01*
Y90674D01*
X191977D01*
Y90759D01*
X191379D01*
Y90845D01*
X190867D01*
Y90930D01*
X190270D01*
Y91016D01*
X189672D01*
Y91101D01*
X189160D01*
Y91186D01*
X188563D01*
Y91272D01*
X188051D01*
Y91357D01*
X187539D01*
Y91442D01*
X186942D01*
Y91528D01*
X186430D01*
Y91613D01*
X185832D01*
Y91698D01*
X185320D01*
Y91784D01*
X184808D01*
Y91869D01*
X184296D01*
Y91954D01*
X183784D01*
Y92040D01*
X183187D01*
Y92125D01*
X182675D01*
Y92210D01*
X182162D01*
Y92296D01*
X181650D01*
Y92381D01*
X181138D01*
Y92466D01*
X180626D01*
Y92552D01*
X180200D01*
Y92637D01*
X179688D01*
Y92722D01*
X179175D01*
Y92808D01*
X178664D01*
Y92893D01*
X178237D01*
Y92978D01*
X177725D01*
Y93064D01*
X177213D01*
Y93149D01*
X176786D01*
Y93234D01*
X176274D01*
Y93320D01*
X175847D01*
Y93405D01*
X175335D01*
Y93490D01*
X174909D01*
Y93576D01*
X174482D01*
Y93661D01*
X173970D01*
Y93746D01*
X173543D01*
Y93832D01*
X173116D01*
Y93917D01*
X172690D01*
Y94003D01*
X172263D01*
Y94088D01*
X171836D01*
Y94173D01*
X171410D01*
Y94258D01*
X170983D01*
Y94344D01*
X170556D01*
Y94429D01*
X170130D01*
Y94515D01*
X169703D01*
Y94600D01*
X169276D01*
Y94685D01*
X168935D01*
Y94770D01*
X168508D01*
Y94856D01*
X168081D01*
Y94941D01*
X167740D01*
Y95027D01*
X167313D01*
Y95112D01*
X166972D01*
Y95197D01*
X166630D01*
Y95283D01*
X166289D01*
Y95368D01*
X165948D01*
Y95453D01*
X165692D01*
Y95539D01*
X165350D01*
Y95624D01*
X165094D01*
Y95709D01*
X164753D01*
Y95795D01*
X164497D01*
Y95880D01*
X164241D01*
Y95965D01*
X163985D01*
Y96051D01*
X163729D01*
Y96136D01*
X163473D01*
Y96221D01*
X163217D01*
Y96307D01*
X163046D01*
Y96392D01*
X162790D01*
Y96477D01*
X162534D01*
Y96563D01*
X162363D01*
Y96648D01*
X162108D01*
Y96733D01*
X161937D01*
Y96819D01*
X161681D01*
Y96904D01*
X161510D01*
Y96989D01*
X161339D01*
Y97075D01*
X161083D01*
Y97160D01*
X160913D01*
Y97245D01*
X160742D01*
Y97331D01*
X160571D01*
Y97416D01*
X160401D01*
Y97501D01*
X160230D01*
Y97587D01*
X160059D01*
Y97672D01*
X159889D01*
Y97757D01*
X159718D01*
Y97843D01*
X159547D01*
Y97928D01*
X159462D01*
Y98013D01*
X159291D01*
Y98099D01*
X159121D01*
Y98184D01*
X159035D01*
Y98270D01*
X158864D01*
Y98355D01*
X158779D01*
Y98440D01*
X158609D01*
Y98525D01*
X158523D01*
Y98611D01*
X158352D01*
Y98696D01*
X158267D01*
Y98781D01*
X158097D01*
Y98867D01*
X158011D01*
Y98952D01*
X157926D01*
Y99038D01*
X157840D01*
Y99123D01*
X157755D01*
Y99208D01*
X157584D01*
Y99294D01*
X157499D01*
Y99379D01*
X157414D01*
Y99464D01*
X157328D01*
Y99550D01*
X157243D01*
Y99635D01*
X157158D01*
Y99720D01*
X157072D01*
Y99806D01*
X156987D01*
Y99891D01*
X156902D01*
Y100062D01*
X156816D01*
Y100147D01*
X156731D01*
Y100232D01*
X156646D01*
Y100403D01*
X156560D01*
Y100488D01*
X156475D01*
Y100659D01*
X156390D01*
Y100744D01*
X156304D01*
Y100915D01*
X156219D01*
Y101086D01*
X156134D01*
Y101256D01*
X156048D01*
Y101512D01*
X155963D01*
Y101768D01*
X155878D01*
Y102195D01*
X155792D01*
Y103390D01*
X155878D01*
Y103817D01*
X155963D01*
Y104073D01*
X156048D01*
Y104329D01*
X156134D01*
Y104499D01*
X156219D01*
Y104755D01*
X156304D01*
Y104926D01*
X156390D01*
Y105097D01*
X156475D01*
Y105182D01*
X156560D01*
Y105353D01*
X156646D01*
Y105438D01*
X156731D01*
Y105609D01*
X156816D01*
Y105694D01*
X156902D01*
Y105865D01*
X156987D01*
Y105950D01*
X157072D01*
Y106035D01*
X157158D01*
Y106121D01*
X157243D01*
Y106292D01*
X157328D01*
Y106377D01*
X157414D01*
Y106462D01*
X157499D01*
Y106547D01*
X157584D01*
Y106633D01*
X157670D01*
Y106804D01*
X157755D01*
Y106889D01*
X157840D01*
Y106974D01*
X157926D01*
Y107060D01*
X158011D01*
Y107145D01*
X158097D01*
Y107316D01*
X158182D01*
Y107401D01*
X158267D01*
Y107486D01*
X158352D01*
Y107572D01*
X158438D01*
Y107657D01*
X158523D01*
Y107742D01*
X158609D01*
Y107913D01*
X158694D01*
Y107998D01*
X158779D01*
Y108084D01*
X158864D01*
Y108169D01*
X158950D01*
Y108254D01*
X159035D01*
Y108425D01*
X159121D01*
Y108510D01*
X159206D01*
Y108596D01*
X159291D01*
Y108681D01*
X159377D01*
Y108766D01*
X159462D01*
Y108852D01*
X159547D01*
Y109022D01*
X159633D01*
Y109108D01*
X159718D01*
Y109193D01*
X159803D01*
Y109278D01*
X159889D01*
Y109364D01*
X159974D01*
Y109534D01*
X160059D01*
Y109620D01*
X160145D01*
Y109705D01*
X160230D01*
Y109790D01*
X160315D01*
Y109876D01*
X160401D01*
Y110047D01*
X160486D01*
Y110132D01*
X160571D01*
Y110217D01*
X160657D01*
Y110302D01*
X160742D01*
Y110388D01*
X160827D01*
Y110473D01*
X160913D01*
Y110644D01*
X160998D01*
Y110729D01*
X161083D01*
Y110815D01*
X161169D01*
Y110900D01*
X161254D01*
Y110985D01*
X161339D01*
Y111156D01*
X161425D01*
Y111241D01*
X161510D01*
Y111327D01*
X161595D01*
Y111412D01*
X161681D01*
Y111497D01*
X161766D01*
Y111668D01*
X161851D01*
Y111753D01*
X161937D01*
Y111839D01*
X162022D01*
Y111924D01*
X162108D01*
Y112009D01*
X162193D01*
Y112180D01*
X162278D01*
Y112265D01*
X162363D01*
Y112351D01*
X162449D01*
Y112436D01*
X162534D01*
Y112521D01*
X162619D01*
Y112692D01*
X162705D01*
Y112777D01*
X162790D01*
Y112863D01*
X162875D01*
Y112948D01*
X162961D01*
Y113119D01*
X163046D01*
Y113204D01*
X163132D01*
Y113289D01*
X163217D01*
Y113375D01*
X163302D01*
Y113545D01*
X163388D01*
Y113631D01*
X163473D01*
Y113716D01*
X163558D01*
Y113801D01*
X163644D01*
Y113972D01*
X163729D01*
Y114058D01*
X163814D01*
Y114143D01*
X163900D01*
Y114228D01*
X163985D01*
Y114313D01*
X164070D01*
Y114484D01*
X164156D01*
Y114570D01*
X164241D01*
Y114655D01*
X164326D01*
Y114740D01*
X164412D01*
Y114911D01*
X164497D01*
Y114996D01*
X164582D01*
Y115082D01*
X164668D01*
Y115167D01*
X164753D01*
Y115252D01*
X164838D01*
Y115423D01*
X164924D01*
Y115508D01*
X165009D01*
Y115594D01*
X165094D01*
Y115679D01*
X165180D01*
Y115764D01*
X165265D01*
Y115935D01*
X165350D01*
Y116020D01*
X165436D01*
Y116106D01*
X165521D01*
Y116191D01*
X165606D01*
Y116276D01*
X165094D01*
Y116362D01*
X164070D01*
Y116447D01*
X162705D01*
Y116532D01*
X157243D01*
Y116447D01*
X155707D01*
Y116362D01*
X154598D01*
Y116276D01*
X153659D01*
Y116191D01*
X152805D01*
Y116106D01*
X152037D01*
Y116020D01*
X151355D01*
Y115935D01*
X150672D01*
Y115850D01*
X150075D01*
Y115764D01*
X149477D01*
Y115679D01*
X148880D01*
Y115594D01*
X148368D01*
Y115508D01*
X147856D01*
Y115423D01*
X147344D01*
Y115338D01*
X146832D01*
Y115252D01*
X146405D01*
Y115167D01*
X145893D01*
Y115082D01*
X145466D01*
Y114996D01*
X145039D01*
Y114911D01*
X144613D01*
Y114825D01*
X144186D01*
Y114740D01*
X143759D01*
Y114655D01*
X143418D01*
Y114570D01*
X142991D01*
Y114484D01*
X142650D01*
Y114399D01*
X142223D01*
Y114313D01*
X141882D01*
Y114228D01*
X141540D01*
Y114143D01*
X141199D01*
Y114058D01*
X140858D01*
Y113972D01*
X140516D01*
Y113887D01*
X140175D01*
Y113801D01*
X139834D01*
Y113716D01*
X139492D01*
Y113631D01*
X139151D01*
Y113545D01*
X138809D01*
Y113460D01*
X138553D01*
Y113375D01*
X138212D01*
Y113289D01*
X137956D01*
Y113204D01*
X137615D01*
Y113119D01*
X137273D01*
Y113033D01*
X137017D01*
Y112948D01*
X136761D01*
Y112863D01*
X136420D01*
Y112777D01*
X136164D01*
Y112692D01*
X135823D01*
Y112607D01*
X135567D01*
Y112521D01*
X135311D01*
Y112436D01*
X135055D01*
Y112351D01*
X134713D01*
Y112265D01*
X134457D01*
Y112180D01*
X134201D01*
Y112095D01*
X133945D01*
Y112009D01*
X133689D01*
Y111924D01*
X133433D01*
Y111839D01*
X133177D01*
Y111753D01*
X132921D01*
Y111668D01*
X132665D01*
Y111583D01*
X132409D01*
Y111497D01*
X132153D01*
Y111412D01*
X131897D01*
Y111327D01*
X131641D01*
Y111241D01*
X131385D01*
Y111156D01*
X131129D01*
Y111070D01*
X130873D01*
Y110985D01*
X130702D01*
Y110900D01*
X130446D01*
Y110815D01*
X130190D01*
Y110729D01*
X129934D01*
Y110644D01*
X129678D01*
Y110559D01*
X129507D01*
Y110473D01*
X129251D01*
Y110388D01*
X128995D01*
Y110302D01*
X128825D01*
Y110217D01*
X128569D01*
Y110132D01*
X128313D01*
Y110047D01*
X128142D01*
Y109961D01*
X127886D01*
Y109876D01*
X127630D01*
Y109790D01*
X127459D01*
Y109705D01*
X127203D01*
Y109620D01*
X127033D01*
Y109534D01*
X126777D01*
Y109449D01*
X126606D01*
Y109364D01*
X126350D01*
Y109278D01*
X126179D01*
Y109193D01*
X125923D01*
Y109108D01*
X125752D01*
Y109022D01*
X125496D01*
Y108937D01*
X125326D01*
Y108852D01*
X125070D01*
Y108766D01*
X124899D01*
Y108681D01*
X124643D01*
Y108596D01*
X124472D01*
Y108510D01*
X124216D01*
Y108425D01*
X124046D01*
Y108340D01*
X123875D01*
Y108254D01*
X123619D01*
Y108169D01*
X123448D01*
Y108084D01*
X123192D01*
Y107998D01*
X123021D01*
Y107913D01*
X122851D01*
Y107828D01*
X122595D01*
Y107742D01*
X122424D01*
Y107657D01*
X122168D01*
Y107572D01*
X121997D01*
Y107486D01*
X121827D01*
Y107401D01*
X121571D01*
Y107316D01*
X121400D01*
Y107230D01*
X121229D01*
Y107145D01*
X120973D01*
Y107060D01*
X120803D01*
Y106974D01*
X120632D01*
Y106889D01*
X120376D01*
Y106804D01*
X120205D01*
Y106718D01*
X120035D01*
Y106633D01*
X119779D01*
Y106547D01*
X119608D01*
Y106462D01*
X119437D01*
Y106377D01*
X119181D01*
Y106292D01*
X119011D01*
Y106206D01*
X118840D01*
Y106121D01*
X118669D01*
Y106035D01*
X118413D01*
Y105950D01*
X118243D01*
Y105865D01*
X118072D01*
Y105779D01*
X117816D01*
Y105694D01*
X117645D01*
Y105609D01*
X117474D01*
Y105523D01*
X117304D01*
Y105438D01*
X117048D01*
Y105353D01*
X116877D01*
Y105267D01*
X116706D01*
Y105182D01*
X116536D01*
Y105097D01*
X116280D01*
Y105011D01*
X116109D01*
Y104926D01*
X115938D01*
Y104841D01*
X115768D01*
Y104755D01*
X115512D01*
Y104670D01*
X115341D01*
Y104585D01*
X115170D01*
Y104499D01*
X115000D01*
Y104414D01*
X114743D01*
Y104329D01*
X114573D01*
Y104243D01*
X114402D01*
Y104158D01*
X114232D01*
Y104073D01*
X114061D01*
Y103987D01*
X113805D01*
Y103902D01*
X113634D01*
Y103817D01*
X113463D01*
Y103731D01*
X113293D01*
Y103646D01*
X113122D01*
Y103561D01*
X112866D01*
Y103475D01*
X112695D01*
Y103390D01*
X112525D01*
Y103305D01*
X112354D01*
Y103219D01*
X112183D01*
Y103134D01*
X111927D01*
Y103048D01*
X111757D01*
Y102963D01*
X111586D01*
Y102878D01*
X111415D01*
Y102793D01*
X111245D01*
Y102707D01*
X111074D01*
Y102622D01*
X110818D01*
Y102536D01*
X110647D01*
Y102451D01*
X110477D01*
Y102366D01*
X110306D01*
Y102281D01*
X110135D01*
Y102195D01*
X109965D01*
Y102110D01*
X109794D01*
Y102024D01*
X109538D01*
Y101939D01*
X109367D01*
Y101854D01*
X109196D01*
Y101768D01*
X109026D01*
Y101683D01*
X108855D01*
Y101598D01*
X108684D01*
Y101512D01*
X108514D01*
Y101427D01*
X108258D01*
Y101342D01*
X108087D01*
Y101256D01*
X107916D01*
Y101171D01*
X107746D01*
Y101086D01*
X107575D01*
Y101000D01*
X107404D01*
Y100915D01*
X107234D01*
Y100830D01*
X107063D01*
Y100744D01*
X106807D01*
Y100659D01*
X106636D01*
Y100574D01*
X106466D01*
Y100488D01*
X106295D01*
Y100403D01*
X106124D01*
Y100318D01*
X105954D01*
Y100232D01*
X105783D01*
Y100147D01*
X105612D01*
Y100062D01*
X105441D01*
Y99976D01*
X105271D01*
Y99891D01*
X105015D01*
Y99806D01*
X104844D01*
Y99720D01*
X104673D01*
Y99635D01*
X104503D01*
Y99550D01*
X104332D01*
Y99464D01*
X104161D01*
Y99379D01*
X103991D01*
Y99294D01*
X103820D01*
Y99208D01*
X103649D01*
Y99123D01*
X103479D01*
Y99038D01*
X103308D01*
Y98952D01*
X103137D01*
Y98867D01*
X102967D01*
Y98781D01*
X102711D01*
Y98696D01*
X102540D01*
Y98611D01*
X102369D01*
Y98525D01*
X102198D01*
Y98440D01*
X102028D01*
Y98355D01*
X101857D01*
Y98270D01*
X101686D01*
Y98184D01*
X101516D01*
Y98099D01*
X101345D01*
Y98013D01*
X101174D01*
Y97928D01*
X101004D01*
Y97843D01*
X100833D01*
Y97757D01*
X100662D01*
Y97672D01*
X100492D01*
Y97587D01*
X100321D01*
Y97501D01*
X100150D01*
Y97416D01*
X99980D01*
Y97331D01*
X99809D01*
Y97245D01*
X99553D01*
Y97160D01*
X99382D01*
Y97075D01*
X99212D01*
Y96989D01*
X99041D01*
Y96904D01*
X98870D01*
Y96819D01*
X98700D01*
Y96733D01*
X98529D01*
Y96648D01*
X98358D01*
Y96563D01*
X98188D01*
Y96477D01*
X98017D01*
Y96392D01*
X97846D01*
Y96307D01*
X97675D01*
Y96221D01*
X97505D01*
Y96136D01*
X97334D01*
Y96051D01*
X97163D01*
Y95965D01*
X96993D01*
Y95880D01*
X96822D01*
Y95795D01*
X96651D01*
Y95709D01*
X96481D01*
Y95624D01*
X96310D01*
Y95539D01*
X96139D01*
Y95453D01*
X95969D01*
Y95368D01*
X95798D01*
Y95283D01*
X95627D01*
Y95197D01*
X95457D01*
Y95112D01*
X95286D01*
Y95027D01*
X95115D01*
Y94941D01*
X94945D01*
Y94856D01*
X94774D01*
Y94770D01*
X94603D01*
Y94685D01*
X94432D01*
Y94600D01*
X94262D01*
Y94515D01*
X94091D01*
Y94429D01*
X93920D01*
Y94344D01*
X93750D01*
Y94258D01*
X93579D01*
Y94173D01*
X93408D01*
Y94088D01*
X93238D01*
Y94003D01*
X93067D01*
Y93917D01*
X92896D01*
Y93832D01*
X92726D01*
Y93746D01*
X92555D01*
Y93661D01*
X92384D01*
Y93576D01*
X92214D01*
Y93490D01*
X91958D01*
Y93405D01*
X91787D01*
Y93320D01*
X91616D01*
Y93234D01*
X91446D01*
Y93149D01*
X91275D01*
Y93064D01*
X91104D01*
Y92978D01*
X90934D01*
Y92893D01*
X90763D01*
Y92808D01*
X90592D01*
Y92722D01*
X90421D01*
Y92637D01*
X90251D01*
Y92552D01*
X90080D01*
Y92466D01*
X89909D01*
Y92381D01*
X89739D01*
Y92296D01*
X89568D01*
Y92210D01*
X89397D01*
Y92125D01*
X89227D01*
Y92040D01*
X89056D01*
Y91954D01*
X88885D01*
Y91869D01*
X88715D01*
Y91784D01*
X88544D01*
Y91698D01*
X88373D01*
Y91613D01*
X88203D01*
Y91528D01*
X88032D01*
Y91442D01*
X87861D01*
Y91357D01*
X87691D01*
Y91272D01*
X87520D01*
Y91186D01*
X87349D01*
Y91101D01*
X87179D01*
Y91016D01*
X87008D01*
Y90930D01*
X86837D01*
Y90845D01*
X86667D01*
Y90759D01*
X86496D01*
Y90674D01*
X86325D01*
Y90589D01*
X86154D01*
Y90504D01*
X85984D01*
Y90418D01*
X85813D01*
Y90333D01*
X85642D01*
Y90247D01*
X85472D01*
Y90162D01*
X85301D01*
Y90077D01*
X85130D01*
Y89992D01*
X84960D01*
Y89906D01*
X84789D01*
Y89821D01*
X84618D01*
Y89735D01*
X84448D01*
Y89650D01*
X84277D01*
Y89565D01*
X84106D01*
Y89479D01*
X83936D01*
Y89394D01*
X83765D01*
Y89309D01*
X83594D01*
Y89223D01*
X83424D01*
Y89138D01*
X83253D01*
Y89053D01*
X83082D01*
Y88967D01*
X82912D01*
Y88882D01*
X82741D01*
Y88797D01*
X82570D01*
Y88711D01*
X82314D01*
Y88626D01*
X82143D01*
Y88541D01*
X81973D01*
Y88455D01*
X81802D01*
Y88370D01*
X81631D01*
Y88285D01*
X81461D01*
Y88199D01*
X81290D01*
Y88114D01*
X81119D01*
Y88029D01*
X80949D01*
Y87943D01*
X80778D01*
Y87858D01*
X80522D01*
Y87773D01*
X80351D01*
Y87687D01*
X80181D01*
Y87602D01*
X80010D01*
Y87517D01*
X79839D01*
Y87431D01*
X79669D01*
Y87346D01*
X79498D01*
Y87261D01*
X79242D01*
Y87175D01*
X79071D01*
Y87090D01*
X78901D01*
Y87005D01*
X78730D01*
Y86919D01*
X78559D01*
Y86834D01*
X78303D01*
Y86749D01*
X78133D01*
Y86663D01*
X77962D01*
Y86578D01*
X77791D01*
Y86493D01*
X77621D01*
Y86407D01*
X77364D01*
Y86322D01*
X77194D01*
Y86236D01*
X77023D01*
Y86151D01*
X76852D01*
Y86066D01*
X76596D01*
Y85980D01*
X76426D01*
Y85895D01*
X76255D01*
Y85810D01*
X75999D01*
Y85724D01*
X75828D01*
Y85639D01*
X75658D01*
Y85554D01*
X75402D01*
Y85468D01*
X75231D01*
Y85383D01*
X75060D01*
Y85298D01*
X74804D01*
Y85212D01*
X74634D01*
Y85127D01*
X74463D01*
Y85042D01*
X74207D01*
Y84956D01*
X74036D01*
Y84871D01*
X73780D01*
Y84786D01*
X73609D01*
Y84700D01*
X73439D01*
Y84615D01*
X73183D01*
Y84530D01*
X73012D01*
Y84444D01*
X72756D01*
Y84359D01*
X72585D01*
Y84274D01*
X72329D01*
Y84188D01*
X72159D01*
Y84103D01*
X71903D01*
Y84018D01*
X71647D01*
Y83932D01*
X71476D01*
Y83847D01*
X71220D01*
Y83762D01*
X71049D01*
Y83676D01*
X70793D01*
Y83591D01*
X70537D01*
Y83506D01*
X70281D01*
Y83420D01*
X70111D01*
Y83335D01*
X69854D01*
Y83250D01*
X69598D01*
Y83164D01*
X69342D01*
Y83079D01*
X69086D01*
Y82993D01*
X68830D01*
Y82908D01*
X68660D01*
Y82823D01*
X68404D01*
Y82738D01*
X68148D01*
Y82652D01*
X67892D01*
Y82567D01*
X67636D01*
Y82481D01*
X67465D01*
Y82396D01*
X67209D01*
Y82311D01*
X66953D01*
Y82226D01*
X66782D01*
Y82140D01*
X66612D01*
Y82055D01*
X66441D01*
Y81969D01*
X66270D01*
Y81884D01*
X66100D01*
Y81799D01*
X65929D01*
Y81713D01*
X65758D01*
Y81628D01*
X65588D01*
Y81543D01*
X65417D01*
Y81457D01*
X65331D01*
Y81372D01*
X65161D01*
Y81287D01*
X64990D01*
Y81201D01*
X64905D01*
Y81116D01*
X64734D01*
Y81031D01*
X64649D01*
Y80945D01*
X64563D01*
Y80860D01*
X64393D01*
Y80775D01*
X64307D01*
Y80689D01*
X64222D01*
Y80604D01*
X64051D01*
Y80519D01*
X63966D01*
Y80433D01*
X63881D01*
Y80348D01*
X63795D01*
Y80263D01*
X63710D01*
Y80177D01*
X63625D01*
Y80092D01*
X63539D01*
Y80007D01*
X63454D01*
Y79921D01*
X63369D01*
Y79836D01*
X63283D01*
Y79751D01*
X63198D01*
Y79665D01*
X63113D01*
Y79580D01*
X63027D01*
Y79495D01*
X62942D01*
Y79409D01*
X62857D01*
Y79239D01*
X62771D01*
Y79153D01*
X62686D01*
Y79068D01*
X62600D01*
Y78983D01*
X62515D01*
Y78812D01*
X62430D01*
Y78727D01*
X62344D01*
Y78556D01*
X62259D01*
Y78471D01*
X62174D01*
Y78300D01*
X62088D01*
Y78215D01*
X62003D01*
Y78044D01*
X61918D01*
Y77873D01*
X62515D01*
Y77190D01*
X61576D01*
Y77276D01*
X61406D01*
Y77361D01*
X61321D01*
Y77446D01*
X61235D01*
Y77532D01*
X61150D01*
Y78129D01*
X61235D01*
Y78300D01*
X61321D01*
Y78471D01*
X61406D01*
Y78556D01*
X61491D01*
Y78727D01*
X61576D01*
Y78897D01*
X61662D01*
Y78983D01*
X61747D01*
Y79153D01*
X61832D01*
Y79239D01*
X61918D01*
Y79324D01*
X62003D01*
Y79495D01*
X62088D01*
Y79580D01*
X62174D01*
Y79665D01*
X62259D01*
Y79751D01*
X62344D01*
Y79921D01*
X62430D01*
Y80007D01*
X62515D01*
Y80092D01*
X62600D01*
Y80177D01*
X62686D01*
Y80263D01*
X62771D01*
Y80348D01*
X62857D01*
Y80433D01*
X62942D01*
Y80519D01*
X63027D01*
Y80604D01*
X63113D01*
Y80689D01*
X63198D01*
Y80775D01*
X63283D01*
Y80860D01*
X63369D01*
Y80945D01*
X63454D01*
Y81031D01*
X63625D01*
Y81116D01*
X63710D01*
Y81201D01*
X63795D01*
Y81287D01*
X63881D01*
Y81372D01*
X64051D01*
Y81457D01*
X64137D01*
Y81543D01*
X64222D01*
Y81628D01*
X64393D01*
Y81713D01*
X64478D01*
Y81799D01*
X64649D01*
Y81884D01*
X64734D01*
Y81969D01*
X64905D01*
Y82055D01*
X64990D01*
Y82140D01*
X65161D01*
Y82226D01*
X65331D01*
Y82311D01*
X65502D01*
Y82396D01*
X65673D01*
Y82481D01*
X65844D01*
Y82567D01*
X66014D01*
Y82652D01*
X66185D01*
Y82738D01*
X66356D01*
Y82823D01*
X66526D01*
Y82908D01*
X66782D01*
Y82993D01*
X66953D01*
Y83079D01*
X67209D01*
Y83164D01*
X67465D01*
Y83250D01*
X67721D01*
Y83335D01*
X67977D01*
Y83420D01*
X68148D01*
Y83506D01*
X68404D01*
Y83591D01*
X68660D01*
Y83676D01*
X68916D01*
Y83762D01*
X69172D01*
Y83847D01*
X69428D01*
Y83932D01*
X69684D01*
Y84018D01*
X69854D01*
Y84103D01*
X70111D01*
Y84188D01*
X70367D01*
Y84274D01*
X70623D01*
Y84359D01*
X70793D01*
Y84444D01*
X71049D01*
Y84530D01*
X71220D01*
Y84615D01*
X71476D01*
Y84700D01*
X71732D01*
Y84786D01*
X71903D01*
Y84871D01*
X72159D01*
Y84956D01*
X72329D01*
Y85042D01*
X72585D01*
Y85127D01*
X72756D01*
Y85212D01*
X73012D01*
Y85298D01*
X73183D01*
Y85383D01*
X73353D01*
Y85468D01*
X73609D01*
Y85554D01*
X73780D01*
Y85639D01*
X74036D01*
Y85724D01*
X74207D01*
Y85810D01*
X74377D01*
Y85895D01*
X74634D01*
Y85980D01*
X74804D01*
Y86066D01*
X75060D01*
Y86151D01*
X75231D01*
Y86236D01*
X75402D01*
Y86322D01*
X75572D01*
Y86407D01*
X75828D01*
Y86493D01*
X75999D01*
Y86578D01*
X76170D01*
Y86663D01*
X76426D01*
Y86749D01*
X76596D01*
Y86834D01*
X76767D01*
Y86919D01*
X76938D01*
Y87005D01*
X77194D01*
Y87090D01*
X77364D01*
Y87175D01*
X77535D01*
Y87261D01*
X77706D01*
Y87346D01*
X77962D01*
Y87431D01*
X78133D01*
Y87517D01*
X78303D01*
Y87602D01*
X78474D01*
Y87687D01*
X78644D01*
Y87773D01*
X78815D01*
Y87858D01*
X79071D01*
Y87943D01*
X79242D01*
Y88029D01*
X79413D01*
Y88114D01*
X79583D01*
Y88199D01*
X79754D01*
Y88285D01*
X79925D01*
Y88370D01*
X80181D01*
Y88455D01*
X80351D01*
Y88541D01*
X80522D01*
Y88626D01*
X80693D01*
Y88711D01*
X80863D01*
Y88797D01*
X81034D01*
Y88882D01*
X81205D01*
Y88967D01*
X81375D01*
Y89053D01*
X81546D01*
Y89138D01*
X81717D01*
Y89223D01*
X81973D01*
Y89309D01*
X82143D01*
Y89394D01*
X82314D01*
Y89479D01*
X82485D01*
Y89565D01*
X82655D01*
Y89650D01*
X82826D01*
Y89735D01*
X82997D01*
Y89821D01*
X83168D01*
Y89906D01*
X83338D01*
Y89992D01*
X83509D01*
Y90077D01*
X83680D01*
Y90162D01*
X83850D01*
Y90247D01*
X84021D01*
Y90333D01*
X84192D01*
Y90418D01*
X84362D01*
Y90504D01*
X84533D01*
Y90589D01*
X84704D01*
Y90674D01*
X84874D01*
Y90759D01*
X85045D01*
Y90845D01*
X85216D01*
Y90930D01*
X85386D01*
Y91016D01*
X85557D01*
Y91101D01*
X85813D01*
Y91186D01*
X85984D01*
Y91272D01*
X86154D01*
Y91357D01*
X86325D01*
Y91442D01*
X86496D01*
Y91528D01*
X86667D01*
Y91613D01*
X86837D01*
Y91698D01*
X87008D01*
Y91784D01*
X87179D01*
Y91869D01*
X87349D01*
Y91954D01*
X87520D01*
Y92040D01*
X87691D01*
Y92125D01*
X87861D01*
Y92210D01*
X88032D01*
Y92296D01*
X88203D01*
Y92381D01*
X88373D01*
Y92466D01*
X88544D01*
Y92552D01*
X88715D01*
Y92637D01*
X88885D01*
Y92722D01*
X89056D01*
Y92808D01*
X89227D01*
Y92893D01*
X89397D01*
Y92978D01*
X89568D01*
Y93064D01*
X89739D01*
Y93149D01*
X89909D01*
Y93234D01*
X90080D01*
Y93320D01*
X90251D01*
Y93405D01*
X90421D01*
Y93490D01*
X90592D01*
Y93576D01*
X90763D01*
Y93661D01*
X90934D01*
Y93746D01*
X91104D01*
Y93832D01*
X91275D01*
Y93917D01*
X91446D01*
Y94003D01*
X91616D01*
Y94088D01*
X91787D01*
Y94173D01*
X91958D01*
Y94258D01*
X92128D01*
Y94344D01*
X92299D01*
Y94429D01*
X92470D01*
Y94515D01*
X92640D01*
Y94600D01*
X92811D01*
Y94685D01*
X92982D01*
Y94770D01*
X93152D01*
Y94856D01*
X93323D01*
Y94941D01*
X93494D01*
Y95027D01*
X93665D01*
Y95112D01*
X93835D01*
Y95197D01*
X94006D01*
Y95283D01*
X94177D01*
Y95368D01*
X94347D01*
Y95453D01*
X94518D01*
Y95539D01*
X94689D01*
Y95624D01*
X94859D01*
Y95709D01*
X95030D01*
Y95795D01*
X95201D01*
Y95880D01*
X95371D01*
Y95965D01*
X95542D01*
Y96051D01*
X95713D01*
Y96136D01*
X95883D01*
Y96221D01*
X96054D01*
Y96307D01*
X96225D01*
Y96392D01*
X96395D01*
Y96477D01*
X96566D01*
Y96563D01*
X96737D01*
Y96648D01*
X96907D01*
Y96733D01*
X97078D01*
Y96819D01*
X97249D01*
Y96904D01*
X97419D01*
Y96989D01*
X97590D01*
Y97075D01*
X97761D01*
Y97160D01*
X97931D01*
Y97245D01*
X98102D01*
Y97331D01*
X98273D01*
Y97416D01*
X98443D01*
Y97501D01*
X98614D01*
Y97587D01*
X98785D01*
Y97672D01*
X99041D01*
Y97757D01*
X99212D01*
Y97843D01*
X99382D01*
Y97928D01*
X99553D01*
Y98013D01*
X99724D01*
Y98099D01*
X99894D01*
Y98184D01*
X100065D01*
Y98270D01*
X100236D01*
Y98355D01*
X100406D01*
Y98440D01*
X100577D01*
Y98525D01*
X100748D01*
Y98611D01*
X100918D01*
Y98696D01*
X101089D01*
Y98781D01*
X101260D01*
Y98867D01*
X101430D01*
Y98952D01*
X101601D01*
Y99038D01*
X101772D01*
Y99123D01*
X101943D01*
Y99208D01*
X102113D01*
Y99294D01*
X102369D01*
Y99379D01*
X102540D01*
Y99464D01*
X102711D01*
Y99550D01*
X102881D01*
Y99635D01*
X103052D01*
Y99720D01*
X103223D01*
Y99806D01*
X103393D01*
Y99891D01*
X103564D01*
Y99976D01*
X103735D01*
Y100062D01*
X103905D01*
Y100147D01*
X104076D01*
Y100232D01*
X104247D01*
Y100318D01*
X104417D01*
Y100403D01*
X104673D01*
Y100488D01*
X104844D01*
Y100574D01*
X105015D01*
Y100659D01*
X105185D01*
Y100744D01*
X105356D01*
Y100830D01*
X105527D01*
Y100915D01*
X105697D01*
Y101000D01*
X105868D01*
Y101086D01*
X106039D01*
Y101171D01*
X106209D01*
Y101256D01*
X106466D01*
Y101342D01*
X106636D01*
Y101427D01*
X106807D01*
Y101512D01*
X106978D01*
Y101598D01*
X107148D01*
Y101683D01*
X107319D01*
Y101768D01*
X107490D01*
Y101854D01*
X107660D01*
Y101939D01*
X107916D01*
Y102024D01*
X108087D01*
Y102110D01*
X108258D01*
Y102195D01*
X108428D01*
Y102281D01*
X108599D01*
Y102366D01*
X108770D01*
Y102451D01*
X108940D01*
Y102536D01*
X109111D01*
Y102622D01*
X109367D01*
Y102707D01*
X109538D01*
Y102793D01*
X109708D01*
Y102878D01*
X109879D01*
Y102963D01*
X110050D01*
Y103048D01*
X110220D01*
Y103134D01*
X110477D01*
Y103219D01*
X110647D01*
Y103305D01*
X110818D01*
Y103390D01*
X110989D01*
Y103475D01*
X111159D01*
Y103561D01*
X111330D01*
Y103646D01*
X111586D01*
Y103731D01*
X111757D01*
Y103817D01*
X111927D01*
Y103902D01*
X112098D01*
Y103987D01*
X112269D01*
Y104073D01*
X112439D01*
Y104158D01*
X112695D01*
Y104243D01*
X112866D01*
Y104329D01*
X113037D01*
Y104414D01*
X113207D01*
Y104499D01*
X113378D01*
Y104585D01*
X113634D01*
Y104670D01*
X113805D01*
Y104755D01*
X113975D01*
Y104841D01*
X114146D01*
Y104926D01*
X114317D01*
Y105011D01*
X114573D01*
Y105097D01*
X114743D01*
Y105182D01*
X114914D01*
Y105267D01*
X115085D01*
Y105353D01*
X115341D01*
Y105438D01*
X115512D01*
Y105523D01*
X115682D01*
Y105609D01*
X115853D01*
Y105694D01*
X116109D01*
Y105779D01*
X116280D01*
Y105865D01*
X116450D01*
Y105950D01*
X116621D01*
Y106035D01*
X116877D01*
Y106121D01*
X117048D01*
Y106206D01*
X117218D01*
Y106292D01*
X117389D01*
Y106377D01*
X117645D01*
Y106462D01*
X117816D01*
Y106547D01*
X117986D01*
Y106633D01*
X118243D01*
Y106718D01*
X118413D01*
Y106804D01*
X118584D01*
Y106889D01*
X118755D01*
Y106974D01*
X119011D01*
Y107060D01*
X119181D01*
Y107145D01*
X119352D01*
Y107230D01*
X119608D01*
Y107316D01*
X119779D01*
Y107401D01*
X119949D01*
Y107486D01*
X120205D01*
Y107572D01*
X120376D01*
Y107657D01*
X120547D01*
Y107742D01*
X120803D01*
Y107828D01*
X120973D01*
Y107913D01*
X121144D01*
Y107998D01*
X121400D01*
Y108084D01*
X121571D01*
Y108169D01*
X121741D01*
Y108254D01*
X121997D01*
Y108340D01*
X122168D01*
Y108425D01*
X122424D01*
Y108510D01*
X122595D01*
Y108596D01*
X122766D01*
Y108681D01*
X123021D01*
Y108766D01*
X123192D01*
Y108852D01*
X123448D01*
Y108937D01*
X123619D01*
Y109022D01*
X123790D01*
Y109108D01*
X124046D01*
Y109193D01*
X124216D01*
Y109278D01*
X124472D01*
Y109364D01*
X124643D01*
Y109449D01*
X124899D01*
Y109534D01*
X125070D01*
Y109620D01*
X125240D01*
Y109705D01*
X125496D01*
Y109790D01*
X125667D01*
Y109876D01*
X125923D01*
Y109961D01*
X126179D01*
Y110047D01*
X126350D01*
Y110132D01*
X126606D01*
Y110217D01*
X126777D01*
Y110302D01*
X127033D01*
Y110388D01*
X127203D01*
Y110473D01*
X127459D01*
Y110559D01*
X127715D01*
Y110644D01*
X127886D01*
Y110729D01*
X128142D01*
Y110815D01*
X128313D01*
Y110900D01*
X128569D01*
Y110985D01*
X128825D01*
Y111070D01*
X129081D01*
Y111156D01*
X129251D01*
Y111241D01*
X129507D01*
Y111327D01*
X129763D01*
Y111412D01*
X130020D01*
Y111497D01*
X130190D01*
Y111583D01*
X130446D01*
Y111668D01*
X130702D01*
Y111753D01*
X130958D01*
Y111839D01*
X131214D01*
Y111924D01*
X131470D01*
Y112009D01*
X131726D01*
Y112095D01*
X131897D01*
Y112180D01*
X132153D01*
Y112265D01*
X132409D01*
Y112351D01*
X132665D01*
Y112436D01*
X132921D01*
Y112521D01*
X133177D01*
Y112607D01*
X133518D01*
Y112692D01*
X133774D01*
Y112777D01*
X134031D01*
Y112863D01*
X134286D01*
Y112948D01*
X134543D01*
Y113033D01*
X134798D01*
Y113119D01*
X135055D01*
Y113204D01*
X135396D01*
Y113289D01*
X135652D01*
Y113375D01*
X135908D01*
Y113460D01*
X136249D01*
Y113545D01*
X136505D01*
Y113631D01*
X136847D01*
Y113716D01*
X137103D01*
Y113801D01*
X137444D01*
Y113887D01*
X137700D01*
Y113972D01*
X138041D01*
Y114058D01*
X138298D01*
Y114143D01*
X138639D01*
Y114228D01*
X138980D01*
Y114313D01*
X139322D01*
Y114399D01*
X139578D01*
Y114484D01*
X139919D01*
Y114570D01*
X140260D01*
Y114655D01*
X140602D01*
Y114740D01*
X140943D01*
Y114825D01*
X141284D01*
Y114911D01*
X141711D01*
Y114996D01*
X142052D01*
Y115082D01*
X142394D01*
Y115167D01*
X142821D01*
Y115252D01*
X143162D01*
Y115338D01*
X143589D01*
Y115423D01*
X143930D01*
Y115508D01*
X144357D01*
Y115594D01*
X144783D01*
Y115679D01*
X145210D01*
Y115764D01*
X145637D01*
Y115850D01*
X146149D01*
Y115935D01*
X146575D01*
Y116020D01*
X147087D01*
Y116106D01*
X147600D01*
Y116191D01*
X148112D01*
Y116276D01*
X148624D01*
Y116362D01*
X149136D01*
Y116447D01*
X149733D01*
Y116532D01*
X150330D01*
Y116618D01*
X151013D01*
Y116703D01*
X151696D01*
Y116788D01*
X152464D01*
Y116874D01*
X153232D01*
Y116959D01*
X154086D01*
Y117044D01*
X155110D01*
Y117130D01*
X156390D01*
Y117215D01*
X158523D01*
Y117300D01*
X161510D01*
Y117215D01*
D02*
G37*
G36*
X179005Y38702D02*
X179175D01*
Y38616D01*
X179261D01*
Y38531D01*
X179346D01*
Y38446D01*
X179432D01*
Y38361D01*
X179517D01*
Y38190D01*
X179602D01*
Y36739D01*
X179005D01*
Y36824D01*
X178920D01*
Y37763D01*
X178834D01*
Y37848D01*
X178749D01*
Y37934D01*
X178664D01*
Y38019D01*
X178493D01*
Y38105D01*
X178066D01*
Y38019D01*
X177895D01*
Y37934D01*
X177810D01*
Y37848D01*
X177725D01*
Y37678D01*
X177639D01*
Y36227D01*
X177725D01*
Y35971D01*
X177810D01*
Y35800D01*
X177895D01*
Y35715D01*
X177981D01*
Y35544D01*
X178066D01*
Y35459D01*
X178151D01*
Y35374D01*
X178237D01*
Y35288D01*
X178322D01*
Y35203D01*
X178407D01*
Y35118D01*
X178578D01*
Y35032D01*
X178664D01*
Y34947D01*
X178749D01*
Y34862D01*
X178920D01*
Y34776D01*
X179005D01*
Y34691D01*
X179090D01*
Y34520D01*
X179175D01*
Y34435D01*
X179261D01*
Y34264D01*
X179346D01*
Y34093D01*
X179432D01*
Y33923D01*
X179517D01*
Y33581D01*
X179602D01*
Y31363D01*
X179517D01*
Y31192D01*
X179432D01*
Y31107D01*
X179346D01*
Y31021D01*
X179261D01*
Y30936D01*
X179175D01*
Y30851D01*
X179005D01*
Y30765D01*
X177639D01*
Y30851D01*
X177469D01*
Y30936D01*
X177298D01*
Y31021D01*
X177213D01*
Y31107D01*
X177127D01*
Y31277D01*
X177042D01*
Y31448D01*
X176957D01*
Y32813D01*
X177639D01*
Y31875D01*
X177725D01*
Y31704D01*
X177810D01*
Y31619D01*
X177895D01*
Y31533D01*
X178066D01*
Y31448D01*
X178493D01*
Y31533D01*
X178664D01*
Y31619D01*
X178749D01*
Y31704D01*
X178834D01*
Y31789D01*
X178920D01*
Y33411D01*
X178834D01*
Y33667D01*
X178749D01*
Y33837D01*
X178664D01*
Y33923D01*
X178578D01*
Y34008D01*
X178493D01*
Y34093D01*
X178407D01*
Y34179D01*
X178322D01*
Y34264D01*
X178237D01*
Y34350D01*
X178151D01*
Y34435D01*
X178066D01*
Y34520D01*
X177895D01*
Y34606D01*
X177810D01*
Y34691D01*
X177725D01*
Y34776D01*
X177639D01*
Y34862D01*
X177554D01*
Y34947D01*
X177469D01*
Y35032D01*
X177383D01*
Y35203D01*
X177298D01*
Y35288D01*
X177213D01*
Y35459D01*
X177127D01*
Y35715D01*
X177042D01*
Y36056D01*
X176957D01*
Y38105D01*
X177042D01*
Y38275D01*
X177127D01*
Y38446D01*
X177213D01*
Y38531D01*
X177298D01*
Y38616D01*
X177469D01*
Y38702D01*
X177639D01*
Y38787D01*
X179005D01*
Y38702D01*
D02*
G37*
G36*
X240023Y30765D02*
X238914D01*
Y31107D01*
X238829D01*
Y31619D01*
X238743D01*
Y32131D01*
X238658D01*
Y32643D01*
X238573D01*
Y33155D01*
X238487D01*
Y33667D01*
X238402D01*
Y34179D01*
X238316D01*
Y34776D01*
X238231D01*
Y35288D01*
X238146D01*
Y35800D01*
X238060D01*
Y36312D01*
X237975D01*
Y30765D01*
X237292D01*
Y38787D01*
X238316D01*
Y38702D01*
X238402D01*
Y38190D01*
X238487D01*
Y37678D01*
X238573D01*
Y37166D01*
X238658D01*
Y36654D01*
X238743D01*
Y36142D01*
X238829D01*
Y35630D01*
X238914D01*
Y35118D01*
X238999D01*
Y34606D01*
X239084D01*
Y34008D01*
X239170D01*
Y33496D01*
X239255D01*
Y36739D01*
Y36824D01*
Y38787D01*
X240023D01*
Y30765D01*
D02*
G37*
G36*
X312477Y38275D02*
Y38190D01*
Y30765D01*
X311709D01*
Y35374D01*
X311624D01*
Y34691D01*
X311539D01*
Y34008D01*
X311453D01*
Y33325D01*
X311368D01*
Y32643D01*
X311283D01*
Y31960D01*
X311197D01*
Y31277D01*
X311112D01*
Y30765D01*
X310429D01*
Y30851D01*
X310344D01*
Y31533D01*
X310258D01*
Y32216D01*
X310173D01*
Y32899D01*
X310088D01*
Y33581D01*
X310002D01*
Y34179D01*
X309917D01*
Y34862D01*
X309832D01*
Y35544D01*
X309746D01*
Y30765D01*
X309064D01*
Y38787D01*
X310173D01*
Y38275D01*
X310258D01*
Y37422D01*
X310344D01*
Y36654D01*
X310429D01*
Y35800D01*
X310514D01*
Y35032D01*
X310600D01*
Y34264D01*
X310685D01*
Y33411D01*
X310770D01*
Y33923D01*
X310856D01*
Y34776D01*
X310941D01*
Y35544D01*
X311026D01*
Y36398D01*
X311112D01*
Y37166D01*
X311197D01*
Y38019D01*
X311283D01*
Y38787D01*
X312477D01*
Y38275D01*
D02*
G37*
G36*
X119693Y30765D02*
X118925D01*
Y35374D01*
X118840D01*
Y34691D01*
X118755D01*
Y34008D01*
X118669D01*
Y33325D01*
X118584D01*
Y32643D01*
X118498D01*
Y31960D01*
X118413D01*
Y31277D01*
X118328D01*
Y30765D01*
X117645D01*
Y30851D01*
X117560D01*
Y31533D01*
X117474D01*
Y32216D01*
X117389D01*
Y32899D01*
X117304D01*
Y33581D01*
X117218D01*
Y34179D01*
X117133D01*
Y34862D01*
X117048D01*
Y35544D01*
X116962D01*
Y30765D01*
X116280D01*
Y38787D01*
X117389D01*
Y38275D01*
X117474D01*
Y37422D01*
X117560D01*
Y36654D01*
X117645D01*
Y35800D01*
X117730D01*
Y35715D01*
Y35032D01*
X117816D01*
Y34264D01*
X117901D01*
Y33411D01*
X117986D01*
Y33923D01*
X118072D01*
Y34776D01*
X118157D01*
Y35544D01*
X118243D01*
Y36398D01*
X118328D01*
Y37166D01*
X118413D01*
Y38019D01*
X118498D01*
Y38787D01*
X119693D01*
Y30765D01*
D02*
G37*
G36*
X203754Y31619D02*
X203668D01*
Y31363D01*
X203583D01*
Y31192D01*
X203498D01*
Y31107D01*
X203412D01*
Y31021D01*
X203327D01*
Y30936D01*
X203242D01*
Y30851D01*
X203071D01*
Y30765D01*
X201705D01*
Y30851D01*
X201535D01*
Y30936D01*
X201364D01*
Y31021D01*
X201279D01*
Y31107D01*
X201193D01*
Y31277D01*
X201108D01*
Y31448D01*
X201023D01*
Y31789D01*
Y31875D01*
Y38787D01*
X201705D01*
Y31875D01*
X201791D01*
Y31704D01*
X201876D01*
Y31619D01*
X202047D01*
Y31533D01*
X202132D01*
Y31448D01*
X202559D01*
Y31533D01*
X202729D01*
Y31619D01*
X202815D01*
Y31704D01*
X202900D01*
Y31789D01*
X202985D01*
Y38787D01*
X203754D01*
Y31619D01*
D02*
G37*
G36*
X131812D02*
X131726D01*
Y31363D01*
X131641D01*
Y31192D01*
X131556D01*
Y31107D01*
X131470D01*
Y31021D01*
X131385D01*
Y30936D01*
X131300D01*
Y30851D01*
X131129D01*
Y30765D01*
X129763D01*
Y30851D01*
X129593D01*
Y30936D01*
X129422D01*
Y31021D01*
X129337D01*
Y31107D01*
X129251D01*
Y31277D01*
X129166D01*
Y31448D01*
X129081D01*
Y38787D01*
X129763D01*
Y31875D01*
X129849D01*
Y31704D01*
X129934D01*
Y31619D01*
X130105D01*
Y31533D01*
X130190D01*
Y31448D01*
X130617D01*
Y31533D01*
X130787D01*
Y31619D01*
X130873D01*
Y31704D01*
X130958D01*
Y31789D01*
X131044D01*
Y32984D01*
Y33069D01*
Y38787D01*
X131812D01*
Y31619D01*
D02*
G37*
G36*
X298652Y38275D02*
X298738D01*
Y37592D01*
X298823D01*
Y36910D01*
X298908D01*
Y36227D01*
X298993D01*
Y35459D01*
X299079D01*
Y34776D01*
X299164D01*
Y34093D01*
X299249D01*
Y33411D01*
X299335D01*
Y32728D01*
X299420D01*
Y32045D01*
X299506D01*
Y31363D01*
X299591D01*
Y30765D01*
X298823D01*
Y31448D01*
X298738D01*
Y32301D01*
X298652D01*
Y32728D01*
X297884D01*
Y32131D01*
X297799D01*
Y31363D01*
X297713D01*
Y30765D01*
X296945D01*
Y31277D01*
X297031D01*
Y31960D01*
X297116D01*
Y32643D01*
X297201D01*
Y33325D01*
X297287D01*
Y34093D01*
X297372D01*
Y34776D01*
X297457D01*
Y35459D01*
X297543D01*
Y36142D01*
X297628D01*
Y36824D01*
X297713D01*
Y37507D01*
X297799D01*
Y38190D01*
X297884D01*
Y38787D01*
X298652D01*
Y38275D01*
D02*
G37*
G36*
X287814Y38105D02*
X285766D01*
Y35118D01*
X287814D01*
Y34435D01*
X285766D01*
Y31448D01*
X287814D01*
Y30765D01*
X285083D01*
Y38787D01*
X287814D01*
Y38105D01*
D02*
G37*
G36*
X275695D02*
X274671D01*
Y33667D01*
Y33581D01*
Y30765D01*
X273989D01*
Y38105D01*
X272965D01*
Y38787D01*
X275695D01*
Y38105D01*
D02*
G37*
G36*
X252056D02*
X251032D01*
Y30765D01*
X250349D01*
Y38105D01*
X249325D01*
Y38787D01*
X252056D01*
Y38105D01*
D02*
G37*
G36*
X228076Y38190D02*
Y38105D01*
X226027D01*
Y35118D01*
X228076D01*
Y34435D01*
X226027D01*
Y31448D01*
X228076D01*
Y30765D01*
X225345D01*
Y38787D01*
X228076D01*
Y38190D01*
D02*
G37*
G36*
X215189Y38702D02*
X215360D01*
Y38616D01*
X215445D01*
Y38531D01*
X215531D01*
Y38446D01*
X215616D01*
Y38361D01*
X215701D01*
Y38190D01*
X215787D01*
Y37934D01*
X215872D01*
Y31619D01*
X215787D01*
Y31363D01*
X215701D01*
Y31192D01*
X215616D01*
Y31107D01*
X215531D01*
Y31021D01*
X215445D01*
Y30936D01*
X215360D01*
Y30851D01*
X215189D01*
Y30765D01*
X213141D01*
Y38787D01*
X215189D01*
Y38702D01*
D02*
G37*
G36*
X191721Y38105D02*
X190697D01*
Y33411D01*
Y33325D01*
Y30765D01*
X190014D01*
Y38105D01*
X188990D01*
Y38787D01*
X191721D01*
Y38105D01*
D02*
G37*
G36*
X154853Y38275D02*
X154939D01*
Y37592D01*
X155024D01*
Y36910D01*
X155110D01*
Y36227D01*
X155195D01*
Y35459D01*
X155280D01*
Y34776D01*
X155366D01*
Y34093D01*
X155451D01*
Y33411D01*
X155536D01*
Y32728D01*
X155622D01*
Y32045D01*
X155707D01*
Y31363D01*
X155792D01*
Y30765D01*
X155024D01*
Y31448D01*
X154939D01*
Y32301D01*
X154853D01*
Y32728D01*
X154086D01*
Y32131D01*
X154000D01*
Y31363D01*
X153915D01*
Y31277D01*
Y30765D01*
X153147D01*
Y31277D01*
X153232D01*
Y31960D01*
X153317D01*
Y32643D01*
X153403D01*
Y33325D01*
X153488D01*
Y34093D01*
X153573D01*
Y34776D01*
X153659D01*
Y35459D01*
X153744D01*
Y36142D01*
X153829D01*
Y36824D01*
X153915D01*
Y37507D01*
X154000D01*
Y38190D01*
X154086D01*
Y38787D01*
X154853D01*
Y38275D01*
D02*
G37*
G36*
X141967Y36995D02*
Y36910D01*
Y31448D01*
X144015D01*
Y30765D01*
X141284D01*
Y38787D01*
X141967D01*
Y36995D01*
D02*
G37*
G36*
X106209Y38702D02*
X106380D01*
Y38616D01*
X106466D01*
Y38531D01*
X106551D01*
Y38446D01*
X106636D01*
Y38361D01*
X106721D01*
Y38190D01*
X106807D01*
Y37934D01*
X106892D01*
Y35203D01*
X106807D01*
Y34947D01*
X106721D01*
Y34862D01*
X106551D01*
Y34776D01*
X106636D01*
Y34691D01*
X106721D01*
Y34606D01*
X106807D01*
Y34350D01*
X106892D01*
Y33496D01*
Y33411D01*
Y30765D01*
X106124D01*
Y34093D01*
X106039D01*
Y34179D01*
X105954D01*
Y34264D01*
X105868D01*
Y34350D01*
X105697D01*
Y34435D01*
X104844D01*
Y30765D01*
X104161D01*
Y38787D01*
X106209D01*
Y38702D01*
D02*
G37*
G36*
X94091D02*
X94262D01*
Y38616D01*
X94347D01*
Y38531D01*
X94432D01*
Y38446D01*
X94518D01*
Y38361D01*
X94603D01*
Y38190D01*
X94689D01*
Y33325D01*
Y33240D01*
Y31363D01*
X94603D01*
Y31192D01*
X94518D01*
Y31107D01*
X94432D01*
Y31021D01*
X94347D01*
Y30936D01*
X94262D01*
Y30851D01*
X94091D01*
Y30765D01*
X92726D01*
Y30851D01*
X92555D01*
Y30936D01*
X92384D01*
Y31021D01*
X92299D01*
Y31107D01*
X92214D01*
Y31277D01*
X92128D01*
Y31448D01*
X92043D01*
Y38105D01*
X92128D01*
Y38275D01*
X92214D01*
Y38446D01*
X92299D01*
Y38531D01*
X92384D01*
Y38616D01*
X92555D01*
Y38702D01*
X92726D01*
Y38787D01*
X94091D01*
Y38702D01*
D02*
G37*
G36*
X82741Y38105D02*
X80693D01*
Y35118D01*
X82741D01*
Y34435D01*
X80693D01*
Y30765D01*
X80010D01*
Y38787D01*
X82741D01*
Y38105D01*
D02*
G37*
G36*
X169108Y366906D02*
X169275Y366850D01*
X169330Y366813D01*
X169386Y366776D01*
X169423Y366758D01*
X169441D01*
X171071Y365776D01*
X171145Y365721D01*
X171200Y365665D01*
X171256Y365536D01*
X171293Y365443D01*
Y365425D01*
Y365406D01*
Y364480D01*
X171275Y364388D01*
X171238Y364332D01*
X171200Y364295D01*
X171034D01*
X170997Y364314D01*
X170978D01*
X169275Y365314D01*
Y357129D01*
X169256Y357037D01*
X169238Y356981D01*
X169127Y356907D01*
X169034Y356870D01*
X167979D01*
X167904Y356889D01*
X167830Y356907D01*
X167775Y357000D01*
X167738Y357092D01*
Y357111D01*
Y357129D01*
Y366665D01*
X167756Y366758D01*
X167775Y366813D01*
X167868Y366888D01*
X167960Y366925D01*
X168941D01*
X169108Y366906D01*
D02*
G37*
G36*
X178903D02*
X178977Y366888D01*
X179014Y366850D01*
X179051Y366795D01*
X179088Y366702D01*
Y366684D01*
Y366665D01*
Y357129D01*
X179070Y357037D01*
X179051Y356981D01*
X178940Y356907D01*
X178848Y356870D01*
X177829D01*
X177737Y356889D01*
X177681Y356907D01*
X177607Y357000D01*
X177570Y357092D01*
Y357111D01*
Y357129D01*
Y360573D01*
X177533Y360666D01*
X177478Y360703D01*
X177422Y360722D01*
X175793D01*
X174126Y357129D01*
X174070Y357037D01*
X173997Y356981D01*
X173830Y356907D01*
X173756Y356889D01*
X173682Y356870D01*
X172663D01*
X172552Y356889D01*
X172478Y356926D01*
X172441Y356963D01*
X172423Y357018D01*
X172441Y357129D01*
X172460Y357148D01*
Y357166D01*
X174200Y360833D01*
Y360907D01*
X173941Y361018D01*
X173700Y361129D01*
X173496Y361296D01*
X173330Y361462D01*
X173182Y361629D01*
X173071Y361832D01*
X172959Y362018D01*
X172885Y362203D01*
X172774Y362573D01*
X172737Y362740D01*
X172719Y362869D01*
Y362999D01*
X172700Y363092D01*
Y363147D01*
Y363166D01*
Y364499D01*
X172737Y364906D01*
X172811Y365258D01*
X172904Y365554D01*
X173034Y365813D01*
X173163Y366017D01*
X173256Y366165D01*
X173330Y366239D01*
X173367Y366276D01*
X173626Y366499D01*
X173922Y366647D01*
X174219Y366758D01*
X174496Y366850D01*
X174756Y366888D01*
X174959Y366906D01*
X175033Y366925D01*
X178811D01*
X178903Y366906D01*
D02*
G37*
G36*
X163646D02*
X164016Y366832D01*
X164331Y366739D01*
X164590Y366628D01*
X164794Y366517D01*
X164942Y366425D01*
X165016Y366351D01*
X165053Y366332D01*
X165257Y366091D01*
X165423Y365813D01*
X165534Y365536D01*
X165608Y365258D01*
X165646Y364999D01*
X165664Y364795D01*
X165683Y364721D01*
Y364665D01*
Y364628D01*
Y364610D01*
Y363814D01*
X165664Y363554D01*
X165627Y363314D01*
X165590Y363092D01*
X165516Y362906D01*
X165442Y362721D01*
X165349Y362573D01*
X165238Y362444D01*
X165145Y362314D01*
X164942Y362129D01*
X164775Y362018D01*
X164701Y361981D01*
X164646Y361944D01*
X164627Y361925D01*
X164608D01*
X164794Y361832D01*
X164960Y361721D01*
X165109Y361592D01*
X165220Y361444D01*
X165331Y361296D01*
X165423Y361129D01*
X165553Y360814D01*
X165627Y360518D01*
X165646Y360388D01*
X165664Y360277D01*
X165683Y360166D01*
Y360092D01*
Y360055D01*
Y360036D01*
Y359203D01*
X165664Y358796D01*
X165590Y358444D01*
X165479Y358148D01*
X165368Y357907D01*
X165257Y357703D01*
X165145Y357574D01*
X165072Y357500D01*
X165053Y357463D01*
X164794Y357259D01*
X164497Y357129D01*
X164201Y357018D01*
X163905Y356944D01*
X163646Y356907D01*
X163424Y356889D01*
X163349Y356870D01*
X161590D01*
X161183Y356889D01*
X160813Y356963D01*
X160516Y357055D01*
X160257Y357166D01*
X160054Y357277D01*
X159905Y357370D01*
X159831Y357444D01*
X159794Y357463D01*
X159591Y357703D01*
X159424Y357981D01*
X159313Y358277D01*
X159239Y358555D01*
X159202Y358814D01*
X159165Y359018D01*
Y359092D01*
Y359147D01*
Y359185D01*
Y359203D01*
Y360018D01*
X159183Y360277D01*
X159202Y360518D01*
X159257Y360740D01*
X159331Y360944D01*
X159405Y361110D01*
X159498Y361277D01*
X159591Y361407D01*
X159683Y361536D01*
X159887Y361721D01*
X160054Y361832D01*
X160128Y361870D01*
X160183Y361907D01*
X160202Y361925D01*
X160220D01*
X160054Y361999D01*
X159905Y362092D01*
X159776Y362203D01*
X159665Y362314D01*
X159572Y362425D01*
X159516Y362518D01*
X159479Y362573D01*
X159461Y362592D01*
X159368Y362795D01*
X159294Y362999D01*
X159239Y363203D01*
X159202Y363388D01*
X159183Y363554D01*
X159165Y363703D01*
Y363777D01*
Y363814D01*
Y364610D01*
X159183Y365017D01*
X159257Y365351D01*
X159368Y365647D01*
X159479Y365888D01*
X159591Y366091D01*
X159702Y366221D01*
X159776Y366314D01*
X159794Y366332D01*
X160054Y366536D01*
X160331Y366684D01*
X160646Y366776D01*
X160924Y366850D01*
X161183Y366888D01*
X161405Y366925D01*
X163238D01*
X163646Y366906D01*
D02*
G37*
G36*
X134818Y358016D02*
X134985Y357960D01*
X135040Y357923D01*
X135096Y357886D01*
X135133Y357868D01*
X135151D01*
X136781Y356886D01*
X136855Y356831D01*
X136910Y356775D01*
X136966Y356646D01*
X137003Y356553D01*
Y356535D01*
Y356516D01*
Y355590D01*
X136985Y355498D01*
X136947Y355442D01*
X136910Y355405D01*
X136744D01*
X136707Y355424D01*
X136688D01*
X134985Y356424D01*
Y348239D01*
X134966Y348147D01*
X134948Y348091D01*
X134837Y348017D01*
X134744Y347980D01*
X133689D01*
X133615Y347999D01*
X133540Y348017D01*
X133485Y348110D01*
X133448Y348202D01*
Y348221D01*
Y348239D01*
Y357775D01*
X133466Y357868D01*
X133485Y357923D01*
X133577Y357998D01*
X133670Y358035D01*
X134651D01*
X134818Y358016D01*
D02*
G37*
G36*
X144613D02*
X144687Y357998D01*
X144725Y357960D01*
X144761Y357905D01*
X144798Y357812D01*
Y357794D01*
Y357775D01*
Y348239D01*
X144780Y348147D01*
X144761Y348091D01*
X144650Y348017D01*
X144558Y347980D01*
X143539D01*
X143447Y347999D01*
X143391Y348017D01*
X143317Y348110D01*
X143280Y348202D01*
Y348221D01*
Y348239D01*
Y351683D01*
X143243Y351776D01*
X143188Y351813D01*
X143132Y351832D01*
X141503D01*
X139836Y348239D01*
X139781Y348147D01*
X139706Y348091D01*
X139540Y348017D01*
X139466Y347999D01*
X139392Y347980D01*
X138373D01*
X138262Y347999D01*
X138188Y348036D01*
X138151Y348073D01*
X138132Y348128D01*
X138151Y348239D01*
X138170Y348258D01*
Y348276D01*
X139910Y351943D01*
Y352017D01*
X139651Y352128D01*
X139410Y352239D01*
X139206Y352406D01*
X139040Y352572D01*
X138892Y352739D01*
X138781Y352942D01*
X138670Y353128D01*
X138596Y353313D01*
X138484Y353683D01*
X138447Y353850D01*
X138429Y353979D01*
Y354109D01*
X138410Y354202D01*
Y354257D01*
Y354276D01*
Y355609D01*
X138447Y356016D01*
X138521Y356368D01*
X138614Y356664D01*
X138744Y356923D01*
X138873Y357127D01*
X138966Y357275D01*
X139040Y357349D01*
X139077Y357386D01*
X139336Y357609D01*
X139632Y357757D01*
X139929Y357868D01*
X140206Y357960D01*
X140466Y357998D01*
X140669Y358016D01*
X140743Y358035D01*
X144521D01*
X144613Y358016D01*
D02*
G37*
G36*
X131855D02*
X131911Y357998D01*
X131985Y357905D01*
X132022Y357812D01*
Y357794D01*
Y357775D01*
Y356923D01*
X132003Y356831D01*
X131985Y356757D01*
X131948Y356701D01*
X131892Y356664D01*
X131800Y356627D01*
X127819D01*
X131170Y348276D01*
X131207Y348184D01*
Y348110D01*
X131189Y348054D01*
X131152Y348017D01*
X131059Y347980D01*
X129948D01*
X129819Y347999D01*
X129726Y348017D01*
X129652Y348054D01*
X129596Y348110D01*
X129522Y348184D01*
X129504Y348202D01*
Y348221D01*
X126337Y356146D01*
X126245Y356424D01*
X126208Y356535D01*
X126189Y356627D01*
X126171Y356701D01*
Y356775D01*
Y356794D01*
Y356812D01*
Y357775D01*
X126189Y357868D01*
X126208Y357923D01*
X126300Y357998D01*
X126412Y358035D01*
X131763D01*
X131855Y358016D01*
D02*
G37*
%LPC*%
G36*
X242071Y68912D02*
X241986D01*
Y68486D01*
X241901D01*
Y67718D01*
X241815D01*
Y66864D01*
X241730D01*
Y66096D01*
X241645D01*
Y65243D01*
X241559D01*
Y64475D01*
X241474D01*
Y63621D01*
X241389D01*
Y62853D01*
X241303D01*
Y62000D01*
X241218D01*
Y61232D01*
X241133D01*
Y60378D01*
X241047D01*
Y59610D01*
X240962D01*
Y58757D01*
X240877D01*
Y58671D01*
Y58074D01*
X243181D01*
Y58415D01*
X243095D01*
Y59184D01*
X243010D01*
Y60037D01*
X242925D01*
Y60805D01*
X242840D01*
Y61658D01*
X242754D01*
Y62427D01*
X242669D01*
Y63280D01*
X242584D01*
Y64048D01*
X242498D01*
Y64901D01*
X242413D01*
Y65669D01*
X242327D01*
Y66523D01*
X242242D01*
Y67291D01*
X242157D01*
Y68144D01*
X242071D01*
Y68912D01*
D02*
G37*
G36*
X227393Y75313D02*
X224577D01*
Y64219D01*
X227393D01*
Y64304D01*
X227820D01*
Y64389D01*
X227990D01*
Y64475D01*
X228161D01*
Y64560D01*
X228332D01*
Y64645D01*
X228417D01*
Y64731D01*
X228588D01*
Y64816D01*
X228673D01*
Y64901D01*
X228758D01*
Y64987D01*
X228844D01*
Y65157D01*
X228929D01*
Y65243D01*
X229014D01*
Y65328D01*
X229100D01*
Y65499D01*
X229185D01*
Y65669D01*
X229270D01*
Y65840D01*
X229356D01*
Y66182D01*
X229441D01*
Y73350D01*
X229356D01*
Y73691D01*
X229270D01*
Y73862D01*
X229185D01*
Y74033D01*
X229100D01*
Y74204D01*
X229014D01*
Y74289D01*
X228929D01*
Y74374D01*
X228844D01*
Y74545D01*
X228758D01*
Y74630D01*
X228673D01*
Y74715D01*
X228588D01*
Y74801D01*
X228417D01*
Y74886D01*
X228332D01*
Y74972D01*
X228161D01*
Y75057D01*
X227990D01*
Y75142D01*
X227820D01*
Y75228D01*
X227393D01*
Y75313D01*
D02*
G37*
G36*
X298311Y36142D02*
X298225D01*
Y35374D01*
X298140D01*
Y34606D01*
X298055D01*
Y33752D01*
X297969D01*
Y33411D01*
X298567D01*
Y33923D01*
X298481D01*
Y34776D01*
X298396D01*
Y34862D01*
Y35544D01*
X298311D01*
Y36142D01*
D02*
G37*
G36*
X214677Y38105D02*
X213824D01*
Y31448D01*
X214677D01*
Y31533D01*
X214848D01*
Y31619D01*
X214933D01*
Y31704D01*
X215019D01*
Y31789D01*
X215104D01*
Y37763D01*
X215019D01*
Y37848D01*
X214933D01*
Y37934D01*
X214848D01*
Y38019D01*
X214677D01*
Y38105D01*
D02*
G37*
G36*
X154512Y36142D02*
X154427D01*
Y35374D01*
X154341D01*
Y34606D01*
X154256D01*
Y33752D01*
X154171D01*
Y33411D01*
X154768D01*
Y33923D01*
X154683D01*
Y34776D01*
X154598D01*
Y35544D01*
X154512D01*
Y35886D01*
Y35971D01*
Y36142D01*
D02*
G37*
G36*
X105697Y38105D02*
X104844D01*
Y36227D01*
Y36142D01*
Y35118D01*
X105697D01*
Y35203D01*
X105868D01*
Y35288D01*
X105954D01*
Y35374D01*
X106039D01*
Y35459D01*
X106124D01*
Y37763D01*
X106039D01*
Y37848D01*
X105954D01*
Y37934D01*
X105868D01*
Y38019D01*
X105697D01*
Y38105D01*
D02*
G37*
G36*
X93579D02*
X93152D01*
Y38019D01*
X92982D01*
Y37934D01*
X92896D01*
Y37848D01*
X92811D01*
Y37678D01*
X92726D01*
Y31875D01*
X92811D01*
Y31704D01*
X92896D01*
Y31619D01*
X92982D01*
Y31533D01*
X93152D01*
Y31448D01*
X93665D01*
Y31533D01*
X93750D01*
Y31619D01*
X93835D01*
Y31704D01*
X93920D01*
Y31789D01*
X94006D01*
Y33069D01*
Y33155D01*
Y37678D01*
X93920D01*
Y37848D01*
X93835D01*
Y37934D01*
X93750D01*
Y38019D01*
X93579D01*
Y38105D01*
D02*
G37*
G36*
X177422Y365610D02*
X175404D01*
X175200Y365591D01*
X175015Y365554D01*
X174867Y365499D01*
X174737Y365425D01*
X174608Y365332D01*
X174515Y365239D01*
X174385Y365036D01*
X174293Y364814D01*
X174256Y364628D01*
X174237Y364554D01*
Y364499D01*
Y364462D01*
Y364443D01*
Y363129D01*
X174256Y362925D01*
X174293Y362758D01*
X174348Y362592D01*
X174422Y362462D01*
X174515Y362351D01*
X174608Y362258D01*
X174811Y362129D01*
X175033Y362036D01*
X175219Y361999D01*
X175293Y361981D01*
X177385D01*
X177496Y361999D01*
X177552Y362073D01*
X177570Y362129D01*
Y362147D01*
Y365443D01*
X177533Y365536D01*
X177478Y365591D01*
X177422Y365610D01*
D02*
G37*
G36*
X163127D02*
X161812D01*
X161609Y365591D01*
X161424Y365573D01*
X161276Y365517D01*
X161164Y365480D01*
X161072Y365425D01*
X161016Y365369D01*
X160979Y365351D01*
X160961Y365332D01*
X160868Y365221D01*
X160794Y365091D01*
X160757Y364962D01*
X160720Y364814D01*
X160702Y364702D01*
X160683Y364591D01*
Y364517D01*
Y364499D01*
Y363721D01*
X160702Y363517D01*
X160739Y363332D01*
X160794Y363184D01*
X160850Y363055D01*
X160942Y362943D01*
X161035Y362832D01*
X161238Y362703D01*
X161461Y362610D01*
X161627Y362573D01*
X161701Y362555D01*
X163035D01*
X163238Y362573D01*
X163405Y362610D01*
X163553Y362666D01*
X163683Y362740D01*
X163794Y362832D01*
X163886Y362925D01*
X164016Y363147D01*
X164109Y363351D01*
X164146Y363536D01*
X164164Y363610D01*
Y363666D01*
Y363703D01*
Y363721D01*
Y364499D01*
X164146Y364702D01*
X164127Y364869D01*
X164090Y365017D01*
X164035Y365128D01*
X163979Y365221D01*
X163942Y365276D01*
X163923Y365314D01*
X163905Y365332D01*
X163794Y365425D01*
X163646Y365499D01*
X163516Y365536D01*
X163368Y365573D01*
X163238Y365591D01*
X163127Y365610D01*
D02*
G37*
G36*
X163146Y361333D02*
X161812D01*
X161609Y361314D01*
X161442Y361277D01*
X161294Y361221D01*
X161164Y361147D01*
X161053Y361055D01*
X160961Y360962D01*
X160831Y360740D01*
X160739Y360518D01*
X160702Y360333D01*
X160683Y360258D01*
Y360203D01*
Y360166D01*
Y360147D01*
Y359296D01*
X160702Y359092D01*
X160720Y358925D01*
X160776Y358777D01*
X160813Y358648D01*
X160868Y358555D01*
X160924Y358499D01*
X160942Y358462D01*
X160961Y358444D01*
X161072Y358351D01*
X161201Y358296D01*
X161479Y358222D01*
X161609Y358203D01*
X161720Y358185D01*
X163035D01*
X163238Y358203D01*
X163424Y358222D01*
X163572Y358259D01*
X163683Y358314D01*
X163794Y358370D01*
X163849Y358407D01*
X163886Y358425D01*
X163905Y358444D01*
X163997Y358555D01*
X164053Y358703D01*
X164127Y358981D01*
X164146Y359092D01*
X164164Y359203D01*
Y359277D01*
Y359296D01*
Y360147D01*
X164146Y360351D01*
X164109Y360536D01*
X164053Y360703D01*
X163979Y360833D01*
X163905Y360944D01*
X163812Y361036D01*
X163590Y361184D01*
X163386Y361277D01*
X163201Y361314D01*
X163146Y361333D01*
D02*
G37*
G36*
X143132Y356720D02*
X141114D01*
X140910Y356701D01*
X140725Y356664D01*
X140577Y356609D01*
X140447Y356535D01*
X140317Y356442D01*
X140225Y356349D01*
X140095Y356146D01*
X140003Y355924D01*
X139966Y355738D01*
X139947Y355664D01*
Y355609D01*
Y355572D01*
Y355553D01*
Y354239D01*
X139966Y354035D01*
X140003Y353868D01*
X140058Y353702D01*
X140132Y353572D01*
X140225Y353461D01*
X140317Y353368D01*
X140521Y353239D01*
X140743Y353146D01*
X140928Y353109D01*
X141003Y353091D01*
X143095D01*
X143206Y353109D01*
X143262Y353183D01*
X143280Y353239D01*
Y353257D01*
Y356553D01*
X143243Y356646D01*
X143188Y356701D01*
X143132Y356720D01*
D02*
G37*
%LPD*%
M02*
