M48
;Layer_Color=9474304
;FILE_FORMAT=4:4
METRIC,LZ
;TYPE=PLATED
T01F00S00C0.5000
T02F00S00C0.7112
T04F00S00C1.0000
T05F00S00C1.1000
T06F00S00C1.2000
T07F00S00C1.4000
T08F00S00C3.2000
%
T01
X0012065Y0033528
X001524Y0032639
X0053499Y004372
X0055499Y004297
X0057499Y004372
X0058249Y004572
X0057499Y004772
X0055499Y004847
X0053499Y004772
X0052749Y004572
X0006941Y0045339
X0006191Y0047339
X0004191Y0048089
X0002191Y0047339
X0001441Y0045339
X0002191Y0043339
X0004191Y0042589
X0006191Y0043339
T02
X0008763Y002794
X0015113Y0036703
X0021209Y0038608
X0022479Y0014859
X0016383Y004064
X0017526Y0044704
X0031623Y0043053
T04
X0043053Y0042545
X0045593
X0048133
T05
X000254Y0030861
Y0033401
X000508
Y0030861
Y0035941
Y0038481
X000254
Y0035941
X0025273Y0025019
X0029591Y0024892
Y0017272
X0025273Y0017399
T06
X0004572Y0003683
Y0006223
X0004699Y0012065
Y0014605
X0004572Y0020447
Y0022987
X0056134Y0014224
Y0011684
Y0005969
Y0003429
T07
X003302Y0002159
Y0009779
X0033274Y0014859
Y0022479
X0043434Y0014859
X0051054
X00508Y0002159
X004318
T08
X0055499Y004572
X0004191Y0045339
M30
